<svg width="170" height="155" viewBox="0 0 170 155" fill="none" xmlns="http://www.w3.org/2000/svg">
<path fill-rule="evenodd" clip-rule="evenodd" d="M115.119 0.161194L169.859 75.2169L115.386 154.961L90.614 138.039L123.088 90.5H3V60.5H121.995L90.8808 17.8388L115.119 0.161194Z" fill="black"/>
<path d="M151 75.2582L102.663 146M3 75.2582H151H3ZM151 75.2582L102.663 9L151 75.2582Z" stroke="#C8C8C8" stroke-width="2"/>
<path d="M103.5 12.5C105.157 12.5 106.5 11.1569 106.5 9.5C106.5 7.84315 105.157 6.5 103.5 6.5C101.843 6.5 100.5 7.84315 100.5 9.5C100.5 11.1569 101.843 12.5 103.5 12.5Z" fill="white" stroke="#00A1E6"/>
<path d="M103.5 148.5C105.157 148.5 106.5 147.157 106.5 145.5C106.5 143.843 105.157 142.5 103.5 142.5C101.843 142.5 100.5 143.843 100.5 145.5C100.5 147.157 101.843 148.5 103.5 148.5Z" fill="white" stroke="#00A1E6"/>
<path d="M3.5 78.5C5.15685 78.5 6.5 77.1569 6.5 75.5C6.5 73.8431 5.15685 72.5 3.5 72.5C1.84315 72.5 0.5 73.8431 0.5 75.5C0.5 77.1569 1.84315 78.5 3.5 78.5Z" fill="white" stroke="#00A1E6"/>
<path d="M149.5 78.5C151.157 78.5 152.5 77.1569 152.5 75.5C152.5 73.8431 151.157 72.5 149.5 72.5C147.843 72.5 146.5 73.8431 146.5 75.5C146.5 77.1569 147.843 78.5 149.5 78.5Z" fill="white" stroke="#00A1E6"/>
</svg>
