<svg width="1148" height="592" viewBox="0 0 1148 592" fill="none" xmlns="http://www.w3.org/2000/svg">
<path d="M18.2 543.3C19.2 534.3 27.2 526.6 39.3 523.2C40.7 522.8 42.2 522.4 43.6 522.1C47.9 521 52 520 55.7 518.1C57.4 517.3 59.6 515.9 61.5 513.9C61.4 513.9 61.3 513.9 61.2 513.9C43 515.6 27.5 518.3 16.5 521.8C1.90003 526.4 0.300049 530.7 0.300049 532.3C0.400049 535.3 5.30004 539.5 18.2 543.3Z" fill="#86F2B1"/>
<path d="M205.3 550.2H216.3C216 549.9 215.8 549.5 215.5 549.2C213.9 546.8 213.3 543.8 213.9 540.9C214.4 538.3 215.8 536.1 217.8 534.5H205.3V550.2Z" fill="#86F2B1"/>
<path d="M218.6 547.1C219.7 548.8 221.4 549.9 223.4 550.2H224.4C224.6 550.2 224.8 550.2 225 550.3C226.3 550.2 227.5 549.8 228.6 549.1C228.7 549 242 540.4 264.9 534.6C279 531 290.8 529.4 304.4 529.3C322.2 529.1 340.4 531.5 358.6 536.3C360.5 536.8 362.4 536.5 364.1 535.6C365.8 534.6 367 533.1 367.5 531.2C368 529.3 367.7 527.4 366.8 525.7C365.8 524 364.3 522.8 362.4 522.3C342.7 517 323 514.5 303.7 514.8C289.1 515 275.8 516.9 260.6 520.8C235.7 527.3 221.4 536.7 220.8 537.1C219.2 538.2 218.1 539.8 217.7 541.7C217.2 543.5 217.6 545.5 218.6 547.1Z" fill="#B7F7F5"/>
<path d="M28.9001 580.7C46.7001 586.4 71.5 589.4 100.7 589.4C129.9 589.4 154.7 586.3 172.7 580.5C185.8 576.2 201.5 568.3 201.5 554.9V539.3C188.2 550.3 143.5 556.2 101 556.2C58.3 556.2 13.3 550.2 0.300049 539.1V555.2C0.300049 568.6 15.9001 576.5 28.9001 580.7Z" fill="#B7F7F5"/>
<path d="M102.8 542.4C113.5 542.4 122.2 533.7 122.2 523C122.2 512.3 113.5 503.6 102.8 503.6C92.1 503.6 83.4 512.3 83.4 523C83.4 533.7 92.1 542.4 102.8 542.4Z" fill="#FFEB5A"/>
<path d="M173.1 546C192.2 541.9 200.2 537 201.5 533.3V531.2C199.6 525.7 183 518.6 149 514.7C150.8 517.3 153.4 519.3 156.1 521.4C158.5 523.2 161 525.1 163 527.6C167.4 532.9 169 540.4 167.3 547.1C169.3 546.8 171.3 546.4 173.1 546Z" fill="#86F2B1"/>
<path d="M160.1 530.1C158.4 528 156.2 526.3 153.8 524.5C150.8 522.2 147.6 519.8 145.5 516.4C140.9 509.1 142.5 500.6 144 492.4C145.1 486.5 146.3 480.4 145.1 474.9C143.3 466.7 135.6 460.2 127.2 459.8C118 459.4 110.8 464.4 107.9 473.2C107.7 473.9 107.4 474.9 107.2 475.9C106.3 479.4 105.4 483.4 102.8 484.9C99 487 95.4001 484.7 91.9001 482.3C87.9001 479.6 83.4001 476.6 76.9001 478.2C70.3001 479.8 66.3 485.6 67 492.8C67.2 494.7 67.4 496.4 67.7 498.1C68.2 501.3 68.6001 504.2 68.4001 507.5C67.9001 513.5 64.1 518.6 57.5 521.7C53.4 523.7 48.9 524.8 44.7 525.9C43.3 526.3 41.9 526.6 40.5 527C29.7 530 22.6 536.8 22.1 544.5C24.2 545.1 26.6 545.6 29.1 546.2C48.3 550.3 74 552.6 101.2 552.6C124 552.6 145.6 551 163.3 548.1C163.3 548 163.4 547.9 163.4 547.8C165.3 541.7 164.1 534.8 160.1 530.1ZM102.8 503.6C113.5 503.6 122.2 512.3 122.2 523C122.2 533.7 113.5 542.4 102.8 542.4C92.1 542.4 83.4001 533.7 83.4001 523C83.4001 512.3 92.1 503.6 102.8 503.6Z" fill="white"/>
<path d="M47.1268 465.823C47.6932 463.745 46.4679 461.601 44.3898 461.035C42.3117 460.468 40.168 461.694 39.6015 463.772C39.035 465.85 40.2603 467.994 42.3384 468.56C44.4165 469.127 46.5603 467.901 47.1268 465.823Z" fill="#7D3F97"/>
<path d="M182.593 477.132C183.16 475.053 181.934 472.909 179.856 472.343C177.778 471.777 175.634 473.002 175.068 475.08C174.501 477.158 175.726 479.302 177.804 479.868C179.883 480.435 182.027 479.21 182.593 477.132Z" fill="#7D3F97"/>
<path d="M28.9879 376.133C29.5544 374.055 28.3288 371.911 26.2507 371.344C24.1726 370.778 22.0289 372.003 21.4624 374.082C20.8959 376.16 22.1212 378.303 24.1993 378.87C26.2774 379.436 28.4214 378.211 28.9879 376.133Z" fill="#7D3F97"/>
<path d="M71.2889 415.813C71.8554 413.734 70.6301 411.591 68.552 411.024C66.4739 410.458 64.3302 411.683 63.7637 413.761C63.1972 415.839 64.4225 417.983 66.5006 418.55C68.5787 419.116 70.7224 417.891 71.2889 415.813Z" fill="#7D3F97"/>
<path d="M373.6 521.7C372.1 519.2 369.8 517.3 366.9 516.6C346.9 511.2 326.8 508.7 307.2 508.9C292.3 509.1 278.7 511 263.2 515C246.4 519.4 234.2 525.1 227.7 528.6H208.9C208.9 528.4 208.8 528.1 208.7 527.9C207.2 523.8 201.7 520.1 192.3 516.8C182.3 513.4 168.2 510.6 151.5 508.8C151.2 508.8 151 508.7 150.7 508.7C149.1 503.4 150.2 497.4 151.4 491C152.6 484.7 153.8 478.3 152.4 472C150.2 462.2 141 454.4 130.9 453.9C120.1 453.4 111.2 459.5 107.8 469.9C107.5 470.7 107.3 471.8 107 472.9C106.5 475 105.5 478.8 104.4 479.5C102.7 480.5 100.8 479.3 97.5 477.1C93.3 474.3 87.6 470.5 79.5 472.4C71.1 474.4 65.8 482.1 66.7 491C66.9 493 67.1 494.8 67.4 496.5C67.9 499.6 68.2 502.2 68 505.1C67.9 506.1 67.7 507.1 67.4 507.9C66.4 508 65.4 508.1 64.4 508.2C49.7 509.5 2.80001 514.9 0.200012 529.1C0.100012 529.3 0 529.6 0 529.9V553.2C0 565.7 10.8 575.7 31.2 582.3C49.3 588.1 74.6 591.2 104.2 591.2C133.8 591.2 159 588.1 177.3 582.1C197.8 575.4 208.7 565.3 208.7 552.9V552H226.5C227 552.1 227.5 552.1 228.1 552.1C230.3 552.1 232.4 551.5 234.2 550.3C234.3 550.2 247.2 541.9 269.3 536.3C283.1 532.8 294.7 531.2 307.9 531.1C325.3 530.9 343.2 533.2 361.1 538C363.9 538.8 366.9 538.4 369.5 536.9C372 535.4 373.9 533.1 374.6 530.2C375.4 527.2 375.1 524.2 373.6 521.7ZM205.1 529.2V531.3C203.8 534.9 195.9 539.9 176.7 544C174.8 544.4 172.9 544.8 170.9 545.2C172.6 538.5 171 531 166.6 525.7C164.6 523.3 162.1 521.4 159.7 519.5C157 517.4 154.4 515.4 152.6 512.8C186.6 516.6 203.2 523.7 205.1 529.2ZM80.5 476C87 474.4 91.5 477.5 95.5 480.1C98.9 482.4 102.5 484.8 106.4 482.7C109 481.3 109.9 477.3 110.8 473.7C111 472.7 111.3 471.7 111.5 471C114.4 462.2 121.6 457.2 130.8 457.6C139.2 458 146.9 464.5 148.7 472.7C149.9 478.2 148.8 484.3 147.6 490.2C146 498.4 144.4 506.9 149.1 514.2C151.2 517.6 154.4 520 157.4 522.3C159.7 524.1 161.9 525.8 163.7 527.9C167.6 532.6 168.9 539.5 166.9 545.3C166.9 545.4 166.8 545.5 166.8 545.6C149.1 548.5 127.4 550.1 104.7 550.1C77.4 550.1 51.8 547.8 32.6 543.7C30.1 543.2 27.8 542.6 25.6 542C26.1 534.3 33.2 527.6 44 524.5C45.4 524.1 46.8 523.7 48.2 523.4C52.5 522.3 56.9 521.2 61 519.2C67.6 516.1 71.4 511 71.9 505C72.1 501.7 71.7 498.7 71.2 495.6C71 493.9 70.7 492.2 70.5 490.3C69.9 483.5 73.9 477.6 80.5 476ZM20.2 519.7C31.3 516.2 46.7 513.5 64.9 511.8C65 511.8 65.1 511.8 65.2 511.8C63.4 513.9 61.1 515.2 59.4 516C55.6 517.8 51.6 518.9 47.3 520C45.9 520.4 44.4 520.7 43 521.1C30.9 524.5 22.9 532.2 21.9 541.2C8.90002 537.3 4 533.2 4 530.2C4 528.6 5.60001 524.4 20.2 519.7ZM176.4 578.4C158.5 584.2 133.6 587.3 104.4 587.3C75.2 587.3 50.3 584.3 32.6 578.6C19.5 574.4 4 566.6 4 553.1V537C17 548.2 62 554.1 104.7 554.1C147.2 554.1 191.8 548.2 205.2 537.2V552.8C205.1 566.3 189.5 574.2 176.4 578.4ZM208.9 532.4H221.4C219.4 534 218 536.2 217.5 538.8C216.9 541.7 217.5 544.6 219.1 547.1C219.3 547.5 219.6 547.8 219.9 548.1H208.9V532.4ZM371 529C370.5 530.9 369.3 532.4 367.6 533.4C365.9 534.4 364 534.6 362.1 534.1C343.9 529.2 325.7 526.8 307.9 527.1C294.4 527.3 282.6 528.9 268.4 532.4C245.5 538.2 232.3 546.8 232.1 546.9C231 547.6 229.8 548 228.5 548.1C228.3 548 228.1 548 227.9 548H226.9C225 547.7 223.2 546.5 222.1 544.9C221 543.3 220.7 541.4 221 539.5C221.4 537.6 222.5 536 224.1 534.9C224.7 534.5 239 525.1 263.9 518.6C279.1 514.7 292.4 512.8 307 512.6C326.3 512.3 346 514.9 365.7 520.1C367.6 520.6 369.1 521.8 370.1 523.5C371.3 525.2 371.5 527.2 371 529Z" fill="#7D3F97"/>
<path d="M106.4 544.1C119.2 544.1 129.6 533.7 129.6 520.9C129.6 508.1 119.2 497.7 106.4 497.7C93.6 497.7 83.2 508.1 83.2 520.9C83.2 533.7 93.7 544.1 106.4 544.1ZM106.4 501.5C117.1 501.5 125.8 510.2 125.8 520.9C125.8 531.6 117.1 540.3 106.4 540.3C95.7 540.3 87 531.6 87 520.9C87 510.2 95.7 501.5 106.4 501.5Z" fill="#7D3F97"/>
<path d="M533.3 151C535.4 148.5 537.7 145.7 537.7 140.2C537.7 134.7 535.4 131.9 533.3 129.4C531.4 127.1 529.8 125.1 529.8 121C529.8 116.9 531.4 114.9 533.3 112.6C535.4 110.1 537.7 107.3 537.7 101.8C537.7 96.2998 535.4 93.5 533.3 91C531.4 88.7 529.8 86.6999 529.8 82.5999C529.8 78.4999 531.4 76.5 533.3 74.2C535.2 71.9 537.3 69.3999 537.6 64.8999C537.6 64.6999 537.7 64.5999 537.7 64.3999V15.3999L546.7 15.2998V63.2V63.2998C546.7 67.3998 545.1 69.4 543.2 71.7C541.1 74.2 538.8 77 538.8 82.5C538.8 88 541.1 90.7998 543.2 93.2998C545.1 95.5998 546.7 97.6 546.7 101.7C546.7 105.8 545.1 107.8 543.2 110.1C541.1 112.6 538.8 115.4 538.8 120.9C538.8 126.4 541.1 129.2 543.2 131.7C545.1 134 546.7 136 546.7 140.1C546.7 144.2 545.1 146.2 543.2 148.5C541.2 151 538.8 153.8 538.8 159.2V159.7C536.1 159.2 533.5 158.9 530.9 158.8C530.6 158.8 530.2 158.8 529.9 158.8C529.9 155.1 531.4 153.2 533.3 151ZM503 169.9C511.4 164.9 521.2 162.3 530.7 162.6C535.2 162.7 539.9 163.5 544.2 164.9C542.7 166.5 541.3 168.2 540 169.9C539.9 169.9 539.9 169.9 539.8 169.9C537.9 169.6 534.5 169.4 532.1 169.3C517.2 168.9 503.1 175.8 494.4 187.9H485.5C489.2 180.8 495.3 174.5 503 169.9ZM515.7 188C520 185.1 525.5 183.5 531.6 183.4C531.4 183.9 531.1 184.3 530.9 184.8C530.4 185.8 530 186.9 529.5 188H515.7ZM533.6 179.6C524 179.3 515.6 182.3 509.9 188H499.2C507.2 178.3 519.3 172.8 532 173.1C533.7 173.2 535.8 173.3 537.4 173.4C536 175.4 534.7 177.5 533.6 179.6ZM627.1 188C626.4 187.2 625.7 186.5 624.9 185.8C618.5 180 610.2 176.8 601.5 176.8C592.8 176.8 584.5 180 578.1 185.8C577.4 186.5 576.6 187.2 575.9 188H563.7C564.1 187.4 564.5 186.8 564.8 186.4C573.3 174.7 587 167.8 601.4 167.8C615.8 167.8 629.5 174.8 638 186.4C638.3 186.8 638.7 187.4 639.1 188H627.1ZM621.6 188H581.4C587 183.2 594.1 180.6 601.5 180.6C608.9 180.6 616 183.2 621.6 188ZM643.8 188C643.1 186.9 641.9 185.1 641.2 184.2C632 171.6 617.1 164 601.5 164C585.9 164 571 171.5 561.8 184.2C561.1 185.1 559.9 187 559.2 188H548.4C548.6 187.7 548.8 187.3 549 187C559.7 168.1 579.8 156.3 601.5 156.3C623.2 156.3 643.3 168.1 654 187C654.2 187.3 654.4 187.7 654.6 188H643.8ZM561.2 155.4C573.2 147.6 587.2 143.5 601.5 143.5C615.9 143.5 629.8 147.6 641.8 155.4C653.5 163 662.8 173.7 668.6 186.3C668.8 186.8 669.1 187.4 669.3 187.9H658.7C658.2 186.9 657.7 185.9 657.2 185C645.9 164.9 624.5 152.4 601.4 152.4C578.3 152.4 556.9 164.9 545.6 185C545.1 185.9 544.6 186.8 544.1 187.9H533.5C533.7 187.3 534 186.8 534.2 186.3C540.2 173.7 549.5 163.1 561.2 155.4ZM555.9 71.8999C553.8 74.3999 551.5 77.2 551.5 82.7C551.5 88.2 553.8 91 555.9 93.5C557.8 95.8 559.4 97.7999 559.4 101.9C559.4 106 557.8 108 555.9 110.3C553.8 112.8 551.5 115.6 551.5 121.1C551.5 126.6 553.8 129.4 555.9 131.9C557.8 134.2 559.4 136.2 559.4 140.3C559.4 144.4 557.8 146.4 555.9 148.7C554.1 150.9 552 153.5 551.6 157.9C550 159.2 548.5 160.6 547.1 162C545.6 161.5 544.1 161 542.5 160.6V160.1C542.5 159.7 542.5 159.4 542.5 159.4C542.5 155.4 544.2 153.4 546 151.1C548.1 148.6 550.4 145.8 550.4 140.3C550.4 134.8 548.1 132 546 129.5C544.1 127.2 542.5 125.2 542.5 121.1C542.5 117 544.1 115 546 112.7C548.1 110.2 550.4 107.4 550.4 101.9C550.4 96.3999 548.1 93.5999 546 91.0999C544.1 88.7999 542.5 86.8 542.5 82.7C542.5 78.6 544.1 76.5998 546 74.2998C547.9 71.9998 550 69.5 550.3 65C550.3 64.8 550.4 64.7 550.4 64.5V15.5L559.4 15.3999V63.3999V63.5C559.5 67.6 557.8 69.5999 555.9 71.8999Z" fill="#FFEB5A"/>
<path d="M658 243.6H500.9C499.7 239.1 494.5 225.9 475.1 210.1H683.8C664.4 225.9 659.3 239.1 658 243.6Z" fill="white"/>
<path d="M699.5 199C699.5 203 696.2 206.2 692.3 206.2H469.9C469.8 206.2 469.8 206.2 469.7 206.2H466.7C462.7 206.2 459.5 202.9 459.5 199C459.5 195.1 462.8 191.8 466.7 191.8H692.3C696.3 191.8 699.5 195 699.5 199Z" fill="#1DBAFF"/>
<path d="M563.3 32.0996L578.3 32.1997L563.3 32.7996V32.0996Z" fill="#D8D8D6"/>
<path d="M563.3 21.3994L578.3 21.7993L563.3 22.1995V21.3994Z" fill="#D8D8D6"/>
<path d="M524 16.5999V15.5999L533.9 15.5V16.7998L524 16.5999Z" fill="#B7F7F5"/>
<path d="M524 28.0999V27.0999L533.9 26.7998V28.0999H524Z" fill="#B7F7F5"/>
<path d="M524 39.5994V38.3994L533.9 37.8994V39.5994H524Z" fill="#B7F7F5"/>
<path d="M621.9 28.1997C618.7 28.4997 612.3 29.2997 609.5 30.8997C607.8 31.7997 606.4 33.1997 605 34.3997C601.9 37.1997 599.1 39.8996 592.3 39.5996H592.2H563.2V36.5996L583.3 35.6997C584.3 35.6997 585.1 34.7996 585.1 33.7996V30.2996C585.1 29.2996 584.3 28.3997 583.2 28.3997L563.2 28.2996V25.9998L583.3 25.4998C584.3 25.4998 585.1 24.5996 585.1 23.5996V20.0996C585.1 19.0996 584.3 18.1997 583.3 18.1997L563.2 17.6997V15.3997L583.2 15.2996C584.2 15.2996 585.1 14.3997 585.1 13.3997V9.89966C585.1 8.89966 584.3 8.09976 583.3 7.99976L523.9 5.29956V4.09961H592.2C599.3 4.29961 602.1 6.89976 605.1 9.49976C606.4 10.6998 607.8 11.8996 609.5 12.7996C612.3 14.2996 618.7 15.1998 621.9 15.4998V28.1997V28.1997Z" fill="#B7F7F5"/>
<path d="M633.6 29.7998C633.6 31.9998 631.8 33.7 629.7 33.7C627.6 33.7 625.8 31.8998 625.8 29.7998V13.8999C625.8 11.6999 627.6 10 629.7 10C631.8 10 633.6 11.7999 633.6 13.8999V29.7998Z" fill="#EE4444"/>
<path d="M791.4 29.7994C784.4 36.1994 764.9 34.8996 732.5 32.6996C727.5 32.3996 722.3 31.9996 716.8 31.6996C699.3 30.5996 690.3 29.7995 683 29.0995C672 28.0995 664.6 27.3996 637.5 26.6996V16.9996C663.7 16.1996 671.4 15.5995 682.9 14.5995C690.4 13.9995 699.7 13.0995 716.9 12.0995C722.4 11.7995 727.6 11.3995 732.6 11.0995C765 8.89947 784.6 7.59961 791.6 13.9996C793.6 15.7996 794.6 18.3995 794.8 21.8995C794.4 25.3995 793.4 27.8994 791.4 29.7994Z" fill="#B7F7F5"/>
<path d="M803.1 20.7C802.8 16.5 801.4 13.2999 798.7 10.8999C790.5 3.3999 771.5 4.7 736.9 7C731.9 7.3 726.8 7.7 721.3 8C704.1 9.1 694.7 9.9 687.3 10.5C675.9 11.5 668.3 12.1999 642.2 12.8999C641.9 8.9999 638.6 5.7998 634.5 5.7998C631 5.7998 628 8.1999 627.1 11.3999C623.3 10.9999 618 10.2 616.1 9.19995C614.8 8.49995 613.6 7.3999 612.4 6.3999C609.4 3.6999 605.6 0.3 597 0C597 0 597 0 596.9 0H526.7C525.7 0 524.8 0.799902 524.8 1.8999V6.7998C524.8 7.7998 525.6 8.69995 526.7 8.69995H527.2L582.8 11.2L553.2 11.3999H553.1H553L540.9 11.5C540.7 11.5 540.6 11.3999 540.4 11.3999C540.2 11.3999 540 11.4 539.9 11.5L527.3 11.5999C527.2 11.5999 527.1 11.5999 527 11.5999C526.9 11.5999 526.9 11.5999 526.8 11.5999C525.8 11.5999 524.9 12.4 524.9 13.5V18.2C524.9 19.2 525.7 20.0999 526.8 20.0999H527.3L538.6 20.3999V22.7998L527.3 23.0999C527.1 23.0999 526.9 23.2 526.7 23.2C525.7 23.3 524.9 24.0999 524.9 25.0999V29.7C524.9 30.7 525.7 31.5999 526.8 31.5999L538.6 31.7V33.8999L527.3 34.3999H526.8C525.8 34.3999 524.9 35.1998 524.9 36.2998V41.2C524.9 42.2 525.7 43.0999 526.8 43.0999H538.6V63.0999V63.2C538.6 67.3 537 69.2999 535.1 71.5999C533 74.0999 530.7 76.8999 530.7 82.3999C530.7 87.8999 533 90.7 535.1 93.2C537 95.5 538.6 97.4999 538.6 101.6C538.6 105.7 537 107.7 535.1 110C533 112.5 530.7 115.3 530.7 120.8C530.7 126.3 533 129.1 535.1 131.6C537 133.9 538.6 135.9 538.6 140C538.6 144.1 537 146.1 535.1 148.4C533.1 150.8 530.8 153.6 530.7 158.7C511.4 159.9 493.6 171.3 486 187.7H471.4C465.3 187.7 460.4 192.6 460.4 198.7C460.4 204.8 465.3 209.7 471.4 209.7H473.8C474 209.9 474.2 210.1 474.3 210.1C487.5 220.2 494.4 229.3 497.9 235.1C501.7 241.4 502.3 245.4 502.3 245.4C502.4 246.3 503.2 247 504.2 247H664.3C665.2 247 666 246.3 666.2 245.4C666.2 245.4 666.9 241.4 670.6 235.1C674.1 229.3 681 220.2 694.2 210.1C694.2 210.1 694.4 210 694.5 209.9C694.6 209.8 694.6 209.8 694.7 209.8H697C703.1 209.8 708 204.9 708 198.8C708 192.7 703.1 187.8 697 187.8H678.3C677.8 186.7 677.4 185.6 676.9 184.6C670.7 171.3 661 160.1 648.7 152.1C636.1 143.9 621.4 139.5 606.3 139.5C591.2 139.5 576.5 143.8 563.9 152.1C563.1 152.6 562.3 153.2 561.5 153.7C562.1 152.7 562.8 151.8 563.6 150.8C565.7 148.3 568 145.5 568 140C568 134.5 565.7 131.7 563.6 129.2C561.7 126.9 560.1 124.9 560.1 120.8C560.1 116.7 561.7 114.7 563.6 112.4C565.7 109.9 568 107.1 568 101.6C568 96.0999 565.7 93.2998 563.6 90.7998C561.7 88.4998 560.1 86.4999 560.1 82.3999C560.1 78.2999 561.7 76.3 563.6 74C565.5 71.7 567.6 69.2 567.9 64.7C567.9 64.5 568 64.4 568 64.2V43.0999H596.9C597.3 43.0999 597.6 43.0999 597.9 43.0999C605.5 43.0999 609.2 39.5998 612.3 36.7998C613.6 35.5998 614.7 34.4998 616.1 33.7998C618 32.7998 623.3 31.9999 627.1 31.5999C628 34.7999 631 37.2 634.5 37.2C638.5 37.2 641.8 34.0999 642.2 30.0999C669.2 30.8999 676.5 31.5 687.4 32.5C694.7 33.2 703.8 33.9999 721.3 35.0999C726.9 35.3999 732 35.7999 737 36.0999C751.8 37.0999 763.8 37.8999 773.2 37.8999C785.8 37.8999 794 36.5 798.7 32.2C801.3 29.8 802.8 26.5999 803.1 22.3999C803.1 22.1999 803.2 22.0999 803.2 21.8999V21.0999C803.2 20.9999 803.2 20.9 803.1 20.7ZM568.1 31.8999L583.1 32L568.1 32.7V31.8999ZM568.1 21.2L583.2 21.5999L568.1 22V21.2ZM528.8 16.2998V15.2998L538.7 15.2V16.5L528.8 16.2998ZM528.8 27.8999V26.8999L538.7 26.5999V27.8999H528.8ZM528.8 39.3999V38.2L538.7 37.7998V39.5H528.8V39.3999ZM538.1 150.8C540.2 148.3 542.5 145.5 542.5 140C542.5 134.5 540.2 131.7 538.1 129.2C536.2 126.9 534.6 124.9 534.6 120.8C534.6 116.7 536.2 114.7 538.1 112.4C540.2 109.9 542.5 107.1 542.5 101.6C542.5 96.0999 540.2 93.2998 538.1 90.7998C536.2 88.4998 534.6 86.4999 534.6 82.3999C534.6 78.2999 536.2 76.3 538.1 74C540 71.7 542.1 69.2 542.4 64.7C542.4 64.5 542.5 64.4 542.5 64.2V15.2L551.5 15.0999V63V63.0999C551.5 67.1999 549.9 69.2 548 71.5C545.9 74 543.6 76.7998 543.6 82.2998C543.6 87.7998 545.9 90.5999 548 93.0999C549.9 95.3999 551.5 97.4 551.5 101.5C551.5 105.6 549.9 107.6 548 109.9C545.9 112.4 543.6 115.2 543.6 120.7C543.6 126.2 545.9 129 548 131.5C549.9 133.8 551.5 135.8 551.5 139.9C551.5 144 549.9 146 548 148.3C546 150.8 543.6 153.6 543.6 159V159.5C540.9 159 538.3 158.7 535.7 158.6C535.4 158.6 535 158.6 534.7 158.6C534.7 154.9 536.3 153 538.1 150.8ZM507.8 169.7C516.2 164.7 526 162.1 535.5 162.4C540 162.5 544.7 163.3 549 164.7C547.5 166.3 546.1 168 544.8 169.7C544.7 169.7 544.7 169.7 544.6 169.7C542.7 169.4 539.3 169.2 536.9 169.1C522 168.7 507.9 175.6 499.2 187.7H490.3C494.1 180.6 500.2 174.2 507.8 169.7ZM520.6 187.8C524.9 184.9 530.4 183.3 536.5 183.2C536.3 183.7 536 184.1 535.8 184.6C535.3 185.6 534.9 186.7 534.4 187.8H520.6ZM538.4 179.4C528.8 179.1 520.4 182.1 514.7 187.8H504C512 178.1 524.1 172.6 536.8 172.9C538.5 173 540.6 173.1 542.2 173.2C540.9 175.2 539.6 177.3 538.4 179.4ZM662.9 243.4H505.8C504.6 238.9 499.4 225.7 480 209.9H688.7C669.3 225.6 664.1 238.9 662.9 243.4ZM704.4 198.8C704.4 202.8 701.1 206 697.2 206H474.7C474.6 206 474.6 206 474.5 206H471.5C467.5 206 464.3 202.7 464.3 198.8C464.3 194.9 467.6 191.6 471.5 191.6H697.1C701.1 191.5 704.4 194.8 704.4 198.8ZM632 187.8C631.3 187 630.6 186.3 629.8 185.6C623.4 179.8 615.1 176.6 606.4 176.6C597.7 176.6 589.4 179.8 583 185.6C582.3 186.3 581.5 187 580.8 187.8H568.6C569 187.2 569.4 186.6 569.7 186.2C578.2 174.5 591.9 167.6 606.3 167.6C620.7 167.6 634.4 174.6 642.9 186.2C643.2 186.6 643.6 187.2 644 187.8H632ZM626.5 187.8H586.3C591.9 183 599 180.4 606.4 180.4C613.8 180.4 620.9 183 626.5 187.8ZM648.7 187.8C648 186.7 646.8 184.9 646.1 184C636.9 171.4 622 163.8 606.4 163.8C590.8 163.8 575.9 171.3 566.7 184C566 184.9 564.8 186.8 564.1 187.8H553.3C553.5 187.5 553.7 187.1 553.9 186.8C564.6 167.9 584.7 156.1 606.4 156.1C628.1 156.1 648.2 167.9 658.9 186.8C659.1 187.1 659.3 187.5 659.5 187.8H648.7ZM566.1 155.2C578.1 147.4 592.1 143.3 606.4 143.3C620.8 143.3 634.7 147.4 646.7 155.2C658.4 162.8 667.7 173.5 673.5 186.1C673.7 186.6 674 187.2 674.2 187.7H663.6C663.1 186.7 662.6 185.7 662.1 184.8C650.8 164.7 629.4 152.2 606.3 152.2C583.2 152.2 561.8 164.7 550.5 184.8C550 185.7 549.5 186.6 549 187.7H538.4C538.6 187.1 538.9 186.6 539.1 186.1C545.1 173.5 554.4 162.8 566.1 155.2ZM560.8 71.7C558.7 74.2 556.4 77 556.4 82.5C556.4 88 558.7 90.7998 560.8 93.2998C562.7 95.5998 564.3 97.6 564.3 101.7C564.3 105.8 562.7 107.8 560.8 110.1C558.7 112.6 556.4 115.4 556.4 120.9C556.4 126.4 558.7 129.2 560.8 131.7C562.7 134 564.3 136 564.3 140.1C564.3 144.2 562.7 146.2 560.8 148.5C559 150.7 556.9 153.3 556.5 157.7C554.9 159 553.4 160.4 552 161.8C550.5 161.3 549 160.8 547.4 160.4V159.9C547.4 159.5 547.4 159.2 547.4 159.2C547.4 155.2 549.1 153.2 550.9 150.9C553 148.4 555.3 145.6 555.3 140.1C555.3 134.6 553 131.8 550.9 129.3C549 127 547.4 125 547.4 120.9C547.4 116.8 549 114.8 550.9 112.5C553 110 555.3 107.2 555.3 101.7C555.3 96.2 553 93.3999 550.9 90.8999C549 88.5999 547.4 86.6 547.4 82.5C547.4 78.4 549 76.3999 550.9 74.0999C552.8 71.7999 554.9 69.2998 555.2 64.7998C555.2 64.5998 555.3 64.4998 555.3 64.2998V15.2998L564.3 15.2V63.2V63.2998C564.3 67.3998 562.7 69.4 560.8 71.7ZM626.8 27.8999C623.6 28.1999 617.2 28.9999 614.4 30.5999C612.7 31.4999 611.3 32.8999 609.9 34.0999C606.8 36.8999 604 39.5998 597.2 39.2998H597.1H568.1V36.2998L588.2 35.3999C589.2 35.3999 590 34.5 590 33.5V30C590 29 589.2 28.0999 588.1 28.0999L568.1 28V25.7L588.2 25.2C589.2 25.2 590 24.2998 590 23.2998V19.7998C590 18.7998 589.2 17.8999 588.2 17.8999L568.1 17.3999V15.0999L588.1 15C589.1 15 590 14.0999 590 13.0999V9.59985C590 8.59985 589.2 7.79995 588.2 7.69995L528.8 5V3.7998H597C604.1 3.9998 606.9 6.59995 609.9 9.19995C611.2 10.4 612.6 11.6 614.3 12.5C617.1 14 623.5 14.9 626.7 15.2V27.8999H626.8ZM638.5 29.5999C638.5 31.7999 636.7 33.5 634.6 33.5C632.5 33.5 630.7 31.6999 630.7 29.5999V13.7C630.7 11.5 632.5 9.7998 634.6 9.7998C636.7 9.7998 638.5 11.6 638.5 13.7V29.5999ZM796.2 29.5999C789.2 35.9999 769.7 34.7 737.3 32.5C732.3 32.2 727.1 31.8 721.6 31.5C704.1 30.4 695.1 29.5999 687.8 28.8999C676.8 27.8999 669.4 27.2 642.3 26.5V16.7998C668.5 15.9998 676.2 15.3999 687.7 14.3999C695.2 13.7999 704.5 12.8999 721.7 11.8999C727.2 11.5999 732.4 11.1999 737.4 10.8999C769.8 8.6999 789.4 7.3998 796.4 13.7998C798.4 15.5998 799.4 18.2 799.6 21.7C799.3 25.2 798.2 27.6999 796.2 29.5999Z" fill="#7D3F97"/>
<path d="M839.2 391.899L864 392.5C863.9 392 863.9 391.599 863.8 391.099C862 381.799 855.3 374.1 846.3 371C839.6 368.7 832.4 369.199 826 372.299C820 375.199 815.4 380.3 813 386.5C815 385.6 817.3 385.3 819.6 386C824.5 387.4 827.4 392.6 825.9 397.5C825.3 399.6 824 401.299 822.4 402.399L849.3 407L837.8 395.099C837.3 394.499 837.1 393.7 837.4 393C837.8 392.3 838.5 391.799 839.2 391.899Z" fill="#EE4444"/>
<path d="M818.5 389.5C815.6 388.7 812.5 390.3 811.7 393.3C810.8 396.2 812.5 399.3 815.5 400.2C818.4 401 821.5 399.4 822.3 396.4C823.1 393.4 821.5 390.4 818.5 389.5Z" fill="#EE4444"/>
<path d="M918.5 461.299C908.7 449.999 892.6 441.3 869.4 434.6L866 433.6C842.8 426.9 824.5 425.8 810.2 430.1C794.9 434.8 784.3 445.699 778 463.399C781.4 468.299 803 497.7 817.5 517.6C817.8 518 817.9 518.499 817.9 518.899L817.2 525.6C818.9 527 824.6 531.199 838.7 535.199C855.9 540.099 860.7 539.199 861.7 538.799L864.8 532.399C865 531.999 865.4 531.599 865.8 531.499C888.7 522.499 922.6 508.999 928.1 506.699C932.1 488.299 929 473.399 918.5 461.299ZM822.3 457.399C821.2 459.299 818.7 459.799 816.9 458.699C815 457.599 814.5 455.099 815.6 453.299C816.7 451.399 819.2 450.899 821 451.999C822.8 453.099 823.4 455.599 822.3 457.399ZM829.6 494.699C828.5 496.599 826 497.099 824.2 495.999C822.3 494.899 821.8 492.4 822.9 490.6C824 488.7 826.5 488.199 828.3 489.299C830.1 490.399 830.7 492.799 829.6 494.699ZM855.7 479.1C856.8 477.2 859.3 476.699 861.1 477.799C863 478.899 863.5 481.399 862.4 483.199C861.3 485.099 858.8 485.599 857 484.499C855.2 483.399 854.6 481 855.7 479.1ZM853.4 518.799C852.3 520.699 849.8 521.2 848 520.1C846.1 519 845.6 516.499 846.7 514.699C847.8 512.799 850.3 512.299 852.1 513.399C853.9 514.499 854.6 516.999 853.4 518.799ZM876.8 456.999C875.7 458.899 873.2 459.399 871.4 458.299C869.5 457.199 869 454.699 870.1 452.899C871.2 450.999 873.7 450.5 875.5 451.6C877.3 452.7 877.9 455.099 876.8 456.999ZM906.1 490.699C905 492.599 902.5 493.099 900.7 491.999C898.9 490.899 898.3 488.4 899.4 486.6C900.5 484.7 903 484.199 904.8 485.299C906.6 486.399 907.2 488.799 906.1 490.699Z" fill="#EE4444"/>
<path d="M919.8 392.199C910.6 389.999 900.8 392.999 894.3 399.899C894 400.199 893.7 400.599 893.4 400.999L914.7 413.599C915.4 413.999 915.7 414.699 915.6 415.499C915.5 416.299 914.9 416.899 914.2 417.099L898.1 420.999L923.3 431.399C922.6 429.599 922.4 427.499 923 425.399C924.4 420.499 929.6 417.599 934.5 418.999C936.8 419.699 938.6 421.099 939.8 422.899C942.4 409.099 933.7 395.399 919.8 392.199Z" fill="#EE4444"/>
<path d="M930.4 433.299C933.3 434.099 936.4 432.4 937.2 429.5C938 426.6 936.3 423.5 933.4 422.7C930.5 421.9 927.4 423.6 926.6 426.5C925.8 429.4 927.5 432.399 930.4 433.299Z" fill="#EE4444"/>
<path d="M780.6 473.499C778.6 470.799 777.1 468.699 776.1 467.199C775.5 466.399 775.1 465.799 774.8 465.399C774.7 465.199 774.6 465.099 774.5 464.899L759.3 460.499C755.1 459.899 751 462.5 749.8 466.6L748.6 470.699C747.3 475.199 749.9 479.999 754.5 481.299L794.8 492.899C794.6 492.699 794.5 492.499 794.3 492.299C788.5 484.499 783.9 478.099 780.6 473.499Z" fill="#F27F98"/>
<path d="M777.6 498.199L777.2 499.699C776.3 502.799 778.1 505.999 781.2 506.899L811.4 515.6C808.5 511.6 803.7 505.199 798.7 498.199L784.9 494.199C781.7 493.399 778.5 495.099 777.6 498.199Z" fill="#F27F98"/>
<path d="M949.4 528.699L950.6 524.6C951.8 520.4 949.7 516.099 945.8 514.399L930.3 509.899C930.3 509.899 930.3 509.899 930.2 509.899C930 509.999 929.9 510 929.7 510.1C929.2 510.3 928.5 510.599 927.7 510.899C926.1 511.599 923.6 512.599 920.5 513.799C915.3 515.899 907.9 518.8 898.8 522.5C898.6 522.6 898.3 522.699 898.1 522.799L938.8 534.5C943.3 535.8 948 533.199 949.4 528.699Z" fill="#F27F98"/>
<path d="M901.2 545.399L890 566.399L907 553.6L908.2 545.1C906.2 546 903.9 546.2 901.6 545.6L901.2 545.399Z" fill="#EE4444"/>
<path d="M906.3 529.199L892.2 525.199C892.2 525.199 892.1 525.2 892.1 525.1C884.1 528.3 876.7 531.2 872 533L902.6 541.799C905.7 542.699 908.9 540.899 909.8 537.799L910.2 536.299C911.2 533.399 909.4 530.099 906.3 529.199Z" fill="#F27F98"/>
<path d="M721.1 429.4C722.8 428 725 427.2 727.2 427.3L734.8 404.1L720.3 419.7L720.9 429.6L721.1 429.4Z" fill="#EE4444"/>
<path d="M946.7 509.299C947.2 509.399 947.6 509.599 948.1 509.799L951.6 510.799C956.1 512.099 960.9 509.499 962.2 504.899L963.4 500.799C964.7 496.299 962.1 491.499 957.5 490.199L934.2 483.5L934 483.6C934.9 490.3 934.6 497.599 933 505.399L946.7 509.299Z" fill="#F27F98"/>
<path d="M780.5 510.6L780.1 510.5C777.8 509.8 776 508.4 774.8 506.6L771.2 514.399L778.8 534.299L780.5 510.6Z" fill="#EE4444"/>
<path d="M783.1 411.499C778.9 413.999 777.4 418.999 779.7 423.199L788.4 438.899C788.4 438.899 788.4 438.899 788.5 438.899C793.6 433.699 799.6 429.899 806.6 427.399L798.5 412.799C796.2 408.699 791 407.199 786.8 409.399L783.1 411.499Z" fill="#F27F98"/>
<path d="M936.2 449.699C939.2 447.999 942.6 447.799 945.7 448.699L940.5 431.5C938.7 435.8 933.9 438.199 929.4 436.899C929.2 436.799 929 436.799 928.8 436.699L932.9 451.5L936.2 449.699Z" fill="#F27F98"/>
<path d="M751.9 441.199L750.7 445.3C749.4 449.8 752 454.6 756.6 455.9L760.1 456.9C760.6 457 761.1 457.099 761.5 457.199L774.8 461C777.6 453.5 781.2 447.1 785.6 441.9L762.5 435.199C758 433.999 753.2 436.599 751.9 441.199Z" fill="#F27F98"/>
<path d="M766.2 394.5L785.1 380.899L764.2 384.899L759.3 392.5C759.4 392.5 759.5 392.5 759.5 392.5L761 392.599C763 392.699 764.8 393.4 766.2 394.5Z" fill="#EE4444"/>
<path d="M807.8 393.299L794.3 405.099C797.4 405.999 800.1 408 801.8 411L803.6 414.299L815 403.899C814.8 403.899 814.6 403.799 814.4 403.699C809.8 402.399 807 397.899 807.8 393.299Z" fill="#F27F98"/>
<path d="M952.8 530.399L988.1 518.399C991.1 517.399 992.8 514.1 991.7 511L991.2 509.5C990.2 506.5 986.9 504.799 983.8 505.899L959.5 514.199C959.4 514.199 959.3 514.299 959.1 514.299C957.2 515.399 955.1 516 952.9 516C954.6 518.8 955.1 522.299 954.1 525.699L952.9 529.799C952.9 529.899 952.9 530.099 952.8 530.399Z" fill="#F27F98"/>
<path d="M727.7 431.1C726.1 430.9 724.6 431.399 723.4 432.399L722.2 433.399C719.7 435.399 719.3 439.1 721.3 441.6L744.8 470.5C744.9 470.3 744.9 470.099 745 469.799L746.2 465.699C747.2 462.299 749.5 459.699 752.4 458.199C750.5 456.999 749.1 455.4 748 453.5C747.9 453.4 747.8 453.299 747.7 453.199L731.5 433.199C730.7 431.999 729.3 431.3 727.7 431.1Z" fill="#F27F98"/>
<path d="M755.1 397.599C753.9 398.599 753.2 399.999 753.1 401.599L750.5 435.9C753.5 432.1 758.7 430.299 763.6 431.699L764 431.799L766.2 402.5C766.4 399.3 764 396.499 760.8 396.299L759.3 396.2C757.7 396.1 756.2 396.599 755.1 397.599Z" fill="#F27F98"/>
<path d="M980.5 455.699L981.9 456.399C982 456.399 982 456.5 982.1 456.5L982 447.5L966.4 433L975.2 454.6C977 454.5 978.8 454.899 980.5 455.699Z" fill="#EE4444"/>
<path d="M978.7 459.099C977.3 458.399 975.8 458.199 974.3 458.699C972.8 459.199 971.6 460.199 970.9 461.499L957.2 487.399L957.6 487.499C962.6 488.899 965.9 493.199 966.5 497.999L982.6 467.599C983.3 466.199 983.5 464.699 983 463.199C982.5 461.699 981.5 460.499 980.2 459.799L978.7 459.099Z" fill="#F27F98"/>
<path d="M950.8 455.299C948.5 451.199 943.3 449.699 939.1 451.899L924.3 460.1C928.7 465.9 931.7 472.299 933.3 479.299C933.4 479.299 933.6 479.299 933.8 479.399L949.5 470.699C953.7 468.399 955.1 463.399 952.8 458.999L950.8 455.299Z" fill="#F27F98"/>
<path d="M994.7 508.299L994.8 508.5L1000.6 500.399L996.6 479.5L990.7 503.199C992.5 504.299 994 506.099 994.7 508.299Z" fill="#EE4444"/>
<path d="M829.616 494.552C830.735 492.712 830.151 490.313 828.311 489.193C826.471 488.073 824.072 488.657 822.952 490.497C821.832 492.337 822.417 494.737 824.257 495.857C826.097 496.976 828.496 496.392 829.616 494.552Z" fill="white"/>
<path d="M876.713 457.117C877.833 455.277 877.249 452.878 875.409 451.758C873.569 450.639 871.17 451.223 870.05 453.063C868.93 454.903 869.514 457.302 871.355 458.422C873.195 459.541 875.594 458.957 876.713 457.117Z" fill="white"/>
<path d="M822.31 457.428C823.43 455.588 822.846 453.188 821.006 452.069C819.166 450.949 816.766 451.533 815.647 453.373C814.527 455.213 815.111 457.613 816.951 458.732C818.791 459.852 821.19 459.268 822.31 457.428Z" fill="white"/>
<path d="M862.454 483.056C863.574 481.216 862.99 478.817 861.15 477.697C859.31 476.578 856.91 477.162 855.79 479.002C854.671 480.842 855.255 483.241 857.095 484.361C858.935 485.481 861.335 484.896 862.454 483.056Z" fill="white"/>
<path d="M906.06 490.713C907.18 488.872 906.596 486.473 904.756 485.354C902.916 484.234 900.516 484.818 899.396 486.658C898.277 488.498 898.861 490.898 900.701 492.017C902.541 493.137 904.941 492.553 906.06 490.713Z" fill="white"/>
<path d="M853.421 518.952C854.541 517.111 853.957 514.712 852.117 513.593C850.277 512.473 847.877 513.057 846.758 514.897C845.638 516.737 846.222 519.137 848.062 520.256C849.902 521.376 852.301 520.792 853.421 518.952Z" fill="white"/>
<path d="M1007.8 501.699C1008.1 501.299 1008.2 500.699 1008.1 500.199L1002.3 470.1C1002.1 469.2 1001.4 468.6 1000.5 468.6C999.6 468.6 998.8 469.2 998.6 470L990.7 501.6C989.2 501.4 987.7 501.5 986.1 502L968.9 507.9L989.4 469.199C990.6 466.899 990.8 464.3 990.1 461.9C989.9 461.3 989.7 460.8 989.4 460.3L989.3 446.5C989.3 446 989.1 445.5 988.7 445.1L966.3 424.199C965.7 423.599 964.7 423.5 963.9 424C963.2 424.5 962.9 425.4 963.2 426.3L975 455.5C973.3 456.4 971.9 457.8 971 459.5L956.9 486.1L941.4 481.6L953.8 474.8C959.7 471.5 961.9 464.2 958.7 458L956.6 454.3C955.9 453.1 955.1 452 954.1 451.1C954.1 451.1 954.1 451.1 954.1 451L946.5 425.9C946.6 425.5 946.7 425 946.8 424.6C950.6 408.3 940.5 392 924.2 388.2C913.7 385.7 902.5 389.1 895.1 397C894.6 397.6 894 398.2 893.5 398.8C893.2 399.2 892.6 400 892.6 400C892.3 400.4 892.2 401 892.3 401.5C892.4 402 892.7 402.5 893.2 402.7L912.3 414.1L895.1 418.3C894.3 418.5 893.7 419.2 893.7 420C893.6 420.8 894.1 421.6 894.9 421.9L928 435.5C928.1 435.5 928.1 435.6 928.2 435.6H928.3L933.1 453L924.4 457.8C914.1 446.2 897.6 437.3 874 430.5L870.6 429.5C847.2 422.8 828.6 421.499 813.7 425.699L809 417.2L822.3 405.1H822.4C822.5 405.1 822.5 405.1 822.6 405.1L857.9 411.1C858.7 411.2 859.5 410.8 859.9 410.1C860.3 409.4 860.2 408.5 859.6 407.9L847.3 395.2L869.6 395.8C870.1 395.8 870.6 395.6 871 395.2C871.4 394.8 871.6 394.3 871.5 393.8C871.5 393.8 871.4 392.8 871.4 392.3C871.3 391.5 871.2 390.7 871 389.9C868.9 379.2 861.3 370.5 851.1 366.9C843.4 364.3 835.2 364.8 827.9 368.4C820.6 372 815.2 378.1 812.6 385.8C812.5 386.2 812.3 386.7 812.2 387.1L792.4 404.3C791.1 404.5 789.8 405 788.6 405.7L784.9 407.8C778.9 411.3 776.8 418.7 780.1 424.6L786.9 437L771.4 432.5L773.6 402.5C773.7 400.5 773.3 398.6 772.3 397L797.8 378.6C798.5 378.1 798.8 377.1 798.4 376.3C798 375.5 797.2 375 796.3 375.2L766.2 381C765.7 381.1 765.2 381.4 765 381.8L757.6 393.4C757.1 393.7 756.6 394 756.2 394.4C754.3 396.1 753.1 398.4 752.9 400.9L749.6 444.6L738.2 430.5C737.2 429.3 736 428.299 734.6 427.699L744.7 396.7C745 395.9 744.6 394.9 743.9 394.5C743.1 394 742.2 394.2 741.6 394.8L720.7 417.2C720.3 417.6 720.2 418.1 720.2 418.6L721.1 432.9V433C719.4 436.3 719.7 440.4 722.2 443.4L748.8 476.199C750 480.099 753 483.4 757.2 484.6L781.3 491.5C779.6 492.7 778.3 494.5 777.7 496.6L777.3 498.1C777.1 498.9 777 499.7 776.9 500.5L771.2 513.1C771 513.6 771 514.1 771.2 514.6L782.2 543.199C782.4 543.799 782.9 544.2 783.4 544.3C783.7 544.4 783.9 544.4 784.2 544.4C785.1 544.3 785.7 543.499 785.8 542.699L788 511.3L817.7 519.9L817.1 525.699C817 526.199 817.2 526.7 817.5 527.1C817.7 527.3 822.7 533 840.9 538.3C841.1 538.3 841.2 538.4 841.4 538.4C861.5 544.1 867.2 542.799 868.5 540.699C868.5 540.599 868.6 540.6 868.6 540.5L871.2 535.199L901.3 543.9L886.4 571.699C886 572.499 886.2 573.4 886.8 574C887 574.2 887.3 574.3 887.5 574.4C888.1 574.6 888.7 574.5 889.2 574.1L913.7 555.699C914.1 555.399 914.4 554.9 914.4 554.4L916.3 540.699C916.7 539.999 917 539.3 917.2 538.5L917.6 537C918.2 534.9 918 532.699 917.3 530.699L941.4 537.6C945.6 538.8 949.9 537.7 953 535L993 521.4C996.7 520.1 999.1 516.799 999.5 513.199L999.6 513.1L1007.8 501.699ZM1004.2 500.199L998.4 508.3L998.3 508.1C997.6 505.9 996.1 504.2 994.2 503L1000.1 479.3L1004.2 500.199ZM985.6 447.4L985.7 456.4C985.6 456.4 985.6 456.3 985.5 456.3L984.1 455.6C982.4 454.7 980.6 454.4 978.8 454.5L970 432.9L985.6 447.4ZM974.5 461.3C975.2 459.9 976.4 458.9 977.9 458.5C979.4 458 981 458.2 982.3 458.9L983.7 459.6C985.1 460.3 986.1 461.5 986.5 463C987 464.5 986.8 466.1 986.1 467.4L970 497.8C969.5 493 966.1 488.7 961.1 487.3L960.7 487.199L974.5 461.3ZM960.1 491C964.6 492.3 967.3 497.1 966 501.6L964.8 505.699C963.5 510.199 958.7 512.9 954.2 511.6L950.7 510.6C950.2 510.4 949.8 510.2 949.3 510.1L935.6 506.199C937.2 498.399 937.5 491.2 936.6 484.4L936.8 484.3L960.1 491ZM955.4 459.9C957.7 464.3 956.2 469.3 952.1 471.6L936.4 480.3C936.2 480.3 936.1 480.199 935.9 480.199C934.3 473.199 931.3 466.8 926.9 461L941.7 452.8C945.8 450.5 951.1 451.999 953.4 456.199L955.4 459.9ZM917.8 416.8C918.5 416.6 919.1 416 919.2 415.2C919.3 414.4 919 413.7 918.3 413.3L897 400.7C897.3 400.3 897.6 400 897.9 399.6C904.4 392.7 914.1 389.7 923.4 391.9C937.3 395.2 946 408.8 943.4 422.7C942.2 420.9 940.4 419.4 938.1 418.8C933.2 417.4 928 420.299 926.6 425.199C926 427.299 926.2 429.399 926.9 431.199L901.7 420.8L917.8 416.8ZM930.2 426.199C931 423.299 934.1 421.6 937 422.4C939.9 423.2 941.6 426.299 940.8 429.199C940 432.099 936.9 433.8 934 433C931.1 432.2 929.4 429.099 930.2 426.199ZM932.4 436.5C932.6 436.6 932.8 436.599 933 436.699C937.6 437.999 942.4 435.6 944.1 431.3L949.3 448.5C946.2 447.6 942.8 447.8 939.8 449.5L936.5 451.3L932.4 436.5ZM819.1 399.9C819.1 399.9 819 399.9 819.1 399.9C816.2 399 814.5 396 815.3 393C816.2 390.1 819.2 388.4 822.1 389.2C825 390.1 826.7 393.1 825.9 396.1C825 399.1 822 400.8 819.1 399.9ZM829.6 372C836 368.9 843.2 368.4 849.9 370.7C858.9 373.8 865.6 381.5 867.4 390.8C867.5 391.3 867.6 391.7 867.6 392.2L842.9 391.6C842.1 391.6 841.4 392 841.1 392.7C840.8 393.4 840.9 394.2 841.5 394.8L853 406.7L826.1 402.1C827.7 400.9 829 399.2 829.6 397.2C831 392.3 828.2 387.1 823.3 385.7C821 385 818.7 385.3 816.7 386.2C819 380 823.6 375 829.6 372ZM811.4 393C810.6 397.6 813.4 402.2 818 403.5C818.2 403.6 818.4 403.6 818.6 403.7L807.2 414.1L805.4 410.8C803.7 407.8 801 405.7 797.9 404.9L811.4 393ZM786.7 411.3L790.4 409.2C794.5 406.9 799.8 408.4 802.1 412.6L810.2 427.199C803.3 429.699 797.2 433.599 792.1 438.699C792.1 438.699 792.1 438.699 792 438.699L783.3 423C781 418.8 782.5 413.8 786.7 411.3ZM778.4 460.9L765.1 457.1C764.6 457 764.1 456.9 763.7 456.8L760.2 455.8C755.7 454.5 753 449.699 754.3 445.199L755.5 441.1C756.8 436.6 761.6 433.899 766.1 435.199L789.2 441.9C784.8 447 781.2 453.4 778.4 460.9ZM767.8 384.6L788.7 380.6L769.8 394.2C768.4 393.1 766.6 392.4 764.7 392.3L763.2 392.2C763.1 392.2 763 392.2 763 392.2L767.8 384.6ZM758.7 397.4C759.9 396.4 761.4 395.9 762.9 396L764.4 396.1C767.6 396.3 770 399.1 769.8 402.3L767.6 431.6L767.2 431.5C762.2 430.1 757.1 431.899 754.1 435.699L756.7 401.4C756.8 399.8 757.5 398.4 758.7 397.4ZM723.9 419.4L738.4 403.8L730.8 427C728.6 427 726.4 427.7 724.7 429.1L724.5 429.199L723.9 419.4ZM725 441.3C723 438.8 723.4 435.1 725.9 433.1L727.1 432.1C728.3 431.1 729.8 430.7 731.4 430.8C732.9 431 734.3 431.7 735.3 432.9L751.5 452.9C751.6 453 751.7 453.099 751.8 453.199C752.8 455.099 754.3 456.7 756.2 457.9C753.3 459.4 751 462.1 750 465.4L748.8 469.5C748.7 469.7 748.7 469.899 748.6 470.199L725 441.3ZM752.3 470.6L753.5 466.5C754.7 462.3 758.8 459.8 763 460.4L778.2 464.8C778.3 464.9 778.4 465.1 778.5 465.3C778.8 465.7 779.2 466.3 779.8 467.1C780.8 468.5 782.4 470.7 784.3 473.4C787.6 478 792.3 484.3 798.1 492.3C798.3 492.5 798.4 492.7 798.6 492.9L758.3 481.3C753.6 480 751 475.2 752.3 470.6ZM784.8 506.699C781.7 505.799 779.9 502.6 780.8 499.5L781.2 498C782.1 494.9 785.3 493.1 788.4 494L802.2 498C807.3 504.9 812 511.4 814.9 515.4L784.8 506.699ZM782.5 534.199L774.9 514.3L778.5 506.5C779.7 508.3 781.6 509.8 783.8 510.4L784.2 510.5L782.5 534.199ZM868.4 532.199L865.3 538.6C864.3 538.9 859.5 539.9 842.3 535C828.2 531 822.5 526.8 820.8 525.4L821.5 518.699C821.6 518.199 821.4 517.8 821.1 517.4C806.5 497.6 785 468.199 781.6 463.199C788 445.399 798.5 434.5 813.8 429.9C828.1 425.6 846.4 426.7 869.6 433.4L873 434.4C896.2 441.1 912.3 449.8 922.1 461.1C932.6 473.2 935.7 488.1 931.7 506.5C926.2 508.8 892.3 522.3 869.4 531.3C869 531.5 868.6 531.799 868.4 532.199ZM895.9 525L910 529C913.1 529.9 914.9 533.099 914 536.199L913.6 537.699C912.7 540.799 909.5 542.599 906.4 541.699L875.8 532.9C880.4 531.1 887.9 528.1 895.9 525C895.8 525 895.8 525 895.9 525ZM893.6 566.199L904.8 545.199L905.2 545.3C907.5 546 909.8 545.7 911.8 544.8L910.6 553.3L893.6 566.199ZM942.3 534.3L901.6 522.6C901.8 522.5 902.1 522.4 902.3 522.3C911.5 518.7 918.8 515.7 924 513.6C927.1 512.3 929.5 511.399 931.2 510.699C932.1 510.299 932.8 510.1 933.2 509.9C933.4 509.8 933.5 509.699 933.7 509.699C933.7 509.699 933.7 509.699 933.8 509.699L949.3 514.199C953.1 515.899 955.3 520.2 954.1 524.4L952.9 528.5C951.7 533 946.9 535.6 942.3 534.3ZM991.6 518.1L956.3 530.1C956.4 529.9 956.4 529.7 956.5 529.4L957.7 525.3C958.7 521.9 958.1 518.4 956.5 515.6C958.7 515.6 960.8 515 962.7 513.9C962.8 513.9 962.9 513.9 963.1 513.8L987.4 505.5C990.4 504.5 993.7 506.1 994.8 509.1L995.3 510.6C996.3 513.8 994.7 517.1 991.6 518.1Z" fill="#7D3F97"/>
<path d="M833.19 494.486C834.309 492.646 833.725 490.247 831.885 489.127C830.045 488.008 827.646 488.592 826.526 490.432C825.407 492.272 825.991 494.671 827.831 495.791C829.671 496.91 832.07 496.326 833.19 494.486Z" fill="#7D3F97"/>
<path d="M880.357 456.791C881.476 454.951 880.892 452.552 879.052 451.432C877.212 450.312 874.812 450.896 873.693 452.737C872.573 454.577 873.157 456.976 874.997 458.096C876.837 459.215 879.237 458.631 880.357 456.791Z" fill="#7D3F97"/>
<path d="M825.913 457.255C827.033 455.415 826.449 453.016 824.609 451.896C822.768 450.776 820.369 451.36 819.25 453.2C818.13 455.041 818.714 457.44 820.554 458.559C822.394 459.679 824.794 459.095 825.913 457.255Z" fill="#7D3F97"/>
<path d="M866.027 483C867.146 481.16 866.562 478.761 864.722 477.641C862.882 476.521 860.483 477.105 859.363 478.946C858.244 480.786 858.828 483.185 860.668 484.305C862.508 485.424 864.907 484.84 866.027 483Z" fill="#7D3F97"/>
<path d="M909.665 490.535C910.785 488.695 910.201 486.296 908.361 485.176C906.52 484.056 904.121 484.641 903.002 486.481C901.882 488.321 902.466 490.72 904.306 491.84C906.146 492.959 908.545 492.375 909.665 490.535Z" fill="#7D3F97"/>
<path d="M857.063 518.637C858.182 516.797 857.598 514.398 855.758 513.278C853.918 512.158 851.518 512.742 850.399 514.582C849.279 516.422 849.864 518.822 851.704 519.941C853.544 521.061 855.943 520.477 857.063 518.637Z" fill="#7D3F97"/>
<path d="M1006.6 270.6C1001.8 270.2 998 269.7 995.3 269.1C994.7 269 994.1 268.8 993.5 268.7V291H1047.9V271.9C1046.3 271.9 1044.8 271.9 1043.2 271.9C1029.4 271.9 1016.4 271.5 1006.6 270.6Z" fill="#B7F7F5"/>
<path d="M1124.2 292.2C1115.1 289.3 1103.8 292.7 1099 294.2C1098 294.5 1097.3 294.7 1096.8 294.8H1096.7V313.5C1100.7 309.1 1106.5 303.4 1113.5 301.2C1117.3 300.1 1120.8 300.3 1123.7 301.9C1126.7 303.5 1129 306.5 1130.1 310.3C1132.9 319.7 1127 354.2 1119.5 365.4C1114.6 372.8 1109.4 376.8 1104.1 377.2C1103.7 377.2 1103.4 377.2 1103 377.2C1100.3 377.2 1098 376.3 1096.3 375.2L1089.1 404.8C1093.8 402.9 1105.8 397 1120.4 380.8C1127 373.5 1132.1 362.8 1135.5 349.2C1138.9 335.6 1139.4 323.6 1139.4 319.1C1139.6 305.8 1133.6 295.1 1124.2 292.2Z" fill="#B7F7F5"/>
<path d="M1041.3 382.4C1041.3 379.4 1040.5 376.9 1039 375.2C1036.9 372.9 1033.3 371.7 1028.3 371.7C1028.3 371.7 1028.3 371.7 1028.2 371.7C1017.1 371.7 1015.8 377.8 1015.8 382.4C1015.8 382.5 1015.8 382.9 1015.8 382.9V427.8C1021.6 428.9 1029.8 429.8 1041 430.1H1041.6C1041.5 429.8 1041.4 429.5 1041.4 429.2V382.4H1041.3Z" fill="#B7F7F5"/>
<path d="M998.8 371.8C996.8 371.8 995 372 993.5 372.4V373.5L1006 425.2C1007.1 425.7 1009 426.4 1011.8 427.1V382.4C1011.8 379.4 1011 376.9 1009.5 375.2C1007.5 373 1003.9 371.8 998.8 371.8Z" fill="#B7F7F5"/>
<path d="M1092.9 372.5C1091.2 372 1089.2 371.8 1087 371.8C1087 371.8 1087 371.8 1086.9 371.8C1075.8 371.8 1074.5 377.9 1074.5 382.5C1074.5 382.6 1074.5 383 1074.5 383V427.1C1077.3 426.4 1079.2 425.8 1080.4 425.2L1092.9 373.5V372.5Z" fill="#B7F7F5"/>
<path d="M1087 368C1089.2 368 1091.1 368.2 1092.9 368.6V294.8H1070.6V311.1C1070.6 317.4 1065.5 322.4 1059.3 322.4C1053 322.4 1048 317.3 1048 311.1V294.8H993.6V368.5C995.2 368.2 997 368 998.9 368C1005 368 1009.6 369.6 1012.4 372.7C1012.9 373.3 1013.4 373.9 1013.8 374.6C1016.2 370.2 1021.1 367.9 1028.2 367.9C1028.2 367.9 1028.2 367.9 1028.3 367.9C1034.4 367.9 1039 369.5 1041.8 372.6C1042.3 373.2 1042.8 373.8 1043.2 374.5C1045.6 370.1 1050.5 367.8 1057.6 367.8C1057.6 367.8 1057.6 367.8 1057.7 367.8C1063.8 367.8 1068.4 369.4 1071.2 372.5C1071.7 373.1 1072.2 373.7 1072.6 374.4C1075 370.3 1079.8 368 1087 368Z" fill="#B7F7F5"/>
<path d="M998.4 261.3C999 261.2 1006 260.8 1010.3 260.8C1011.3 260.8 1012.2 261.6 1012.2 262.7C1012.2 263.7 1011.4 264.6 1010.3 264.6C1005.9 264.7 999.2 265.1 998.7 265.1C997.7 265.2 996.8 265.3 996.1 265.5C1002.8 266.8 1019.4 268.2 1043.1 268.2C1044.7 268.2 1046.4 268.2 1048 268.2C1048.6 262.5 1053.4 258.1 1059.2 258.1C1059.5 258.1 1059.8 258.1 1060.1 258.1C1061.2 255.8 1061.7 253.3 1061.7 250.7C1061.7 240.9 1053.8 233 1044 233C1038.8 233 1033.9 235.3 1030.5 239.2C1031.7 240.7 1032.8 242.3 1033.8 244C1034.3 244.9 1034 246.1 1033.1 246.6C1032.2 247.1 1031 246.8 1030.5 245.9C1024.3 235.3 1012.9 228.7 1000.6 228.7C981.6 228.7 966.1 244.2 966.1 263.2C966.1 277.4 974.6 290 987.8 295.2C988 295.3 988.8 295.6 989.7 295.8V265.9C989.7 265.8 989.7 265.8 989.7 265.7C989.7 265.6 989.7 265.6 989.7 265.5C989.7 262.7 994.4 261.8 998.4 261.3Z" fill="#FFEB5A"/>
<path d="M1057.6 371.8C1046.5 371.8 1045.1 377.9 1045.1 382.5C1045.1 382.6 1045.1 383 1045.1 383V429.2C1045.1 429.5 1045 429.8 1044.9 430.1H1047C1057.4 429.8 1065.2 428.9 1070.7 427.9V382.4C1070.7 379.4 1069.9 376.9 1068.4 375.2C1066.2 373 1062.6 371.8 1057.6 371.8Z" fill="#B7F7F5"/>
<path d="M1093.4 264.2C1093.5 263.6 1093.6 263 1093.6 262.4C1093.6 257.5 1089.6 253.5 1084.7 253.5C1082 253.5 1079.5 254.7 1077.8 256.7C1077.6 256.9 1077.4 257.2 1077.3 257.4C1076.7 258.3 1075.5 258.5 1074.7 257.9C1073.8 257.3 1073.6 256.1 1074.2 255.3C1074.4 254.9 1074.7 254.6 1075 254.3C1077.4 251.4 1081 249.7 1084.8 249.7C1086.1 249.7 1087.4 249.9 1088.6 250.3C1088.6 250.1 1088.6 249.8 1088.6 249.6C1089.1 239 1080.9 230 1070.3 229.5C1065.6 229.3 1061 230.8 1057.4 233.7C1062.4 237.6 1065.6 243.7 1065.6 250.6C1065.6 253.5 1065 256.3 1063.9 258.9C1067.3 260.4 1069.8 263.6 1070.4 267.4C1085.6 266.6 1091.8 265.2 1093.2 264.6C1093.2 264.5 1093.3 264.3 1093.4 264.2Z" fill="#FFEB5A"/>
<path d="M1070.6 291H1092.9V268.7C1091.6 269.1 1090 269.4 1088 269.7C1083.7 270.3 1077.7 270.9 1070.6 271.3V291V291Z" fill="#B7F7F5"/>
<path d="M1059.3 261.8C1055.2 261.8 1051.8 265.1 1051.8 269.3C1051.8 269.5 1051.8 269.7 1051.7 269.9V311.1C1051.7 315.3 1055.1 318.7 1059.3 318.7C1063.5 318.7 1066.9 315.3 1066.9 311.1V269.9C1066.8 269.7 1066.8 269.5 1066.8 269.3C1066.7 265.2 1063.4 261.8 1059.3 261.8Z" fill="#FFEB5A"/>
<path d="M1129.8 288.6C1119.6 285.4 1107.5 289 1102.3 290.6C1101.9 290.7 1101.4 290.9 1101.1 291V266.6C1101.1 266.5 1101.1 266.5 1101.2 266.4C1101.6 265.1 1101.8 263.8 1101.8 262.4C1101.8 258.1 1099.7 254.4 1096.5 252.1C1096.5 252 1096.6 251.8 1096.6 251.7C1096.7 251.1 1096.7 250.4 1096.8 249.8C1097.4 237.1 1087.5 226.4 1074.9 225.8C1068.8 225.5 1063 227.6 1058.5 231.7C1055.5 230.1 1052.1 229.2 1048.5 229.2C1042.3 229.2 1036.6 231.8 1032.5 236.3C1025.4 229 1015.5 224.8 1005.2 224.8C984.1 224.8 966.9 242 966.9 263.1C966.9 278.8 976.3 292.8 991 298.6C991 298.6 992.6 299.2 994.3 299.6V373.7C994.3 373.8 994.3 374 994.4 374.1L1007.2 426.9C1007.3 427.4 1007.6 427.8 1008 428C1010.9 429.9 1022.2 433.3 1045.5 433.9H1051.6C1074 433.2 1084.7 429.9 1087.6 428.1C1088 427.8 1088.3 427.4 1088.4 427L1092.7 409.4C1093.5 409.2 1097.2 408 1102.9 404.7C1108.6 401.3 1117.6 394.9 1127.9 383.6C1146.8 362.7 1147.8 323.8 1147.9 319.4C1147.8 304.1 1140.8 292 1129.8 288.6ZM1076.9 374.6C1076.5 373.9 1076 373.3 1075.5 372.7C1072.7 369.6 1068.1 368 1062 368C1062 368 1062 368 1061.9 368C1054.8 368 1049.9 370.3 1047.5 374.7C1047.1 374 1046.6 373.4 1046.1 372.8C1043.3 369.7 1038.7 368.1 1032.6 368.1C1032.6 368.1 1032.6 368.1 1032.5 368.1C1025.4 368.1 1020.5 370.4 1018.1 374.8C1017.7 374.1 1017.2 373.5 1016.7 372.9C1013.9 369.8 1009.3 368.2 1003.2 368.2C1001.3 368.2 999.5 368.4 997.9 368.7V295H1052.3V311.3C1052.3 317.6 1057.4 322.6 1063.6 322.6C1069.8 322.6 1074.9 317.5 1074.9 311.3V295H1097.2V368.8C1095.4 368.4 1093.5 368.2 1091.3 368.2C1091.3 368.2 1091.3 368.2 1091.2 368.2C1084.2 368 1079.4 370.3 1076.9 374.6ZM1071.1 269.3C1071.1 269.5 1071.1 269.7 1071.2 269.9V311.1C1071.2 315.3 1067.8 318.7 1063.6 318.7C1059.4 318.7 1056 315.3 1056 311.1V269.9C1056.1 269.7 1056.1 269.5 1056.1 269.3C1056.1 265.2 1059.4 261.8 1063.6 261.8C1067.8 261.8 1071.1 265.2 1071.1 269.3ZM1097.3 291H1075V271.2C1082.1 270.8 1088.1 270.3 1092.4 269.6C1094.3 269.3 1096 269 1097.3 268.6V291V291ZM1052.3 291H997.9V268.7C998.5 268.9 999.1 269 999.7 269.1C1002.4 269.7 1006.2 270.2 1011 270.6C1020.8 271.5 1033.8 271.9 1047.6 271.9C1049.2 271.9 1050.7 271.9 1052.3 271.9V291V291ZM1101.1 319C1101.6 318.5 1102.2 317.9 1102.7 317.2C1106.5 313.1 1112.2 306.8 1119 304.8C1121.8 303.9 1124.3 304.1 1126.3 305.2C1128.4 306.3 1130 308.5 1130.9 311.4C1133.2 319 1128 352.5 1120.8 363.3C1116.6 369.6 1112.2 373.1 1108.2 373.5C1105 373.8 1102.5 372.1 1101.1 370.8V319ZM1074.6 229.5C1085.2 230 1093.4 239 1092.9 249.6C1092.9 249.8 1092.9 250.1 1092.9 250.3C1091.7 249.9 1090.4 249.7 1089.1 249.7C1085.3 249.7 1081.7 251.4 1079.3 254.3C1079 254.6 1078.8 255 1078.5 255.3C1077.9 256.2 1078.2 257.3 1079 257.9C1079.9 258.5 1081 258.2 1081.6 257.4C1081.8 257.1 1082 256.9 1082.1 256.7C1083.8 254.6 1086.3 253.5 1089 253.5C1093.9 253.5 1097.9 257.5 1097.9 262.4C1097.9 263 1097.8 263.6 1097.7 264.2C1097.6 264.3 1097.5 264.5 1097.4 264.6C1096 265.3 1089.9 266.6 1074.6 267.4C1074 263.6 1071.5 260.4 1068.1 258.9C1069.2 256.3 1069.8 253.4 1069.8 250.6C1069.8 243.7 1066.6 237.6 1061.6 233.7C1065.3 230.8 1069.9 229.3 1074.6 229.5ZM992.3 295.1C979.1 289.8 970.6 277.3 970.6 263.1C970.6 244.1 986.1 228.6 1005.1 228.6C1017.4 228.6 1028.8 235.2 1035 245.8C1035.5 246.7 1036.7 247 1037.6 246.5C1038.5 246 1038.8 244.8 1038.3 243.9C1037.3 242.2 1036.2 240.6 1035 239.1C1038.4 235.1 1043.2 232.9 1048.5 232.9C1058.3 232.9 1066.2 240.8 1066.2 250.6C1066.2 253.2 1065.6 255.7 1064.6 258C1064.3 258 1064 258 1063.7 258C1057.9 258 1053.1 262.4 1052.5 268.1C1050.9 268.1 1049.3 268.1 1047.6 268.1C1023.9 268.1 1007.3 266.7 1000.6 265.4C1001.3 265.3 1002.2 265.1 1003.2 265C1003.7 264.9 1010.4 264.5 1014.8 264.5C1015.8 264.5 1016.7 263.6 1016.7 262.6C1016.7 261.6 1015.8 260.7 1014.8 260.7C1010.4 260.8 1003.4 261.2 1002.9 261.2C998.8 261.7 994.2 262.5 994.2 265.4C994.2 265.5 994.2 265.5 994.2 265.6C994.2 265.7 994.2 265.7 994.2 265.8V295.7C993.3 295.5 992.5 295.2 992.3 295.1ZM997.9 373.5V372.4C999.4 372 1001.2 371.8 1003.2 371.8C1008.2 371.8 1011.8 373 1013.9 375.3C1015.4 377 1016.2 379.4 1016.2 382.5V427.1C1013.4 426.4 1011.5 425.8 1010.4 425.2L997.9 373.5ZM1020.1 427.9V383C1020.1 383 1020.1 382.6 1020.1 382.5C1020.1 377.9 1021.5 371.8 1032.5 371.8C1032.5 371.8 1032.5 371.8 1032.6 371.8C1037.6 371.8 1041.2 373 1043.3 375.3C1044.8 377 1045.6 379.4 1045.6 382.5V429.3C1045.6 429.6 1045.7 429.9 1045.8 430.2H1045.2C1034.2 429.8 1025.9 428.9 1020.1 427.9ZM1051.4 430.1H1049.3C1049.4 429.8 1049.5 429.5 1049.5 429.2V383C1049.5 383 1049.5 382.6 1049.5 382.5C1049.5 377.9 1050.9 371.8 1061.9 371.8C1061.9 371.8 1061.9 371.8 1062 371.8C1067 371.8 1070.6 373 1072.7 375.3C1074.2 377 1075 379.4 1075 382.5V427.9C1069.5 428.9 1061.8 429.8 1051.4 430.1ZM1084.8 425.2C1083.7 425.7 1081.8 426.4 1078.9 427.1V383C1078.9 383 1078.9 382.6 1078.9 382.5C1078.9 377.9 1080.3 371.8 1091.3 371.8C1091.3 371.8 1091.3 371.8 1091.4 371.8C1093.6 371.8 1095.6 372 1097.3 372.5V373.5L1084.8 425.2ZM1124.9 380.9C1110.3 397.1 1098.3 403 1093.6 404.9L1100.8 375.3C1102.5 376.4 1104.8 377.3 1107.5 377.3C1107.9 377.3 1108.2 377.3 1108.6 377.3C1113.9 376.8 1119.1 372.8 1124 365.5C1131.5 354.3 1137.4 319.7 1134.6 310.4C1133.5 306.6 1131.2 303.6 1128.2 302C1125.3 300.4 1121.7 300.2 1118 301.3C1110.9 303.5 1105.2 309.2 1101.2 313.6V294.9H1101.3C1101.8 294.8 1102.5 294.6 1103.5 294.3C1108.3 292.8 1119.7 289.5 1128.7 292.3C1138.1 295.3 1144.1 305.9 1143.9 319.4C1143.8 323.9 1143.4 335.9 1140 349.5C1136.6 363 1131.5 373.6 1124.9 380.9Z" fill="#7D3F97"/>
<path d="M777.2 332.9V262.7L829.5 270.7C829.6 270.7 829.7 270.7 829.8 270.7C830.3 270.7 830.7 270.5 831.1 270.2L879.4 226V332.8H777.2V332.9Z" fill="#86F2B1"/>
<path d="M890.5 211L878.5 218.8C878.4 218.9 878.3 218.9 878.3 219L877.6 219.6V211.4L890.5 211Z" fill="#86F2B1"/>
<path d="M881.6 221.3L891.7 214.7L881.6 233.5V221.3Z" fill="#86F2B1"/>
<path d="M751.5 255L778.3 233.6V259.1L751.5 255Z" fill="#86F2B1"/>
<path d="M759.1 181.6L778.2 189.3H778.3V227.8L752.1 197.6L759.1 181.6Z" fill="#86F2B1"/>
<path d="M752.8 204.5L774.3 229.3L764.2 237.3L752.8 204.5Z" fill="#86F2B1"/>
<path d="M826.7 312.7C812.6 312.7 801.1 305.6 801.1 296.9C801.1 288.2 812.6 281.1 826.7 281.1C840.8 281.1 852.3 288.2 852.3 296.9C852.4 305.6 840.9 312.7 826.7 312.7Z" fill="white"/>
<path d="M808.3 188.3H780.6V229.9H808.3V188.3Z" fill="#F27F98"/>
<path d="M780.6 233.7H808.3V262.4L780.6 258.2V233.7Z" fill="#F27F98"/>
<path d="M808.3 142.3H780.6V184.5H808.3V142.3Z" fill="#F27F98"/>
<path d="M842.4 188.3H812.1V229.9H842.4V188.3Z" fill="#F27F98"/>
<path d="M812.1 233.7H842.4V251.6C842.4 251.7 842.4 251.8 842.4 251.9L827.6 265.4L812.1 263V233.7Z" fill="#F27F98"/>
<path d="M842.4 142.3H812.1V184.5H842.4V142.3Z" fill="#F27F98"/>
<path d="M873.9 188.3V222.7C873.9 222.8 873.9 222.9 873.9 223L866.3 229.9C866.2 229.9 866.2 229.9 866.1 229.9H846.1V188.3H873.9V188.3Z" fill="#F27F98"/>
<path d="M846.1 233.7H862.2L846.1 248.5V233.7Z" fill="#F27F98"/>
<path d="M891.1 106.2L921 136.1L902.2 154.9L872.3 125L891.1 106.2ZM871.5 129.6L900.1 158.2V162.9L871.5 134.3V129.6ZM903.9 163.3V158.6L921.8 140.7V145.4L903.9 163.3Z" fill="#F27F98"/>
<path d="M902.4 208.2C902.3 208 902.1 207.9 902 207.8C901.6 207.3 901.1 207 900.5 207.1L881.9 207.7V186.6C881.9 185.6 881.1 184.7 880 184.7H850.4V140.6C850.4 139.6 849.6 138.7 848.5 138.7H783C782 138.7 781.1 139.5 781.1 140.6V183.9L761.6 176C760.6 175.6 759.6 176.1 759.2 177L751 195.9V196C750.7 196.5 750.6 197.1 750.8 197.7L765.1 238.9C765.2 239.3 765.4 239.5 765.7 239.8L749.5 252.7C748.9 253.2 748.7 253.9 748.8 254.6V254.7C748.6 255.7 749.3 256.7 750.4 256.9L776.3 260.9V333.5C776.3 334.5 777.1 335.4 778.2 335.4H884.1C885.1 335.4 886 334.6 886 333.5V241.7L902.7 210.8C902.9 210.5 902.9 210.2 902.9 209.9C902.7 209.1 902.7 208.6 902.4 208.2ZM894.6 211L882.6 218.8C882.5 218.9 882.4 218.9 882.4 219L881.7 219.6V211.4L894.6 211ZM878 188.3V222.7C878 222.8 878 222.9 878 223L870.4 229.9C870.3 229.9 870.3 229.9 870.2 229.9H850.2V188.3H878V188.3ZM754.1 253.5L780.9 232.2V257.6L754.1 253.5ZM812.4 229.9H784.7V188.3H812.4V229.9ZM816.2 188.3H846.5V229.9H816.2V188.3ZM784.7 233.7H812.4V262.4L784.7 258.1V233.7ZM816.2 233.7H846.5V251.6C846.5 251.7 846.5 251.8 846.5 251.9L831.7 265.4L816.2 263V233.7ZM850.3 233.7H866.4L850.3 248.4V233.7ZM846.5 184.6H816.2V142.4H846.5V184.6ZM812.4 142.3V184.5H784.7V142.3H812.4ZM761.8 180.1L780.9 187.8H781V226.3L754.8 196.1L761.8 180.1ZM757 204.5L778.5 229.3L768.4 237.3L757 204.5ZM779.8 331.4V261.2L832.1 269.2C832.2 269.2 832.3 269.2 832.4 269.2C832.9 269.2 833.3 269 833.7 268.7L882 224.5V331.4H779.8ZM885.7 221.3L895.9 214.6L885.7 233.5V221.3Z" fill="#7D3F97"/>
<path d="M929.7 136.1C929.7 135.6 929.5 135.1 929.1 134.8L896.5 102.2C895.8 101.5 894.6 101.5 893.8 102.2L872.4 123.6C872 124 871.8 124.4 871.8 124.9C871.8 124.9 871.8 124.9 871.8 125C871.8 125 871.8 125 871.8 125.1V135C871.8 135.5 872 136 872.4 136.3L905 168.9C905.4 169.3 905.9 169.5 906.3 169.5C906.8 169.5 907.3 169.3 907.6 168.9L929 147.5C929.4 147.1 929.6 146.7 929.6 146.2V136.3C929.7 136.3 929.7 136.3 929.7 136.1C929.7 136.2 929.7 136.2 929.7 136.1ZM895.2 106.2L925.1 136.1L906.3 154.9L876.4 125L895.2 106.2ZM875.7 129.6L904.3 158.2V162.9L875.7 134.3V129.6ZM908 163.3V158.6L925.9 140.7V145.4L908 163.3Z" fill="#7D3F97"/>
<path d="M851.3 282.8C845.8 279.3 838.5 277.3 830.8 277.3C823.1 277.3 815.8 279.2 810.3 282.8C804.5 286.5 801.4 291.5 801.4 296.9C801.4 302.3 804.6 307.3 810.3 311C815.8 314.5 823.1 316.5 830.8 316.5C838.5 316.5 845.8 314.6 851.3 311C857.1 307.3 860.2 302.3 860.2 296.9C860.2 291.5 857.1 286.5 851.3 282.8ZM830.9 312.7C816.8 312.7 805.3 305.6 805.3 296.9C805.3 288.2 816.8 281.1 830.9 281.1C845 281.1 856.5 288.2 856.5 296.9C856.5 305.6 845 312.7 830.9 312.7Z" fill="#7D3F97"/>
<path d="M820.5 291.6C823.1 289.8 826.8 288.7 830.7 288.7C834.8 288.7 838.6 289.8 841.2 291.8C841.5 292.1 841.9 292.2 842.3 292.2C842.9 292.2 843.4 291.9 843.8 291.5C844.4 290.7 844.3 289.5 843.4 288.8C840.2 286.3 835.5 284.9 830.6 284.9C825.9 284.9 821.4 286.2 818.2 288.5C817.4 289.1 817.2 290.3 817.8 291.1C818.5 292 819.6 292.2 820.5 291.6Z" fill="#7D3F97"/>
<path d="M841.2 302.2C838.6 304 834.9 305.1 831 305.1C826.9 305.1 823.1 304 820.5 302C819.7 301.4 818.5 301.5 817.8 302.4C817.2 303.2 817.3 304.4 818.2 305.1C821.4 307.6 826.1 309 831 309C835.7 309 840.2 307.7 843.4 305.4C844.2 304.8 844.4 303.6 843.8 302.8C843.3 301.8 842.1 301.6 841.2 302.2Z" fill="#7D3F97"/>
<path d="M259.5 361.3C262.1 361.3 263.4 362.7 265 364.5C266.8 366.5 269 368.9 273.3 368.9C277.6 368.9 279.8 366.5 281.6 364.5C283.2 362.7 284.5 361.3 287.1 361.3C289.7 361.3 291 362.7 292.6 364.5C294.4 366.5 296.6 368.9 300.9 368.9C305.2 368.9 307.4 366.5 309.2 364.5C310.8 362.7 312.1 361.3 314.7 361.3C317.3 361.3 318.6 362.7 320.2 364.5C322 366.5 324.2 368.9 328.5 368.9C332.8 368.9 335 366.5 336.8 364.5C338.4 362.7 339.7 361.3 342.3 361.3C344.9 361.3 346.2 362.7 347.8 364.5C349.6 366.5 351.8 368.9 356.1 368.9C360.4 368.9 362.6 366.5 364.4 364.5C366 362.7 367.3 361.3 369.9 361.3C372.5 361.3 373.8 362.7 375.4 364.5C377.2 366.5 379.4 368.9 383.7 368.9C388 368.9 390.2 366.5 392 364.5C393.6 362.7 394.9 361.3 397.5 361.3C400.1 361.3 401.4 362.7 403 364.5C404.8 366.5 407 368.9 411.3 368.9C415.6 368.9 417.8 366.5 419.6 364.5C421.2 362.7 422.5 361.3 425.1 361.3C426.1 361.3 427 360.5 427 359.4C427 358.4 426.2 357.5 425.1 357.5C420.8 357.5 418.6 359.9 416.8 361.9C415.2 363.7 413.9 365.1 411.3 365.1C408.7 365.1 407.4 363.7 405.8 361.9C404 359.9 401.8 357.5 397.5 357.5C393.2 357.5 391 359.9 389.2 361.9C387.6 363.7 386.3 365.1 383.7 365.1C381.1 365.1 379.8 363.7 378.2 361.9C376.4 359.9 374.2 357.5 369.9 357.5C365.6 357.5 363.4 359.9 361.6 361.9C360 363.7 358.7 365.1 356.1 365.1C353.5 365.1 352.2 363.7 350.6 361.9C348.8 359.9 346.6 357.5 342.3 357.5C338 357.5 335.8 359.9 334 361.9C332.4 363.7 331.1 365.1 328.5 365.1C325.9 365.1 324.6 363.7 323 361.9C321.2 359.9 319 357.5 314.7 357.5C310.4 357.5 308.2 359.9 306.4 361.9C304.8 363.7 303.5 365.1 300.9 365.1C298.3 365.1 297 363.7 295.4 361.9C293.6 359.9 291.4 357.5 287.1 357.5C282.8 357.5 280.6 359.9 278.8 361.9C277.2 363.7 275.9 365.1 273.3 365.1C270.7 365.1 269.4 363.7 267.8 361.9C266 359.9 263.8 357.5 259.5 357.5C258.5 357.5 257.6 358.3 257.6 359.4C257.6 360.5 258.4 361.3 259.5 361.3Z" fill="#86F2B1"/>
<path d="M273.2 353.4C275.8 353.4 277.1 352 278.7 350.2C280.5 348.2 282.7 345.8 287 345.8C291.3 345.8 293.5 348.2 295.3 350.2C296.9 352 298.2 353.4 300.8 353.4C303.4 353.4 304.7 352 306.3 350.2C308.1 348.2 310.3 345.8 314.6 345.8C318.9 345.8 321.1 348.2 322.9 350.2C324.5 352 325.8 353.4 328.4 353.4C331 353.4 332.3 352 333.9 350.2C335.7 348.2 337.9 345.8 342.2 345.8C346.5 345.8 348.7 348.2 350.5 350.2C352.1 352 353.4 353.4 356 353.4C358.6 353.4 359.9 352 361.5 350.2C363.3 348.2 365.5 345.8 369.8 345.8C374.1 345.8 376.3 348.2 378.1 350.2C379.7 352 381 353.4 383.6 353.4C386.2 353.4 387.5 352 389.1 350.2C390.9 348.2 393.1 345.8 397.4 345.8C401.7 345.8 403.9 348.2 405.7 350.2C407.3 352 408.6 353.4 411.2 353.4C413.3 353.4 414.5 352.5 415.8 351.2C415.6 339.6 409.2 327.4 398.2 317.6C386.1 306.8 369.7 300.1 352 298.6C347.2 298.2 337.7 298.2 333.3 298.6C315.2 300.2 298.7 307 286.7 317.7C275.9 327.4 269.7 339.5 269.5 351.2C269.9 352.5 271.1 353.4 273.2 353.4ZM378.4 328C380.6 328 382.3 329.8 382.3 331.9C382.3 334.1 380.5 335.8 378.4 335.8C376.3 335.8 374.5 334 374.5 331.9C374.4 329.8 376.2 328 378.4 328ZM360.1 312.3C362.3 312.3 364 314.1 364 316.2C364 318.4 362.2 320.1 360.1 320.1C357.9 320.1 356.2 318.3 356.2 316.2C356.2 314.1 357.9 312.3 360.1 312.3ZM341.9 328C344.1 328 345.8 329.8 345.8 331.9C345.8 334.1 344 335.8 341.9 335.8C339.7 335.8 338 334 338 331.9C337.9 329.8 339.7 328 341.9 328ZM323.6 312.3C325.8 312.3 327.5 314.1 327.5 316.2C327.5 318.4 325.7 320.1 323.6 320.1C321.5 320.1 319.7 318.3 319.7 316.2C319.7 314.1 321.5 312.3 323.6 312.3ZM305.4 328C307.6 328 309.3 329.8 309.3 331.9C309.3 334.1 307.5 335.8 305.4 335.8C303.2 335.8 301.5 334 301.5 331.9C301.5 329.8 303.2 328 305.4 328Z" fill="#EDC9DF"/>
<path d="M378.4 335.9C380.554 335.9 382.3 334.154 382.3 332C382.3 329.846 380.554 328.1 378.4 328.1C376.246 328.1 374.5 329.846 374.5 332C374.5 334.154 376.246 335.9 378.4 335.9Z" fill="white"/>
<path d="M305.4 335.9C307.554 335.9 309.3 334.154 309.3 332C309.3 329.846 307.554 328.1 305.4 328.1C303.246 328.1 301.5 329.846 301.5 332C301.5 334.154 303.246 335.9 305.4 335.9Z" fill="white"/>
<path d="M341.9 335.9C344.054 335.9 345.8 334.154 345.8 332C345.8 329.846 344.054 328.1 341.9 328.1C339.746 328.1 338 329.846 338 332C338 334.154 339.746 335.9 341.9 335.9Z" fill="white"/>
<path d="M323.6 320.2C325.754 320.2 327.5 318.454 327.5 316.3C327.5 314.146 325.754 312.4 323.6 312.4C321.446 312.4 319.7 314.146 319.7 316.3C319.7 318.454 321.446 320.2 323.6 320.2Z" fill="white"/>
<path d="M360.1 320.2C362.254 320.2 364 318.454 364 316.3C364 314.146 362.254 312.4 360.1 312.4C357.946 312.4 356.2 314.146 356.2 316.3C356.2 318.454 357.946 320.2 360.1 320.2Z" fill="white"/>
<path d="M337.9 389.3V387.2C337.9 385.5 336.5 384 334.7 384H262C260.3 384 258.8 385.4 258.8 387.2V389.3C258.8 391 260.2 392.5 262 392.5H334.7C336.5 392.4 337.9 391 337.9 389.3Z" fill="#EE4444"/>
<path d="M279 409.2C288.3 414.4 301.5 417 315.1 416.5C329.3 416 342 412.1 350.9 405.8C351.2 405.6 351.6 405.4 352 405.4C352.5 405.4 353 405.6 353.4 406L375.3 430.6C381.6 422 394.2 404.7 394.7 404C396.3 401.7 396.1 399.4 394 397.5C392.5 396.2 389.4 396.1 388.3 396.2C388.2 396.2 388.2 396.2 388.1 396.2H281.1H281C280 396.1 277.1 396.2 275.5 397.3C274.2 398.2 273.6 399.1 273.6 401.6C273.5 404.1 274.2 406.6 279 409.2Z" fill="#FFEB5A"/>
<path d="M284.4 456.7H399.4C408.3 456.7 415.6 449.4 415.6 440.5V427.8C415.6 427.8 415.6 427.8 415.6 427.7H382.1C379.5 431.2 377.5 434 376.9 434.9C376.6 435.4 376 435.6 375.5 435.7H375.4C374.9 435.7 374.3 435.5 374 435.1L367.5 427.8H268.2C268.2 427.8 268.2 427.8 268.2 427.9V440.6C268.2 449.4 275.5 456.7 284.4 456.7Z" fill="#EDC9DF"/>
<path d="M259 423.9H364L351.5 409.9C332 422.7 297.7 424.1 277 412.6C272.8 410.3 270.5 407.6 269.9 404.2C269.7 404.2 269.6 404.3 269.4 404.3H259C255.4 404.3 252.3 408.8 252.3 414.1C252.3 419.4 255.4 423.9 259 423.9Z" fill="#F27F98"/>
<path d="M398.7 404.2C398.4 404.9 398.1 405.5 397.7 406.2C397.3 406.8 390.6 416 384.9 423.9H424.8C428.4 423.9 431.5 419.4 431.5 414.1C431.5 408.8 428.4 404.3 424.8 404.3H398.7V404.2Z" fill="#F27F98"/>
<path d="M423.9 385.5L351.1 375.6C351 375.6 350.9 375.6 350.8 375.6C350.2 375.6 349.7 375.8 349.2 376.2C348.5 376.7 348.1 377.5 348 378.4L347.8 380.4C347.6 382.1 348.7 383.7 350.3 383.9L423.1 393.8C423.8 393.9 424.5 393.7 425.1 393.3C425.8 392.8 426.2 392 426.3 391.1L426.5 389.1C426.6 387.3 425.5 385.7 423.9 385.5Z" fill="#EE4444"/>
<path d="M382.5 335C384.654 335 386.4 333.254 386.4 331.1C386.4 328.946 384.654 327.2 382.5 327.2C380.346 327.2 378.6 328.946 378.6 331.1C378.6 333.254 380.346 335 382.5 335Z" fill="#7D3F97"/>
<path d="M309.6 335C311.754 335 313.5 333.254 313.5 331.1C313.5 328.946 311.754 327.2 309.6 327.2C307.446 327.2 305.7 328.946 305.7 331.1C305.7 333.254 307.446 335 309.6 335Z" fill="#7D3F97"/>
<path d="M346 335C348.154 335 349.9 333.254 349.9 331.1C349.9 328.946 348.154 327.2 346 327.2C343.846 327.2 342.1 328.946 342.1 331.1C342.1 333.254 343.846 335 346 335Z" fill="#7D3F97"/>
<path d="M327.8 319.3C329.954 319.3 331.7 317.554 331.7 315.4C331.7 313.246 329.954 311.5 327.8 311.5C325.646 311.5 323.9 313.246 323.9 315.4C323.9 317.554 325.646 319.3 327.8 319.3Z" fill="#7D3F97"/>
<path d="M364.3 319.3C366.454 319.3 368.2 317.554 368.2 315.4C368.2 313.246 366.454 311.5 364.3 311.5C362.146 311.5 360.4 313.246 360.4 315.4C360.4 317.554 362.146 319.3 364.3 319.3Z" fill="#7D3F97"/>
<path d="M263.7 360.4C266.3 360.4 267.6 361.8 269.2 363.6C271 365.6 273.2 368 277.5 368C281.8 368 284 365.6 285.8 363.6C287.4 361.8 288.7 360.4 291.3 360.4C293.9 360.4 295.2 361.8 296.8 363.6C298.6 365.6 300.8 368 305.1 368C309.4 368 311.6 365.6 313.4 363.6C315 361.8 316.3 360.4 318.9 360.4C321.5 360.4 322.8 361.8 324.4 363.6C326.2 365.6 328.4 368 332.7 368C337 368 339.2 365.6 341 363.6C342.6 361.8 343.9 360.4 346.5 360.4C349.1 360.4 350.4 361.8 352 363.6C353.8 365.6 356 368 360.3 368C364.6 368 366.8 365.6 368.6 363.6C370.2 361.8 371.5 360.4 374.1 360.4C376.7 360.4 378 361.8 379.6 363.6C381.4 365.6 383.6 368 387.9 368C392.2 368 394.4 365.6 396.2 363.6C397.8 361.8 399.1 360.4 401.7 360.4C404.3 360.4 405.6 361.8 407.2 363.6C409 365.6 411.2 368 415.5 368C419.8 368 422 365.6 423.8 363.6C425.4 361.8 426.7 360.4 429.3 360.4C430.3 360.4 431.2 359.6 431.2 358.5C431.2 357.5 430.4 356.6 429.3 356.6C425 356.6 422.8 359 421 361C419.4 362.8 418.1 364.2 415.5 364.2C412.9 364.2 411.6 362.8 410 361C408.2 359 406 356.6 401.7 356.6C397.4 356.6 395.2 359 393.4 361C391.8 362.8 390.5 364.2 387.9 364.2C385.3 364.2 384 362.8 382.4 361C380.6 359 378.4 356.6 374.1 356.6C369.8 356.6 367.6 359 365.8 361C364.2 362.8 362.9 364.2 360.3 364.2C357.7 364.2 356.4 362.8 354.8 361C353 359 350.8 356.6 346.5 356.6C342.2 356.6 340 359 338.2 361C336.6 362.8 335.3 364.2 332.7 364.2C330.1 364.2 328.8 362.8 327.2 361C325.4 359 323.2 356.6 318.9 356.6C314.6 356.6 312.4 359 310.6 361C309 362.8 307.7 364.2 305.1 364.2C302.5 364.2 301.2 362.8 299.6 361C297.8 359 295.6 356.6 291.3 356.6C287 356.6 284.8 359 283 361C281.4 362.8 280.1 364.2 277.5 364.2C274.9 364.2 273.6 362.8 272 361C270.2 359 268 356.6 263.7 356.6C262.7 356.6 261.8 357.4 261.8 358.5C261.8 359.6 262.6 360.4 263.7 360.4Z" fill="#7D3F97"/>
<path d="M263.7 348.7C266.3 348.7 267.6 350.1 269.2 351.9C271 353.9 273.2 356.3 277.5 356.3C281.8 356.3 284 353.9 285.8 351.9C287.4 350.1 288.7 348.7 291.3 348.7C293.9 348.7 295.2 350.1 296.8 351.9C298.6 353.9 300.8 356.3 305.1 356.3C309.4 356.3 311.6 353.9 313.4 351.9C315 350.1 316.3 348.7 318.9 348.7C321.5 348.7 322.8 350.1 324.4 351.9C326.2 353.9 328.4 356.3 332.7 356.3C337 356.3 339.2 353.9 341 351.9C342.6 350.1 343.9 348.7 346.5 348.7C349.1 348.7 350.4 350.1 352 351.9C353.8 353.9 356 356.3 360.3 356.3C364.6 356.3 366.8 353.9 368.6 351.9C370.2 350.1 371.5 348.7 374.1 348.7C376.7 348.7 378 350.1 379.6 351.9C381.4 353.9 383.6 356.3 387.9 356.3C392.2 356.3 394.4 353.9 396.2 351.9C397.8 350.1 399.1 348.7 401.7 348.7C404.3 348.7 405.6 350.1 407.2 351.9C409 353.9 411.2 356.3 415.5 356.3C419.8 356.3 422 353.9 423.8 351.9C425.4 350.1 426.7 348.7 429.3 348.7C430.3 348.7 431.2 347.9 431.2 346.8C431.2 345.7 430.4 344.9 429.3 344.9C426.9 344.9 425.1 345.7 423.7 346.8C422.4 335.2 415.8 323.4 405 313.9C392.3 302.6 375.1 295.5 356.6 294C351.6 293.6 341.9 293.6 337.2 294C318.3 295.7 301 302.8 288.4 314C277.9 323.4 271.4 335.2 270.1 346.8C268.7 345.8 266.9 345 264.5 345C263.5 345 262.6 345.8 262.6 346.9C262.6 348 262.6 348.7 263.7 348.7ZM290.1 316.8C302.1 306.1 318.6 299.3 336.7 297.7C341.2 297.3 350.7 297.3 355.4 297.7C373.1 299.2 389.5 305.9 401.6 316.7C412.6 326.5 419 338.7 419.2 350.3C418 351.6 416.7 352.5 414.6 352.5C412 352.5 410.7 351.1 409.1 349.3C407.3 347.3 405.1 344.9 400.8 344.9C396.5 344.9 394.3 347.3 392.5 349.3C390.9 351.1 389.6 352.5 387 352.5C384.4 352.5 383.1 351.1 381.5 349.3C379.7 347.3 377.5 344.9 373.2 344.9C368.9 344.9 366.7 347.3 364.9 349.3C363.3 351.1 362 352.5 359.4 352.5C356.8 352.5 355.5 351.1 353.9 349.3C352.1 347.3 349.9 344.9 345.6 344.9C341.3 344.9 339.1 347.3 337.3 349.3C335.7 351.1 334.4 352.5 331.8 352.5C329.2 352.5 327.9 351.1 326.3 349.3C324.5 347.3 322.3 344.9 318 344.9C313.7 344.9 311.5 347.3 309.7 349.3C308.1 351.1 306.8 352.5 304.2 352.5C301.6 352.5 300.3 351.1 298.7 349.3C296.9 347.3 294.7 344.9 290.4 344.9C286.1 344.9 283.9 347.3 282.1 349.3C280.5 351.1 279.2 352.5 276.6 352.5C274.5 352.5 273.3 351.6 272 350.3C273 338.6 279.3 326.4 290.1 316.8Z" fill="#7D3F97"/>
<path d="M428.9 399.5H403.5C403.3 397.4 402.4 395.5 400.6 393.8C400.1 393.4 399.6 393 399.1 392.7L426.7 396.5C427 396.5 427.3 396.6 427.6 396.6C429 396.6 430.4 396.1 431.5 395.2C433 394.1 433.9 392.4 434.1 390.5L434.3 388.5C434.8 384.7 432.2 381.3 428.6 380.8L355.8 370.9C354.1 370.7 352.4 371.1 351 372.2C349.5 373.3 348.6 375 348.4 376.9L348.2 378.9C347.7 382.7 350.3 386.1 353.9 386.6L390.1 391.5H345C345.5 390.5 345.8 389.4 345.8 388.3V386.2C345.8 382.4 342.7 379.3 338.9 379.3H266.2C262.4 379.3 259.3 382.4 259.3 386.2V388.3C259.3 392.1 262.4 395.2 266.2 395.2H275.4C274.5 396.4 274.1 397.7 273.9 399.5C273.8 399.5 273.7 399.5 273.6 399.5H263.2C257.4 399.5 252.8 405.6 252.8 413.1C252.8 420.6 257.5 426.699 263.2 426.699H268.6C268.6 426.699 268.6 426.7 268.6 426.8V439.5C268.6 450.5 277.6 459.5 288.6 459.5H403.6C414.6 459.5 423.6 450.5 423.6 439.5V426.8C423.6 426.8 423.6 426.799 423.6 426.699H429C434.8 426.699 439.4 420.6 439.4 413.1C439.3 405.6 434.6 399.5 428.9 399.5ZM352 379.4L352.2 377.4C352.3 376.5 352.7 375.7 353.4 375.2C353.9 374.8 354.4 374.6 355 374.6C355.1 374.6 355.2 374.6 355.3 374.6L428.1 384.5C429.6 384.7 430.8 386.3 430.6 388L430.4 390C430.3 390.9 429.9 391.7 429.2 392.2C428.6 392.6 427.9 392.8 427.2 392.7L354.4 382.8C352.9 382.7 351.7 381.1 352 379.4ZM379.4 429.8L357.5 405.2C357.1 404.8 356.6 404.6 356.1 404.6C355.7 404.6 355.3 404.7 355 405C346.1 411.4 333.4 415.2 319.2 415.7C305.6 416.2 292.4 413.6 283.1 408.4C278.3 405.7 277.7 403.2 277.7 400.9C277.7 398.3 278.3 397.5 279.6 396.6C281.2 395.5 284.1 395.4 285.1 395.5H285.2H392.2C392.3 395.5 392.3 395.5 392.4 395.5C393.5 395.4 396.6 395.5 398.1 396.8C400.1 398.6 400.3 400.9 398.8 403.3C398.2 403.9 385.7 421.1 379.4 429.8ZM263.1 388.4V386.3C263.1 384.6 264.5 383.1 266.3 383.1H339C340.7 383.1 342.2 384.5 342.2 386.3V388.4C342.2 390.1 340.8 391.6 339 391.6H266.2C264.5 391.5 263.1 390.1 263.1 388.4ZM256.5 413.1C256.5 407.8 259.6 403.3 263.2 403.3H273.6C273.8 403.3 274 403.3 274.1 403.2C274.8 406.6 277.1 409.3 281.2 411.6C301.9 423.1 336.2 421.8 355.7 408.9L368.2 422.9H263.2C259.6 423 256.5 418.5 256.5 413.1ZM419.7 426.8V439.5C419.7 448.4 412.4 455.699 403.5 455.699H288.5C279.6 455.699 272.3 448.4 272.3 439.5V426.8C272.3 426.8 272.3 426.799 272.3 426.699H371.6L378.1 434C378.5 434.4 379 434.6 379.5 434.6H379.6C380.2 434.6 380.7 434.3 381 433.8C381.6 433 383.6 430.2 386.2 426.6L419.7 426.8ZM428.9 423H389C394.7 415.1 401.5 405.9 401.8 405.3C402.2 404.7 402.6 404 402.8 403.3H428.8C432.4 403.3 435.5 407.8 435.5 413.1C435.5 418.4 432.5 423 428.9 423Z" fill="#7D3F97"/>
<path d="M325.5 202.3C332.1 202.6 337.8 207 340.1 213.5C343.7 223.6 341.9 236.1 335.4 246C329.6 255 320.9 260.6 311.7 261.3C310.3 261.4 307.3 261.4 305.8 261.3C295.9 260.7 286.5 254.7 280.6 245.3C274.5 235.5 273.3 223.6 277.4 213.6C279.9 207.5 285.6 203.4 291.9 203C292.2 203 292.5 203 292.8 203C298.6 203 303.8 206.3 307 212.2C307.4 212.8 308 213.2 308.8 213.2C309.5 213.2 310.2 212.7 310.5 212.1C313.5 205.6 319.1 202 325.5 202.3ZM425.5 226.7C424.9 237.4 420.2 246.5 412.6 251.8C411.4 252.6 408.8 254.1 407.5 254.7C398.6 259.1 387.5 258.6 377.7 253.4C367.5 248 360.5 238.3 359.1 227.5C358.2 221 361.1 214.5 366.4 211.1C368.9 209.5 371.7 208.7 374.6 208.7C377.7 208.7 381 209.7 384.1 211.5C384.7 211.9 385.5 211.9 386.2 211.5C386.8 211.1 387.2 210.4 387.1 209.7C386.5 202.7 389.5 196.8 395.2 193.8C401 190.8 408.2 191.7 413.4 196.2C421.5 203.2 426.2 214.9 425.5 226.7Z" fill="#EE4444"/>
<path d="M318.7 93.1006C329.3 86.6006 338.9 83.4006 343.4 82.1006C342.4 87.0006 339.8 97.4006 334.8 107.901C331.4 115.001 326.9 117.301 323.6 117.901C319.2 118.801 315.5 117.201 313.5 115.501L325.9 103.101C326.6 102.401 326.6 101.201 325.9 100.401C325.2 99.7006 324 99.7006 323.2 100.401L311 112.601C309.9 110.701 309.2 108.201 309.5 105.401C310.1 100.701 313.2 96.5006 318.7 93.1006Z" fill="#86F2B1"/>
<path d="M297.8 127.9C292.7 129.8 286.8 128.7 280.6 124.8C268.4 117 260.2 108.6 256.8 104.7C262.1 103.4 274.3 100.7 287.8 100.5C292.9 100.4 296.6 101.5 299.2 103C299.3 103 299.3 103.1 299.4 103.1C301.4 104.3 302.8 105.6 303.7 106.9C305 108.6 305.8 110.3 306.2 112C306.2 112.9 306.3 115.2 306.3 118.6C306.3 118.7 306.3 118.8 306.2 118.8L287.1 112.2C286.1 111.9 285 112.4 284.7 113.4C284.4 114.4 284.9 115.5 285.9 115.8L304.6 122.2C303.2 124.5 300.9 126.7 297.8 127.9Z" fill="#86F2B1"/>
<path d="M296.7 84.2005C296.1 82.3005 297.8 81.2005 298.9 80.7005C300.2 80.1005 301.9 80.0004 302.5 80.9004C306.2 87.0004 308.7 95.9005 308.9 97.0005C307.2 99.4005 306.4 101.8 306.1 103.8C305 102.5 303.6 101.2 301.8 100.1C300.9 97.4004 298.9 91.0005 296.7 84.2005Z" fill="#86F2B1"/>
<path d="M314.5 254.1C314.7 254.1 315 254.1 315.2 254C330 248.1 338.5 228.9 333.1 213.7C332.7 212.7 331.7 212.2 330.7 212.6C329.7 213 329.2 214 329.6 215C331.9 221.4 331.4 229 328.3 235.9C325.2 242.7 320 248.1 313.9 250.5C312.9 250.9 312.5 252 312.8 253C313 253.7 313.7 254.1 314.5 254.1Z" fill="white"/>
<path d="M408.1 203.1C407.3 203.8 407.2 205 407.9 205.8C412.7 211.4 415.2 216.1 415.5 226C415.5 227 416.4 227.8 417.4 227.8C417.4 227.8 417.4 227.8 417.5 227.8C418.5 227.8 419.4 226.9 419.3 225.8C419 217.5 417.5 211.2 410.8 203.3C410 202.5 408.8 202.4 408.1 203.1Z" fill="white"/>
<path d="M317.8 252.2C318 252.2 318.3 252.2 318.5 252.1C333.3 246.2 341.8 227 336.4 211.8C336 210.8 335 210.3 334 210.7C333 211.1 332.5 212.1 332.9 213.1C335.2 219.5 334.7 227.1 331.6 234C328.5 240.8 323.3 246.2 317.2 248.6C316.2 249 315.8 250.1 316.1 251.1C316.4 251.8 317.1 252.2 317.8 252.2Z" fill="#7D3F97"/>
<path d="M419.1 191.7C412.7 186.2 403.9 185.1 396.7 188.8C390.5 192 386.9 197.9 386.5 205C368.4 194 334 142 319.6 119.5C321.2 120 322.9 120.3 324.6 120.3C325.7 120.3 326.7 120.2 327.7 120C331.8 119.2 337.5 116.4 341.6 107.9C348.6 93.1002 350.9 78.9001 351 78.3001C351.1 77.7001 350.9 77.1001 350.4 76.6001C350 76.2001 349.3 76.0001 348.7 76.1001C348.2 76.2001 335.3 78.9001 320 88.3001C318.1 89.5001 316.5 90.7002 315.1 92.0002C314 88.3002 311.7 82.0001 308.9 77.4001C307.4 74.9001 303.9 74.2002 300.5 75.7002C296.9 77.3002 295.2 80.5001 296.3 83.8001C297.9 88.6001 299.3 93.2002 300.3 96.5002C297.7 95.6002 294.6 95.1002 290.8 95.2002C272.3 95.5002 256.6 100.1 256 100.3C255.4 100.5 254.9 100.9 254.7 101.5C254.5 102.1 254.6 102.7 255 103.2C255.4 103.7 264.5 115.4 281.7 126.4C287.2 129.9 292 131.1 295.8 131.1C298.4 131.1 300.5 130.6 302.3 129.9C305.4 128.7 307.9 126.8 309.6 124.8C309.9 142.7 310.3 174.4 310.4 204.3C306.3 199.7 300.9 197.3 294.9 197.7C287.2 198.2 280.2 203.2 277.2 210.6C272.6 221.8 273.9 234.9 280.7 245.8C287.2 256.3 297.8 262.9 308.9 263.6C309.8 263.7 311 263.7 312.3 263.7C313.4 263.7 314.6 263.7 315.3 263.6C325.7 262.8 335.4 256.6 341.9 246.6C349 235.7 350.9 221.9 347 210.7C344.2 202.8 337.1 197.4 329 197C323.3 196.7 318.1 199 314.3 203.1C314.3 168.9 313.7 132.8 313.4 117.6C313.4 117.4 313.5 117.3 313.5 117.1C318.5 125.1 328.2 140.1 339 155.6C355.2 178.7 368.2 194.7 377.9 203.3C374.2 203.3 370.7 204.3 367.5 206.4C361 210.6 357.5 218.5 358.6 226.5C360.2 238.5 367.9 249.2 379.1 255.2C385 258.4 391.4 260 397.6 260C402.8 260 407.8 258.9 412.4 256.6C413.9 255.9 416.6 254.3 418 253.4C426.6 247.5 431.9 237.3 432.6 225.4C433.3 212.3 428.1 199.4 419.1 191.7ZM322 91.5002C332.6 85.0002 342.2 81.8002 346.7 80.5002C345.7 85.4002 343.1 95.8001 338.1 106.3C334.7 113.4 330.2 115.7 326.9 116.3C322.5 117.2 318.8 115.6 316.8 113.9L329.2 101.4C329.9 100.7 329.9 99.5002 329.2 98.7002C328.5 98.0002 327.3 98.0002 326.5 98.7002L314.3 110.9C313.2 109 312.5 106.5 312.8 103.7C313.4 99.1002 316.5 94.8002 322 91.5002ZM300 82.5002C299.4 80.6002 301.1 79.5002 302.2 79.0002C303.5 78.4002 305.2 78.3002 305.8 79.2002C309.5 85.3002 312 94.2001 312.2 95.3001C310.5 97.7001 309.7 100.1 309.4 102.1C308.3 100.8 306.9 99.5001 305.1 98.4001C304.2 95.8001 302.2 89.4002 300 82.5002ZM301 126.2C295.9 128.1 290 127 283.8 123.1C271.6 115.3 263.4 106.9 260 103C265.3 101.7 277.5 99.0001 291 98.8001C296.1 98.7001 299.8 99.8001 302.4 101.3C302.5 101.3 302.5 101.4 302.6 101.4C304.6 102.6 306 103.9 306.9 105.2C308.2 106.9 309 108.6 309.4 110.3C309.4 111.2 309.5 113.5 309.5 116.9C309.5 117 309.5 117.1 309.4 117.1L290.3 110.5C289.3 110.2 288.2 110.7 287.9 111.7C287.6 112.7 288.1 113.8 289.1 114.1L307.8 120.5C306.4 122.9 304.2 125 301 126.2ZM328.8 200.7C335.4 201 341.1 205.4 343.4 211.9C347 222 345.2 234.5 338.7 244.4C332.9 253.4 324.2 259 315 259.7C313.6 259.8 310.6 259.8 309.1 259.7C299.2 259.1 289.8 253.1 283.9 243.7C277.8 233.9 276.6 222 280.7 212C283.2 205.9 288.9 201.8 295.2 201.4C295.5 201.4 295.8 201.4 296.1 201.4C301.9 201.4 307.1 204.7 310.3 210.6C310.7 211.2 311.3 211.6 312.1 211.6C312.8 211.6 313.5 211.1 313.8 210.5C316.8 204 322.4 200.4 328.8 200.7ZM428.8 225.1C428.2 235.8 423.5 244.9 415.9 250.2C414.7 251 412.1 252.5 410.8 253.1C401.9 257.5 390.8 257 381 251.8C370.8 246.4 363.8 236.7 362.4 225.9C361.5 219.4 364.4 212.9 369.7 209.5C372.2 207.9 375 207.1 377.9 207.1C381 207.1 384.3 208.1 387.4 209.9C388 210.3 388.8 210.3 389.5 209.9C390.1 209.5 390.5 208.8 390.4 208.1C389.8 201.1 392.8 195.2 398.5 192.2C404.3 189.2 411.5 190.1 416.7 194.6C424.8 201.5 429.4 213.2 428.8 225.1Z" fill="#7D3F97"/>
<path d="M411.4 201.201C410.6 201.901 410.5 203.101 411.2 203.901C416 209.501 418.5 214.2 418.8 224.1C418.8 225.1 419.7 225.901 420.7 225.901C420.7 225.901 420.7 225.901 420.8 225.901C421.8 225.901 422.7 225.001 422.6 223.901C422.3 215.601 420.8 209.301 414.1 201.401C413.4 200.601 412.2 200.501 411.4 201.201Z" fill="#7D3F97"/>
<path d="M71.2777 287.12C72.1033 285.131 71.1599 282.849 69.1706 282.023C67.1812 281.198 64.8991 282.141 64.0735 284.13C63.2479 286.12 64.1915 288.402 66.1808 289.227C68.1702 290.053 70.4521 289.109 71.2777 287.12Z" fill="#FF88A7"/>
<path d="M121.553 324.424C122.379 322.435 121.435 320.153 119.446 319.327C117.457 318.501 115.175 319.445 114.349 321.434C113.523 323.423 114.467 325.705 116.456 326.531C118.446 327.357 120.728 326.413 121.553 324.424Z" fill="#FF88A7"/>
<path d="M187.455 322.656C188.28 320.667 187.337 318.385 185.348 317.559C183.358 316.734 181.076 317.677 180.251 319.666C179.425 321.656 180.368 323.938 182.358 324.763C184.347 325.589 186.629 324.646 187.455 322.656Z" fill="#FF88A7"/>
<path d="M65 313L32.9 282L35.8 275L67.8 306.3L65 313ZM116.8 348.6L116.4 348.2C116 347.7 115.3 347.5 114.7 347.6C114.1 347.7 113.5 348.1 113.3 348.7L99.9 381C98.8 383.8 95.6 385.1 92.8 383.9C90 382.8 88.7 379.6 89.9 376.8L98 357.3C98.4 356.4 97.9 355.3 97 354.9C96.1 354.5 95 355 94.6 355.9L92.6 360.7C91.5 363.5 88.3 364.8 85.5 363.6C82.7 362.5 81.4 359.3 82.6 356.5L88.6 342.1C89 341.2 88.5 340.1 87.6 339.7C86.7 339.3 85.6 339.8 85.2 340.7L83.2 345.5C82.1 348.3 78.9 349.6 76.1 348.4C73.3 347.3 72 344.1 73.2 341.3L80.3 324.4C80.7 323.5 80.2 322.4 79.3 322C78.4 321.6 77.3 322.1 76.9 323L75.5 326.3C75.4 326.4 75.4 326.5 75.3 326.6L74.6 328.3C73.3 330.7 70.3 331.8 67.8 330.7C65 329.6 63.7 326.4 64.9 323.6L71.8 306.9C71.9 306.7 71.9 306.5 71.9 306.3V305.7C71.9 305.2 71.7 304.6 71.3 304.3L39.9 273.6L193.7 275.9C201.5 295.8 201.3 317.5 193.1 337.2C184.9 356.9 169.7 372.4 150.1 380.9L116.8 348.6ZM113 359.3L115.7 352.8L147.3 383.6C146.4 386.3 146.2 389.1 146.5 391.7L113 359.3Z" fill="#FFEB5A"/>
<path d="M151.9 361C147.5 361 144.8 358.6 144 357.8C140.1 353.8 140.1 347.4 144.1 343.5C144.2 343.4 144.3 343.2 144.4 343.1L146.7 345.4L146.8 345.5L146.9 345.6C148.8 347.5 148.8 350.6 146.8 352.5C146.1 353.2 146.1 354.4 146.8 355.1C147 355.3 147.2 355.4 147.4 355.5C148.1 355.8 148.9 355.6 149.4 355.1C152.8 351.8 152.8 346.3 149.5 343L149.4 342.9L149.3 342.8L141.9 335.3C140.2 333.5 140.2 330.7 141.9 328.9C143.7 327.2 146.5 327.2 148.3 328.9L155.7 336.4L155.8 336.6C157.4 338.2 159.6 339.2 161.9 339.2C164.2 339.2 166.4 338.3 168 336.7C168.7 336 168.7 334.8 168 334.1C167.3 333.4 166.1 333.4 165.4 334.1C164.5 335 163.2 335.5 161.9 335.5C160.6 335.5 159.4 335 158.5 334.1L158.4 333.9L156.1 331.5C156.2 331.4 156.4 331.3 156.5 331.2C158.4 329.3 161 328.3 163.7 328.3C166.4 328.3 168.9 329.4 170.8 331.3C172.9 333.4 179.3 339.9 166.6 353C161.5 358.3 156.5 361 151.9 361Z" fill="white"/>
<path d="M119.6 300.6C119.4 299.7 119.1 298.7 118.8 297.8C115.7 290.4 107.2 286.9 99.9 289.9C94.6 292.1 91.1 297.3 90.9 303L85.9 303.4C85.9 295.6 90.6 288.3 98 285.2C102.8 283.2 108.1 283.2 113 285.2C117.8 287.2 121.6 291 123.6 295.8C124.2 297.2 124.6 298.6 124.8 300L119.6 300.6Z" fill="white"/>
<path d="M168 287.3C174.4 290 177.5 297.4 174.8 303.8C172.1 310.2 164.7 313.3 158.3 310.6C151.9 307.9 148.8 300.5 151.5 294.1C154.2 287.7 161.6 284.6 168 287.3Z" fill="white"/>
<path d="M158.4 402.5C151.7 399.3 148.5 391.6 150.9 384.6C171.7 375.8 187.8 359.5 196.5 338.7C205.1 317.9 205.3 294.9 196.8 274C200.1 267.4 207.8 264.2 214.8 266.7C225.2 292.4 225.1 320.6 214.5 346.2C203.9 371.8 184 391.8 158.4 402.5Z" fill="#F27F98"/>
<path d="M65.6997 284.876C66.5253 282.887 65.582 280.605 63.5926 279.779C61.6032 278.953 59.3214 279.897 58.4958 281.886C57.6702 283.876 58.6135 286.158 60.6029 286.983C62.5922 287.809 64.8741 286.865 65.6997 284.876Z" fill="#7D3F97"/>
<path d="M116.014 322.088C116.839 320.099 115.896 317.817 113.907 316.991C111.917 316.165 109.635 317.109 108.81 319.098C107.984 321.088 108.928 323.37 110.917 324.195C112.906 325.021 115.188 324.077 116.014 322.088Z" fill="#7D3F97"/>
<path d="M181.915 320.32C182.741 318.331 181.798 316.049 179.808 315.223C177.819 314.398 175.537 315.341 174.712 317.331C173.886 319.32 174.829 321.602 176.819 322.427C178.808 323.253 181.09 322.31 181.915 320.32Z" fill="#7D3F97"/>
<path d="M212.6 262.6C212.4 261.9 212.1 261.4 211.5 261.2C202.5 257.5 192.3 261.4 188 269.9L29.7 267.6H29.6C29.5 267.6 29.4 267.6 29.4 267.6H29.3C29.2 267.6 29.1 267.6 29.1 267.7H29C28.9 267.7 28.8 267.8 28.7 267.9C28.6 268 28.5 268 28.5 268.1C28.5 268.1 28.5 268.2 28.4 268.2C28.3 268.3 28.3 268.3 28.3 268.4C28.3 268.4 28.3 268.5 28.2 268.5C28.1 268.6 28.1 268.7 28 268.8L23.5 279.5C23.2 280.2 23.4 281 23.9 281.5L58 314.4L55.7 320C53.8 324.7 56 330 60.6 332C62.5 332.8 64.4 332.9 66.3 332.4L64.1 337.7C62.2 342.4 64.4 347.7 69 349.7C70.9 350.5 72.9 350.6 74.7 350.1L73.5 352.9C71.6 357.6 73.8 362.9 78.4 364.9C80.3 365.7 82.3 365.8 84.2 365.3L80.9 373.3C79 378 81.2 383.3 85.8 385.3C90.5 387.2 95.8 385 97.8 380.4L105.9 360.9L143.1 396.8C143.3 397 144.1 397.7 144.2 397.8C146.1 400.6 148.9 402.8 152.2 404.2C152.8 404.4 153.4 404.3 154 404C180.6 392.9 201.4 372.1 212.4 345.5C223.4 318.7 223.5 289.3 212.6 262.6ZM59.5 310.7L27.4 279.7L30.3 272.7L62.3 304L59.5 310.7ZM111.2 346.3L110.8 345.9C110.4 345.4 109.7 345.2 109.1 345.3C108.5 345.4 107.9 345.8 107.7 346.4L94.3 378.7C93.2 381.5 90 382.8 87.2 381.6C84.4 380.5 83.1 377.3 84.3 374.5L92.4 355C92.8 354.1 92.3 353 91.4 352.6C90.5 352.2 89.4 352.7 89 353.6L87 358.4C85.9 361.2 82.7 362.5 79.9 361.3C77.1 360.2 75.8 357 77 354.2L83 339.8C83.4 338.9 82.9 337.8 82 337.4C81.1 337 80 337.5 79.6 338.4L77.6 343.2C76.5 346 73.3 347.3 70.5 346.1C67.7 344.9 66.4 341.8 67.6 339L74.7 322.1C75.1 321.2 74.6 320.1 73.7 319.7C72.8 319.3 71.7 319.8 71.3 320.7L69.9 324C69.8 324.1 69.8 324.2 69.7 324.3L69 326C67.7 328.4 64.7 329.5 62.2 328.4C59.4 327.3 58.1 324.1 59.3 321.3L66.2 304.6C66.3 304.4 66.3 304.2 66.3 304V303.4C66.3 302.9 66.1 302.3 65.7 302L34.2 271.4L188 273.7C195.8 293.6 195.6 315.3 187.4 335C179.2 354.7 164 370.2 144.4 378.7L111.2 346.3ZM107.4 357L110.1 350.5L141.7 381.3C140.8 384 140.6 386.8 140.9 389.4L107.4 357ZM152.8 400.2C146.1 397 142.9 389.3 145.3 382.3C166.1 373.5 182.2 357.2 190.9 336.4C199.5 315.6 199.7 292.6 191.2 271.7C194.5 265.1 202.2 261.9 209.2 264.4C219.6 290.1 219.5 318.3 208.9 343.9C198.3 369.5 178.4 389.5 152.8 400.2Z" fill="#7D3F97"/>
<path d="M163.8 353.4C173.8 343.2 175.2 333.9 168 326.5C162.7 321.1 153.9 321 148.5 326.4C148.4 326.5 148.3 326.7 148.2 326.8L145.6 324.2C142.4 321 137.2 320.9 134 324.1C132.4 325.6 131.6 327.7 131.6 329.9C131.6 332.1 132.4 334.2 134 335.7L136.6 338.3C136.5 338.4 136.3 338.5 136.2 338.6C130.8 343.9 130.7 352.7 136.1 358.1C136.7 358.7 138.3 360.2 140.9 361.2C142.5 361.9 144.4 362.3 146.7 362.3C152 362.4 157.9 359.4 163.8 353.4ZM146.3 358.7C141.9 358.7 139.2 356.3 138.4 355.5C134.5 351.5 134.5 345.1 138.5 341.2C138.6 341.1 138.7 340.9 138.8 340.8L141.1 343.1L141.2 343.2L141.3 343.3C143.2 345.2 143.2 348.3 141.2 350.2C140.5 350.9 140.5 352.1 141.2 352.8C141.4 353 141.6 353.1 141.8 353.2C142.5 353.5 143.3 353.3 143.8 352.8C147.2 349.5 147.2 344 143.9 340.7L143.8 340.6L143.7 340.5L136.3 333C134.6 331.2 134.6 328.4 136.3 326.6C138.1 324.9 140.9 324.9 142.7 326.6L150.1 334.1L150.2 334.3C151.8 335.9 154 336.9 156.3 336.9C158.6 336.9 160.8 336 162.4 334.4C163.1 333.7 163.1 332.5 162.4 331.8C161.7 331.1 160.5 331.1 159.8 331.8C158.9 332.7 157.6 333.2 156.3 333.2C155 333.2 153.8 332.7 152.9 331.8L152.8 331.6L150.5 329.2C150.6 329.1 150.8 329 150.9 328.9C152.8 327 155.4 326 158.1 326C160.8 326 163.3 327.1 165.2 329C167.3 331.1 173.7 337.6 161 350.7C155.9 356 151 358.7 146.3 358.7Z" fill="#7D3F97"/>
<path d="M123 299.4C122.8 296.9 122.2 294.5 121.3 292.2C118.9 286.5 114.5 282 108.7 279.6C103 277.2 96.6 277.2 90.9 279.6C81.5 283.5 75.6 293.3 76.6 303.4C76.7 304.1 77.1 304.7 77.7 304.9C78 305 78.3 305.1 78.6 305L87.3 304.3C87.8 304.3 88.3 304 88.6 303.6C88.9 303.2 89.1 302.7 89 302.2C88.5 297.5 91.2 292.9 95.6 291.1C101.1 288.8 107.4 291.5 109.7 296.9C110.2 298 110.4 299.2 110.5 300.4C110.5 300.9 110.8 301.4 111.1 301.7C111.5 302 112 302.2 112.5 302.1L121.2 301.4C122.3 301.3 123 300.4 123 299.4ZM114 298.3C113.8 297.4 113.5 296.4 113.2 295.5C110.1 288.1 101.6 284.6 94.3 287.6C89 289.8 85.5 295 85.3 300.7L80.3 301.1C80.3 293.3 85 286 92.4 282.9C97.2 280.9 102.5 280.9 107.4 282.9C112.2 284.9 116 288.7 118 293.5C118.6 294.9 119 296.3 119.2 297.7L114 298.3Z" fill="#7D3F97"/>
<path d="M151.4 311.8C159.7 315.3 169.3 311.3 172.8 303C176.3 294.7 172.3 285.1 164 281.6C155.7 278.1 146.1 282.1 142.6 290.4C139.1 298.7 143 308.3 151.4 311.8ZM162.5 285C168.9 287.7 172 295.1 169.3 301.5C166.6 307.9 159.2 311 152.8 308.3C146.4 305.6 143.3 298.2 146 291.8C148.6 285.4 156 282.3 162.5 285Z" fill="#7D3F97"/>
<path d="M576.2 267.2C530.4 267.2 493.1 304.5 493.1 350.3C493.1 396.1 530.4 433.4 576.2 433.4C622 433.4 659.3 396.1 659.3 350.3C659.3 304.5 622 267.2 576.2 267.2ZM601.2 318.7L603.7 305.5C603.9 304.5 604.9 303.8 605.9 304C606.9 304.2 607.6 305.2 607.4 306.2L604.9 319.4C604.7 320.3 604 320.9 603.1 320.9C603 320.9 602.9 320.9 602.8 320.9C601.7 320.7 601 319.7 601.2 318.7ZM567.6 298.5C569.7 298.5 571.5 300.2 571.5 302.4C571.5 304.5 569.8 306.3 567.6 306.3C565.5 306.3 563.7 304.6 563.7 302.4C563.8 300.2 565.5 298.5 567.6 298.5ZM531.3 339.5C533.4 339.5 535.2 341.2 535.2 343.4C535.2 345.6 533.5 347.3 531.3 347.3C529.2 347.3 527.4 345.6 527.4 343.4C527.4 341.2 529.2 339.5 531.3 339.5ZM524 364.1C523.1 363.7 522.7 362.6 523.1 361.6C523.5 360.7 524.6 360.3 525.6 360.7L538.5 366.9C539.4 367.3 539.8 368.4 539.4 369.4C539.1 370.1 538.4 370.5 537.7 370.5C537.4 370.5 537.2 370.4 536.9 370.3L524 364.1ZM541.1 391.5C539 391.5 537.2 389.8 537.2 387.6C537.2 385.5 538.9 383.7 541.1 383.7C543.2 383.7 545 385.4 545 387.6C545 389.8 543.3 391.5 541.1 391.5ZM545.6 316.7H531.3C530.3 316.7 529.4 315.9 529.4 314.8C529.4 313.7 530.2 312.9 531.3 312.9H545.6C546.6 312.9 547.5 313.7 547.5 314.8C547.5 315.9 546.6 316.7 545.6 316.7ZM561.6 393.9C561 393.9 560.4 393.6 560 393C559.5 392.1 559.7 391 560.6 390.4L572.7 382.7C573.6 382.2 574.7 382.4 575.3 383.3C575.8 384.2 575.6 385.3 574.7 385.9L562.6 393.6C562.3 393.8 561.9 393.9 561.6 393.9ZM577 410.9C574.9 410.9 573.1 409.2 573.1 407C573.1 404.9 574.8 403.1 577 403.1C579.2 403.1 580.9 404.8 580.9 407C580.9 409.1 579.1 410.9 577 410.9ZM590.3 364.4C589.2 365.5 588 366.4 586.8 367.2C584.1 369.3 580.5 369.6 577 368.6C578 369.1 579.1 369.6 580.1 369.9C573.7 371.2 566.9 369.4 561.9 364.4C558.1 360.6 556 355.6 556 350.2C556 344.8 558.1 339.8 561.9 336C565.8 332.1 570.9 330.1 576.1 330.1C577.4 330.1 578.8 330.2 580.1 330.5C579.4 330.7 578.7 331 578 331.3C582.1 331.1 588.3 333.5 592 338C598.4 345.6 597.5 357.2 590.3 364.4ZM600.4 384.4C598.3 384.4 596.5 382.7 596.5 380.5C596.5 378.4 598.2 376.6 600.4 376.6C602.6 376.6 604.3 378.3 604.3 380.5C604.3 382.6 602.5 384.4 600.4 384.4ZM608.1 340.3C606 340.3 604.2 338.6 604.2 336.4C604.2 334.3 605.9 332.5 608.1 332.5C610.3 332.5 612 334.2 612 336.4C612 338.5 610.3 340.3 608.1 340.3ZM619.9 345.9C619.4 345.9 618.9 345.7 618.5 345.3C617.8 344.5 617.9 343.4 618.6 342.7L627.6 334.5C628.4 333.8 629.5 333.9 630.2 334.6C630.9 335.4 630.8 336.5 630.1 337.2L621.1 345.4C620.8 345.7 620.4 345.9 619.9 345.9ZM632.7 363.7C630.6 363.7 628.8 362 628.8 359.8C628.8 357.6 630.5 355.9 632.7 355.9C634.9 355.9 636.6 357.6 636.6 359.8C636.6 362 634.8 363.7 632.7 363.7Z" fill="#F27F98"/>
<path d="M652.8 350.4C652.8 348.4 653.6 346.1 654.4 343.8C655.5 340.6 656.7 337.3 655.9 334C655.1 330.6 652.6 328.1 650.2 325.7C648.5 324 646.9 322.4 646 320.7C645.1 318.9 644.9 316.6 644.6 314.2C644.2 310.8 643.8 307.3 641.7 304.6C639.6 301.9 636.2 300.8 633 299.6C630.7 298.8 628.5 298 627 296.8C625.5 295.6 624.3 293.6 623 291.6C621.2 288.7 619.3 285.7 616.2 284.2C613.1 282.7 609.7 283.1 606.3 283.5C603.9 283.8 601.5 284 599.6 283.6C597.7 283.2 595.8 282 593.8 280.7C590.9 278.9 587.8 276.9 584.3 276.9C580.8 276.9 577.8 278.8 574.8 280.7C572.8 282 570.9 283.2 569 283.6C567 284 564.7 283.8 562.3 283.5C558.9 283.1 555.4 282.7 552.4 284.2C549.3 285.7 547.4 288.7 545.6 291.6C544.3 293.7 543.1 295.6 541.6 296.8C540.1 298 537.9 298.8 535.6 299.6C532.4 300.7 529 301.9 526.9 304.6C524.8 307.3 524.4 310.8 524 314.2C523.7 316.6 523.5 318.9 522.6 320.7C521.8 322.4 520.1 324 518.4 325.7C516 328.1 513.4 330.6 512.7 334C512 337.3 513.1 340.6 514.2 343.8C515 346.1 515.8 348.4 515.8 350.4C515.8 352.4 515 354.7 514.2 357C513.1 360.2 511.9 363.5 512.7 366.8C513.5 370.2 516 372.7 518.4 375.1C520.1 376.8 521.7 378.4 522.6 380.1C523.5 381.9 523.7 384.2 524 386.6C524.4 390 524.8 393.5 526.9 396.2C529 398.9 532.4 400 535.6 401.2C537.9 402 540.1 402.8 541.6 404C543.1 405.2 544.3 407.2 545.6 409.2C547.4 412.1 549.3 415.1 552.4 416.6C555.5 418.1 558.9 417.7 562.3 417.3C564.7 417 567.1 416.8 569 417.2C570.9 417.6 572.8 418.8 574.8 420.1C577.7 421.9 580.8 423.9 584.3 423.9C587.8 423.9 590.8 422 593.8 420.1C595.8 418.8 597.7 417.6 599.6 417.2C601.6 416.8 603.9 417 606.3 417.3C609.7 417.7 613.2 418.1 616.2 416.6C619.3 415.1 621.2 412.1 623 409.2C624.3 407.1 625.5 405.2 627 404C628.5 402.8 630.7 402 633 401.2C636.2 400.1 639.6 398.9 641.7 396.2C643.8 393.5 644.2 390 644.6 386.6C644.9 384.2 645.1 381.9 646 380.1C646.8 378.4 648.5 376.8 650.2 375.1C652.6 372.7 655.2 370.2 655.9 366.8C656.6 363.5 655.5 360.2 654.4 357C653.6 354.6 652.8 352.4 652.8 350.4ZM539.3 338.7C541.4 338.7 543.2 340.4 543.2 342.6C543.2 344.7 541.5 346.5 539.3 346.5C537.1 346.5 535.4 344.8 535.4 342.6C535.5 340.4 537.2 338.7 539.3 338.7ZM532.1 363.4C531.2 363 530.8 361.9 531.2 360.9C531.6 360 532.7 359.6 533.7 360L546.6 366.2C547.5 366.6 547.9 367.7 547.5 368.7C547.2 369.4 546.5 369.8 545.8 369.8C545.5 369.8 545.3 369.7 545 369.6L532.1 363.4ZM549.2 390.7C547.1 390.7 545.3 389 545.3 386.8C545.3 384.7 547 382.9 549.2 382.9C551.3 382.9 553.1 384.6 553.1 386.8C553 389 551.3 390.7 549.2 390.7ZM553.6 315.9H539.3C538.3 315.9 537.4 315.1 537.4 314C537.4 313 538.2 312.1 539.3 312.1H553.6C554.6 312.1 555.5 312.9 555.5 314C555.4 315.1 554.6 315.9 553.6 315.9ZM626.7 341.9L635.7 333.7C636.5 333 637.6 333.1 638.3 333.8C639 334.6 638.9 335.7 638.2 336.4L629.2 344.6C628.8 344.9 628.4 345.1 627.9 345.1C627.4 345.1 626.9 344.9 626.5 344.5C625.9 343.7 626 342.6 626.7 341.9ZM609.2 317.9L611.7 304.7C611.9 303.7 612.9 303 613.9 303.2C614.9 303.4 615.6 304.4 615.4 305.4L612.9 318.6C612.7 319.5 612 320.1 611.1 320.1C611 320.1 610.9 320.1 610.8 320.1C609.7 319.9 609.1 318.9 609.2 317.9ZM575.7 297.7C577.8 297.7 579.6 299.4 579.6 301.6C579.6 303.8 577.9 305.5 575.7 305.5C573.6 305.5 571.8 303.8 571.8 301.6C571.8 299.4 573.5 297.7 575.7 297.7ZM570.6 392.8C570.3 393 569.9 393.1 569.6 393.1C569 393.1 568.4 392.8 568 392.2C567.5 391.3 567.7 390.2 568.6 389.6L580.7 381.9C581.6 381.4 582.7 381.6 583.3 382.5C583.8 383.4 583.6 384.5 582.7 385.1L570.6 392.8ZM585 410.1C582.9 410.1 581.1 408.4 581.1 406.2C581.1 404 582.8 402.3 585 402.3C587.1 402.3 588.9 404 588.9 406.2C588.9 408.4 587.2 410.1 585 410.1ZM601 366.2C596.4 370.8 590.3 373.1 584.2 373.1C578.1 373.1 572 370.8 567.4 366.2C562.9 361.7 560.4 355.8 560.4 349.4C560.4 343.1 562.9 337.1 567.4 332.6C576.7 323.3 591.7 323.3 601 332.6C610.3 341.9 610.3 356.9 601 366.2ZM608.4 383.6C606.3 383.6 604.5 381.9 604.5 379.7C604.5 377.5 606.2 375.8 608.4 375.8C610.5 375.8 612.3 377.5 612.3 379.7C612.3 381.9 610.6 383.6 608.4 383.6ZM616.2 339.5C614.1 339.5 612.3 337.8 612.3 335.6C612.3 333.4 614 331.7 616.2 331.7C618.3 331.7 620.1 333.4 620.1 335.6C620.1 337.8 618.3 339.5 616.2 339.5ZM633.2 378.3C632.8 378.6 632.4 378.8 631.9 378.8C631.4 378.8 630.9 378.6 630.5 378.2L620.8 367.7C620.1 366.9 620.1 365.8 620.9 365.1C621.7 364.4 622.8 364.4 623.5 365.2L633.2 375.7C634 376.5 633.9 377.6 633.2 378.3ZM640.7 362.9C638.6 362.9 636.8 361.2 636.8 359C636.8 356.9 638.5 355.1 640.7 355.1C642.8 355.1 644.6 356.8 644.6 359C644.6 361.2 642.9 362.9 640.7 362.9Z" fill="#86F2B1"/>
<path d="M535 345.9C537.154 345.9 538.9 344.154 538.9 342C538.9 339.846 537.154 338.1 535 338.1C532.846 338.1 531.1 339.846 531.1 342C531.1 344.154 532.846 345.9 535 345.9Z" fill="white"/>
<path d="M571.3 304.9C573.454 304.9 575.2 303.154 575.2 301C575.2 298.846 573.454 297.1 571.3 297.1C569.146 297.1 567.4 298.846 567.4 301C567.4 303.154 569.146 304.9 571.3 304.9Z" fill="white"/>
<path d="M580.7 409.6C582.854 409.6 584.6 407.854 584.6 405.7C584.6 403.546 582.854 401.8 580.7 401.8C578.546 401.8 576.8 403.546 576.8 405.7C576.8 407.854 578.546 409.6 580.7 409.6Z" fill="white"/>
<path d="M636.4 362.4C638.554 362.4 640.3 360.654 640.3 358.5C640.3 356.346 638.554 354.6 636.4 354.6C634.246 354.6 632.5 356.346 632.5 358.5C632.5 360.654 634.246 362.4 636.4 362.4Z" fill="white"/>
<path d="M611.8 339C613.954 339 615.7 337.254 615.7 335.1C615.7 332.946 613.954 331.2 611.8 331.2C609.646 331.2 607.9 332.946 607.9 335.1C607.9 337.254 609.646 339 611.8 339Z" fill="white"/>
<path d="M604.1 383.1C606.254 383.1 608 381.354 608 379.2C608 377.046 606.254 375.3 604.1 375.3C601.946 375.3 600.2 377.046 600.2 379.2C600.2 381.354 601.946 383.1 604.1 383.1Z" fill="white"/>
<path d="M544.8 390.199C546.954 390.199 548.7 388.453 548.7 386.299C548.7 384.145 546.954 382.399 544.8 382.399C542.646 382.399 540.9 384.145 540.9 386.299C540.9 388.453 542.646 390.199 544.8 390.199Z" fill="white"/>
<path d="M549.3 311.7H535C534 311.7 533.1 312.5 533.1 313.6C533.1 314.7 533.9 315.5 535 315.5H549.3C550.3 315.5 551.2 314.7 551.2 313.6C551.2 312.5 550.3 311.7 549.3 311.7Z" fill="white"/>
<path d="M606.4 319.5C606.5 319.5 606.6 319.5 606.7 319.5C607.6 319.5 608.4 318.9 608.5 318L611 304.8C611.2 303.8 610.5 302.8 609.5 302.6C608.5 302.4 607.5 303.1 607.3 304.1L604.8 317.3C604.7 318.4 605.4 319.3 606.4 319.5Z" fill="white"/>
<path d="M619.2 364.7C618.5 364 617.3 363.9 616.6 364.6C615.9 365.3 615.8 366.5 616.5 367.2L626.2 377.7C626.6 378.1 627.1 378.3 627.6 378.3C628.1 378.3 628.5 378.1 628.9 377.8C629.6 377.1 629.7 375.9 629 375.2L619.2 364.7Z" fill="white"/>
<path d="M578.9 382C578.4 381.1 577.2 380.9 576.3 381.4L564.2 389.1C563.3 389.6 563.1 390.8 563.6 391.7C564 392.3 564.6 392.6 565.2 392.6C565.5 392.6 565.9 392.5 566.2 392.3L578.3 384.6C579.2 384 579.5 382.9 578.9 382Z" fill="white"/>
<path d="M543.1 368.1C543.5 367.2 543.1 366.1 542.2 365.6L529.3 359.4C528.4 359 527.3 359.3 526.8 360.3C526.4 361.2 526.8 362.3 527.7 362.8L540.6 369C540.9 369.1 541.1 369.2 541.4 369.2C542.1 369.1 542.8 368.7 543.1 368.1Z" fill="white"/>
<path d="M623.6 344.5C624 344.5 624.5 344.3 624.9 344L633.9 335.799C634.7 335.099 634.7 333.9 634 333.2C633.3 332.4 632.1 332.4 631.4 333.1L622.4 341.299C621.6 341.999 621.6 343.2 622.3 343.9C622.6 344.3 623.1 344.5 623.6 344.5Z" fill="white"/>
<path d="M584.2 270.2C540.4 270.2 504.8 305.8 504.8 349.6C504.8 393.4 540.4 429 584.2 429C628 429 663.6 393.4 663.6 349.6C663.6 305.8 628 270.2 584.2 270.2ZM655.9 366.7C655.1 370.1 652.6 372.6 650.2 375C648.5 376.7 646.9 378.3 646 380C645.1 381.8 644.9 384.1 644.6 386.5C644.2 389.9 643.8 393.4 641.7 396.1C639.6 398.8 636.2 399.9 633 401.1C630.7 401.9 628.5 402.7 627 403.9C625.5 405.1 624.3 407.1 623 409.1C621.2 412 619.3 415 616.2 416.5C613.1 418 609.7 417.6 606.3 417.2C603.9 416.9 601.5 416.7 599.6 417.1C597.7 417.5 595.8 418.7 593.8 420C590.9 421.8 587.8 423.8 584.3 423.8C580.8 423.8 577.8 421.9 574.8 420C572.8 418.7 570.9 417.5 569 417.1C567 416.7 564.7 416.9 562.3 417.2C558.9 417.6 555.4 418 552.4 416.5C549.3 415 547.4 412 545.6 409.1C544.3 407 543.1 405.1 541.6 403.9C540.1 402.7 537.9 401.9 535.6 401.1C532.4 400 529 398.8 526.9 396.1C524.8 393.4 524.4 389.9 524 386.5C523.7 384.1 523.5 381.8 522.6 380C521.8 378.3 520.1 376.7 518.4 375C516 372.6 513.4 370.1 512.7 366.7C512 363.4 513.1 360.1 514.2 356.9C515 354.6 515.8 352.3 515.8 350.3C515.8 348.3 515 346 514.2 343.7C513.1 340.5 511.9 337.2 512.7 333.9C513.5 330.5 516 328 518.4 325.6C520.1 323.9 521.7 322.3 522.6 320.6C523.5 318.8 523.7 316.5 524 314.1C524.4 310.7 524.8 307.2 526.9 304.5C529 301.8 532.4 300.7 535.6 299.5C537.9 298.7 540.1 297.9 541.6 296.7C543.1 295.5 544.3 293.5 545.6 291.5C547.4 288.6 549.3 285.6 552.4 284.1C555.5 282.6 558.9 283 562.3 283.4C564.7 283.7 567.1 283.9 569 283.5C570.9 283.1 572.8 281.9 574.8 280.6C577.7 278.8 580.8 276.8 584.3 276.8C587.8 276.8 590.8 278.7 593.8 280.6C595.8 281.9 597.7 283.1 599.6 283.5C601.6 283.9 603.9 283.7 606.3 283.4C609.7 283 613.2 282.6 616.2 284.1C619.3 285.6 621.2 288.6 623 291.5C624.3 293.6 625.5 295.5 627 296.7C628.5 297.9 630.7 298.7 633 299.5C636.2 300.6 639.6 301.8 641.7 304.5C643.8 307.2 644.2 310.7 644.6 314.1C644.9 316.5 645.1 318.8 646 320.6C646.8 322.3 648.5 323.9 650.2 325.6C652.6 328 655.2 330.5 655.9 333.9C656.6 337.2 655.5 340.5 654.4 343.7C653.6 346 652.8 348.3 652.8 350.3C652.8 352.3 653.6 354.6 654.4 356.9C655.5 360.2 656.6 363.5 655.9 366.7Z" fill="white"/>
<path d="M573.8 349.4C573.8 340.2 579.9 332.4 588.2 329.8C586.9 329.5 585.6 329.4 584.2 329.4C579.1 329.4 573.9 331.4 570 335.3C566.2 339.1 564.1 344.1 564.1 349.5C564.1 354.9 566.2 359.9 570 363.7C574.9 368.6 581.8 370.4 588.2 369.2C579.9 366.4 573.8 358.6 573.8 349.4Z" fill="#EE4444"/>
<path d="M539.3 346.5C541.454 346.5 543.2 344.754 543.2 342.6C543.2 340.446 541.454 338.7 539.3 338.7C537.146 338.7 535.4 340.446 535.4 342.6C535.4 344.754 537.146 346.5 539.3 346.5Z" fill="#7D3F97"/>
<path d="M575.7 305.5C577.854 305.5 579.6 303.754 579.6 301.6C579.6 299.446 577.854 297.7 575.7 297.7C573.546 297.7 571.8 299.446 571.8 301.6C571.8 303.754 573.546 305.5 575.7 305.5Z" fill="#7D3F97"/>
<path d="M585 410.1C587.154 410.1 588.9 408.354 588.9 406.2C588.9 404.046 587.154 402.3 585 402.3C582.846 402.3 581.1 404.046 581.1 406.2C581.1 408.354 582.846 410.1 585 410.1Z" fill="#7D3F97"/>
<path d="M640.7 363C642.854 363 644.6 361.254 644.6 359.1C644.6 356.946 642.854 355.2 640.7 355.2C638.546 355.2 636.8 356.946 636.8 359.1C636.8 361.254 638.546 363 640.7 363Z" fill="#7D3F97"/>
<path d="M616.2 339.5C618.354 339.5 620.1 337.754 620.1 335.6C620.1 333.446 618.354 331.7 616.2 331.7C614.046 331.7 612.3 333.446 612.3 335.6C612.3 337.754 614.046 339.5 616.2 339.5Z" fill="#7D3F97"/>
<path d="M608.4 383.6C610.554 383.6 612.3 381.854 612.3 379.7C612.3 377.546 610.554 375.8 608.4 375.8C606.246 375.8 604.5 377.546 604.5 379.7C604.5 381.854 606.246 383.6 608.4 383.6Z" fill="#7D3F97"/>
<path d="M549.2 390.8C551.354 390.8 553.1 389.054 553.1 386.9C553.1 384.746 551.354 383 549.2 383C547.046 383 545.3 384.746 545.3 386.9C545.3 389.054 547.046 390.8 549.2 390.8Z" fill="#7D3F97"/>
<path d="M584.2 266.5C538.4 266.5 501.1 303.8 501.1 349.6C501.1 395.4 538.4 432.7 584.2 432.7C630 432.7 667.3 395.4 667.3 349.6C667.3 303.8 630.1 266.5 584.2 266.5ZM584.2 429C540.4 429 504.8 393.4 504.8 349.6C504.8 305.8 540.4 270.2 584.2 270.2C628 270.2 663.6 305.8 663.6 349.6C663.6 393.4 628 429 584.2 429Z" fill="#7D3F97"/>
<path d="M601 332.6C591.7 323.3 576.7 323.3 567.4 332.6C562.9 337.1 560.4 343 560.4 349.4C560.4 355.7 562.9 361.7 567.4 366.2C572 370.8 578.1 373.1 584.2 373.1C590.3 373.1 596.4 370.8 601 366.2C610.3 356.9 610.3 341.9 601 332.6ZM598.4 363.6C597.3 364.7 596.1 365.6 594.9 366.4C594.7 366.4 594.6 366.3 594.4 366.3C585.1 366.3 577.5 358.7 577.5 349.4C577.5 340.1 585.1 332.5 594.4 332.5C594.6 332.5 594.7 332.5 594.9 332.4C596.1 333.2 597.3 334.1 598.4 335.2C606.2 343.1 606.2 355.8 598.4 363.6Z" fill="#7D3F97"/>
<path d="M553.6 312.2H539.3C538.3 312.2 537.4 313 537.4 314.1C537.4 315.1 538.2 316 539.3 316H553.6C554.6 316 555.5 315.2 555.5 314.1C555.4 313 554.6 312.2 553.6 312.2Z" fill="#7D3F97"/>
<path d="M610.7 320.1C610.8 320.1 610.9 320.1 611 320.1C611.9 320.1 612.7 319.5 612.8 318.6L615.3 305.4C615.5 304.4 614.8 303.4 613.8 303.2C612.8 303 611.8 303.7 611.6 304.7L609.1 317.9C609.1 318.9 609.7 319.9 610.7 320.1Z" fill="#7D3F97"/>
<path d="M623.5 365.3C622.8 364.6 621.6 364.5 620.9 365.2C620.2 365.9 620.1 367.1 620.8 367.8L630.5 378.3C630.9 378.7 631.4 378.9 631.9 378.9C632.4 378.9 632.8 378.7 633.2 378.4C633.9 377.7 634 376.5 633.3 375.8L623.5 365.3Z" fill="#7D3F97"/>
<path d="M583.3 382.6C582.8 381.7 581.6 381.5 580.7 382L568.6 389.7C567.7 390.2 567.5 391.4 568 392.3C568.4 392.9 569 393.2 569.6 393.2C569.9 393.2 570.3 393.1 570.6 392.9L582.7 385.2C583.5 384.6 583.8 383.5 583.3 382.6Z" fill="#7D3F97"/>
<path d="M547.4 368.6C547.8 367.7 547.4 366.6 546.5 366.1L533.6 359.9C532.7 359.5 531.6 359.8 531.1 360.8C530.7 361.7 531.1 362.8 532 363.3L544.9 369.5C545.2 369.6 545.4 369.7 545.7 369.7C546.4 369.7 547.1 369.3 547.4 368.6Z" fill="#7D3F97"/>
<path d="M628 345.1C628.4 345.1 628.9 344.9 629.3 344.6L638.3 336.4C639.1 335.7 639.1 334.5 638.4 333.8C637.7 333 636.5 333 635.8 333.7L626.8 341.9C626 342.6 626 343.8 626.7 344.5C627 344.9 627.5 345.1 628 345.1Z" fill="#7D3F97"/>
</svg>
