<svg width="1486" height="225" viewBox="0 0 1486 225" fill="none" xmlns="http://www.w3.org/2000/svg">
<path d="M277 42.4C276.7 39 275.6 36.4 273.5 34.5C266.9 28.5 251.6 29.5 223.7 31.4C219.7 31.7 215.6 31.9 211.1 32.2C197.2 33.1 189.7 33.7 183.7 34.3C174.5 35.1 168.3 35.6 147.4 36.3C147.1 33.1 144.5 30.6 141.2 30.6C138.4 30.6 136 32.5 135.2 35.1C132.1 34.8 127.9 34.1 126.4 33.3C125.3 32.7 124.4 31.9 123.4 31C120.9 28.8 117.9 26.1 111 25.8C111 25.8 111 25.8 110.9 25.8H54.3C53.5 25.8 52.8 26.5 52.8 27.3V31.3C52.8 32.1 53.5 32.8 54.3 32.8H54.7L99.6 34.8L75.8 34.9H75.7H75.6L65.8 35C65.7 35 65.5 34.9 65.4 34.9C65.2 34.9 65.1 34.9 65 35L54.8 35.1C54.7 35.1 54.6 35.1 54.5 35.1C54.4 35.1 54.4 35.1 54.3 35.1C53.5 35.1 52.8 35.8 52.8 36.6V40.4C52.8 41.2 53.5 41.9 54.3 41.9H54.7L63.8 42.1V44L54.7 44.2C54.5 44.2 54.4 44.2 54.2 44.3C53.4 44.3 52.8 45 52.8 45.8V49.5C52.8 50.3 53.5 51 54.3 51L63.8 51.1V52.9L54.7 53.3H54.3C53.5 53.3 52.8 54 52.8 54.8V58.8C52.8 59.6 53.5 60.3 54.3 60.3H63.8V76.4V76.5C63.8 79.8 62.5 81.4 60.9 83.3C59.2 85.3 57.4 87.6 57.4 92C57.4 96.4 59.3 98.7 60.9 100.7C62.4 102.5 63.8 104.1 63.8 107.5C63.8 110.8 62.5 112.4 60.9 114.3C59.2 116.3 57.4 118.6 57.4 123C57.4 127.4 59.3 129.7 60.9 131.7C62.4 133.5 63.8 135.1 63.8 138.5C63.8 141.8 62.5 143.4 60.9 145.3C59.3 147.3 57.5 149.5 57.4 153.6C41.9 154.5 27.5 163.8 21.4 177H9.60002C4.70002 177 0.700012 181 0.700012 185.9C0.700012 190.8 4.70002 194.8 9.60002 194.8H11.5C11.7 194.9 11.8 195.1 11.9 195.1C22.5 203.2 28.1 210.6 30.9 215.3C33.9 220.4 34.5 223.6 34.5 223.6C34.6 224.3 35.3 224.9 36 224.9H165.1C165.8 224.9 166.5 224.3 166.6 223.6C166.6 223.6 167.1 220.4 170.2 215.3C173 210.6 178.6 203.3 189.2 195.1C189.2 195.1 189.4 195 189.5 194.9C189.6 194.9 189.6 194.8 189.6 194.8H191.5C196.4 194.8 200.4 190.8 200.4 185.9C200.4 181 196.4 177 191.5 177H176.4C176 176.1 175.7 175.2 175.3 174.4C170.3 163.7 162.5 154.6 152.6 148.2C142.4 141.6 130.6 138.1 118.4 138.1C106.2 138.1 94.4 141.6 84.2 148.2C83.5 148.6 82.9 149.1 82.3 149.5C82.8 148.7 83.4 148 84 147.2C85.7 145.2 87.5 142.9 87.5 138.5C87.5 134.1 85.6 131.8 84 129.8C82.5 128 81.1 126.4 81.1 123C81.1 119.7 82.4 118.1 84 116.2C85.7 114.2 87.5 111.9 87.5 107.5C87.5 103.1 85.6 100.8 84 98.8C82.5 97 81.1 95.4 81.1 92C81.1 88.7 82.4 87.1 84 85.2C85.5 83.4 87.2 81.3 87.5 77.7C87.5 77.6 87.6 77.4 87.6 77.3V60.3H110.9C111.2 60.3 111.5 60.3 111.7 60.3C117.8 60.3 120.8 57.5 123.3 55.2C124.3 54.3 125.3 53.4 126.3 52.8C127.8 52 132.1 51.3 135.1 51C135.8 53.6 138.2 55.5 141.1 55.5C144.4 55.5 147 53 147.3 49.8C169 50.4 174.9 50.9 183.8 51.7C189.7 52.2 197 52.9 211.1 53.8C215.6 54.1 219.7 54.4 223.8 54.6C235.7 55.4 245.4 56 253 56C263.2 56 269.8 54.9 273.5 51.4C275.6 49.5 276.8 46.9 277 43.5C277 43.4 277 43.2 277 43.1V42.4C277.1 42.7 277.1 42.5 277 42.4ZM55.9 38.9V38.1H63.9V39.2L55.9 38.9ZM55.9 48.2V47.4L63.9 47.2V48.3L55.9 48.2ZM55.9 57.5V56.5L63.9 56.1V57.4H55.9V57.5ZM63.4 147.3C65.1 145.3 66.9 143 66.9 138.6C66.9 134.2 65 131.9 63.4 129.9C61.9 128.1 60.5 126.5 60.5 123.1C60.5 119.8 61.8 118.2 63.4 116.3C65.1 114.3 66.9 112 66.9 107.6C66.9 103.2 65 100.9 63.4 98.9C61.9 97.1 60.5 95.5 60.5 92.1C60.5 88.8 61.8 87.2 63.4 85.3C64.9 83.5 66.6 81.4 66.9 77.8C66.9 77.7 67 77.5 67 77.4V38H74.3V76.6V76.7C74.3 80 73 81.6 71.4 83.5C69.7 85.5 67.9 87.8 67.9 92.2C67.9 96.6 69.8 98.9 71.4 100.9C72.9 102.7 74.3 104.3 74.3 107.7C74.3 111 73 112.6 71.4 114.5C69.7 116.5 67.9 118.8 67.9 123.2C67.9 127.6 69.8 129.9 71.4 131.9C72.9 133.7 74.3 135.3 74.3 138.7C74.3 142 73 143.6 71.4 145.5C69.8 147.5 67.9 149.7 67.9 154.1C67.9 154.1 67.9 154.3 67.9 154.5C65.8 154.1 63.6 153.9 61.5 153.8C61.2 153.8 60.9 153.8 60.7 153.8C60.7 150.6 61.9 149 63.4 147.3ZM39 162.5C45.7 158.5 53.7 156.4 61.3 156.6C64.9 156.7 68.7 157.4 72.2 158.4C71 159.7 69.9 161.1 68.8 162.5H68.7C67.2 162.2 64.4 162.1 62.5 162C50.5 161.6 39.1 167.2 32.1 177H24.9C27.9 171.3 32.8 166.1 39 162.5ZM44.5 177.1H35.9C42.4 169.3 52.1 164.8 62.3 165.1C63.7 165.1 65.3 165.2 66.7 165.4C65.6 167 64.6 168.7 63.6 170.4C55.9 170.1 49.1 172.4 44.5 177.1ZM62.1 173.3C61.9 173.7 61.7 174.1 61.5 174.4C61.1 175.2 60.8 176.1 60.4 177H49.3C52.7 174.7 57.1 173.4 62.1 173.3ZM164 221.9H37.3C36.3 218.3 32.2 207.6 16.5 194.9H184.7C169.1 207.6 165 218.3 164 221.9ZM191.6 180.1C194.8 180.1 197.4 182.7 197.4 185.9C197.4 189.1 194.8 191.7 191.6 191.7H12.3H12.2H9.80002C6.60002 191.7 4.00002 189.1 4.00002 185.9C4.00002 182.7 6.60002 180.1 9.80002 180.1H191.6ZM118.4 168C111.4 168 104.7 170.6 99.5 175.3C98.9 175.8 98.3 176.4 97.7 177H88C88.3 176.5 88.7 176 88.9 175.7C95.8 166.3 106.8 160.7 118.4 160.7C130 160.7 141.1 166.3 147.9 175.7C148.1 176 148.5 176.5 148.8 177H139C138.4 176.4 137.9 175.8 137.2 175.3C132.1 170.6 125.4 168 118.4 168ZM134.6 177.1H102.2C106.7 173.2 112.5 171.1 118.4 171.1C124.4 171.1 130.1 173.2 134.6 177.1ZM118.4 157.7C105.8 157.7 93.9 163.8 86.4 174C85.9 174.8 84.9 176.3 84.3 177.1H75.6C75.7 176.8 75.9 176.6 76 176.3C84.6 161 100.8 151.5 118.3 151.5C135.8 151.5 152 161 160.6 176.3C160.7 176.6 160.9 176.8 161 177.1H152.3C151.7 176.2 150.7 174.7 150.2 174C143 163.8 131 157.7 118.4 157.7ZM85.9 150.8C95.6 144.5 106.8 141.2 118.4 141.2C130 141.2 141.2 144.5 150.9 150.8C160.3 156.9 167.8 165.6 172.5 175.7C172.7 176.1 172.9 176.6 173.1 177H164.6C164.2 176.2 163.8 175.4 163.4 174.7C154.3 158.5 137 148.4 118.4 148.4C99.8 148.4 82.6 158.5 73.4 174.7C73 175.4 72.6 176.2 72.2 177H63.7C63.9 176.6 64.1 176.1 64.3 175.7C69 165.6 76.5 157 85.9 150.8ZM84.5 76.6V76.7C84.5 80 83.2 81.6 81.6 83.5C79.9 85.5 78.1 87.8 78.1 92.2C78.1 96.6 80 98.9 81.6 100.9C83.1 102.7 84.5 104.3 84.5 107.7C84.5 111 83.2 112.6 81.6 114.5C79.9 116.5 78.1 118.8 78.1 123.2C78.1 127.6 80 129.9 81.6 131.9C83.1 133.7 84.5 135.3 84.5 138.7C84.5 142 83.2 143.6 81.6 145.5C80.1 147.3 78.4 149.3 78.1 152.9C76.8 154 75.6 155.1 74.5 156.2C73.3 155.8 72.1 155.4 70.8 155.1C70.8 154.8 70.8 154.1 70.8 154.1C70.8 150.8 72.1 149.3 73.6 147.4C75.3 145.4 77.2 143.1 77.2 138.7C77.2 134.3 75.3 132 73.7 130C72.2 128.2 70.8 126.6 70.8 123.2C70.8 119.9 72.1 118.3 73.6 116.4C75.3 114.4 77.2 112.1 77.2 107.7C77.2 103.3 75.3 101 73.7 99C72.2 97.2 70.8 95.6 70.8 92.2C70.8 88.9 72.1 87.3 73.7 85.4C75.2 83.6 76.9 81.5 77.2 77.9C77.2 77.8 77.3 77.6 77.3 77.5V38H84.6V76.6H84.5ZM87.6 42.8L99.7 43.1L87.6 43.4V42.8ZM87.6 51.4L99.7 51.5L87.6 52V51.4ZM134.8 48.2C132.2 48.5 127.1 49.1 124.8 50.4C123.4 51.2 122.3 52.2 121.2 53.2C118.7 55.5 116.4 57.7 111 57.4C111 57.4 111 57.4 110.9 57.4H87.5V55L103.7 54.3C104.5 54.3 105.2 53.6 105.2 52.8V50C105.2 49.2 104.5 48.5 103.7 48.5L87.5 48.4V46.6L103.7 46.2C104.5 46.2 105.2 45.5 105.2 44.7V41.9C105.2 41.1 104.5 40.4 103.7 40.4L87.5 40V38.2L103.7 38.1C104.5 38.1 105.2 37.4 105.2 36.6V33.8C105.2 33 104.6 32.3 103.7 32.3L55.8 30.2V29.2H110.8C116.5 29.4 118.8 31.4 121.2 33.6C122.3 34.6 123.4 35.5 124.7 36.3C126.9 37.5 132.1 38.2 134.7 38.5V48.2H134.8ZM144.3 49.5C144.3 51.2 142.9 52.7 141.1 52.7C139.4 52.7 137.9 51.3 137.9 49.5V36.7C137.9 35 139.3 33.5 141.1 33.5C142.8 33.5 144.3 34.9 144.3 36.7V49.5ZM271.4 49.5C265.8 54.6 250 53.6 223.9 51.8C219.9 51.5 215.7 51.3 211.2 51C197.1 50.1 189.8 49.5 184 48.9C175.1 48.1 169.2 47.6 147.3 46.9V39.1C168.4 38.5 174.6 37.9 183.9 37.1C189.9 36.6 197.4 35.9 211.3 35.1C215.8 34.8 219.9 34.5 223.9 34.3C250 32.5 265.8 31.5 271.4 36.6C273 38.1 273.8 40.1 274 43C273.9 46 273.1 48 271.4 49.5Z" fill="#7D3F97"/>
<path d="M721.7 106.1C723.5 105.9 724.6 105.8 724.6 105.8C725.4 105.7 725.9 105 725.9 104.2C725.9 104 725.7 99 722.7 93.4C719.9 88.3 714 81.8 702 79.9C701.3 79.8 700 79.6999 699.3 79.6999C694.7 79.4999 685.2 79.5999 680.2 79.6999C679.5 79.6999 678 79.8 677.3 79.9C665.3 81.8 659.4 88.3 656.6 93.4C653.6 98.9 653.4 104 653.4 104.2C653.4 105 653.9 105.6 654.7 105.7C654.7 105.7 655.8 105.9 657.7 106.1C658.1 112.5 663.4 117.5 669.9 117.5H709.6C716 117.6 721.4 112.5 721.7 106.1ZM720 94.8C721.8 98.1 722.5 101.2 722.8 102.9C720.1 103.2 713.7 103.9 705.4 104.4L715.1 95C715.4 94.7 715.6 94.3 715.6 93.9C715.6 93.5 715.4 93.1 715.1 92.8L706.1 84C712.3 85.9 717 89.5 720 94.8ZM699.2 82.6999C699.5 82.6999 700 82.7 700.4 82.8L711.7 93.9L700.6 104.7C697.6 104.8 694.4 105 691.1 105C690.7 105 690.4 105 690 105L700.3 94.9C700.6 94.6 700.8 94.2 700.8 93.8C700.8 93.4 700.6 92.9999 700.3 92.6999L689.9 82.5C693.5 82.6 697 82.6999 699.2 82.6999ZM677.8 82.9C678.4 82.8 679.7 82.6999 680.3 82.6999C681.8 82.6999 683.7 82.6 685.7 82.6L697.2 93.8L685.7 105C682.4 105 679.2 104.9 676.2 104.7L685.8 95.3C686.1 95 686.3 94.5999 686.3 94.1999C686.3 93.7999 686.1 93.4 685.8 93.1L675.8 83.1999C676.5 83.1999 677.1 83 677.8 82.9ZM672.5 84.1999C672.6 84.3999 672.7 84.4999 672.8 84.6999L682.6 94.3L672.3 104.4L672.2 104.5C668.8 104.3 665.7 104 663.2 103.7L671.3 95.6C671.9 95 671.9 94 671.3 93.4L665.6 87.6C667.6 86.3 669.9 85.0999 672.5 84.1999ZM659.3 103.3C658.2 103.2 657.3 103 656.6 102.9C656.8 101.2 657.5 98.1 659.3 94.8C660.4 92.8 661.7 91.1 663.2 89.6L668 94.5L659.3 103.1C659.3 103.2 659.3 103.3 659.3 103.3ZM660.8 106.6C666.6 107.3 676.2 108.1 687 108.1C688.4 108.1 689.9 108.1 691.4 108.1C694.8 108 698 107.9 701 107.8C701.1 107.8 701.2 107.9 701.4 107.9C701.6 107.9 701.8 107.9 701.9 107.8C708.8 107.4 714.6 106.9 718.7 106.5C718.2 111.1 714.3 114.6 709.6 114.6H669.9C665.2 114.5 661.3 111.1 660.8 106.6Z" fill="#7D3F97"/>
<path d="M780.3 127.4L749.7 96.8001C749.1 96.2001 748.1 96.2001 747.5 96.8001L716.9 127.4C716.5 127.8 716.4 128.2 716.5 128.7C716.5 128.8 716.5 128.8 716.5 128.9V137V137.1V145.5C716.5 145.8 716.6 146.1 716.8 146.3H713C708.5 146.3 703.9 147.9 700.4 150.6C697 153.3 695 156.8 694.6 160.6C694.5 160.8 694.4 161 694.4 161.3L694.2 188.4C694.2 198.8 702.6 207.2 713 207.2H734.2C744.6 207.2 753 198.8 753 188.4L752.8 174C752.8 174 752.9 174 752.9 173.9L780.3 146.5C780.6 146.2 780.7 145.8 780.7 145.4V137V136.9V128.8C780.7 128.7 780.7 128.7 780.7 128.6C780.7 128.5 780.7 128.5 780.7 128.4C780.7 128.1 780.6 127.7 780.3 127.4ZM735.5 113.1C736 113.6 736.5 114.1 736.6 114.2L746.4 124C746.9 124.5 747.2 125.2 747.3 125.9C747.3 126.3 747.3 126.9 746.9 127.4C746.1 128.2 744.4 127.8 743.5 126.9L732.6 116L735.5 113.1ZM730.4 118.2L741.3 129.1C742.4 130.2 744.1 130.9 745.7 130.9C746.9 130.9 748.1 130.5 749 129.6C750 128.6 750.5 127.1 750.3 125.6C750.1 124.2 749.5 122.9 748.5 121.9L738.7 112.1C738.7 112.1 738.1 111.5 737.6 111L740.2 108.4L752.3 120.5C755.8 124 757.2 130.4 753.7 133.9C752.1 135.5 749.8 136.2 747.2 135.9C744.6 135.6 742.1 134.4 740.3 132.5L728.2 120.4L730.4 118.2ZM719.5 132.2L733.7 146.4H729.4L719.6 136.6V132.2H719.5ZM719.5 140.8L725 146.3H720.9L719.4 144.8V140.8H719.5ZM712.9 149.4H734.1C741.4 149.4 749.6 154.6 749.6 162C749.6 169.4 741.5 174.6 734.1 174.6H712.9C705.6 174.6 697.4 169.4 697.4 162C697.4 154.6 705.6 149.4 712.9 149.4ZM734.1 204.2H712.9C704.2 204.2 697.2 197.1 697.2 188.5L697.3 170.4C698.1 171.5 699.1 172.5 700.3 173.4C703.8 176.2 708.4 177.8 712.9 177.8H734.1C738.6 177.8 743.2 176.2 746.7 173.4C747.8 172.5 748.8 171.5 749.6 170.4L749.8 188.4C749.9 197.1 742.8 204.2 734.1 204.2ZM746.7 150.7C744.3 148.8 741.4 147.5 738.3 146.8L738.2 146.7L720 128.5L726 122.5L738.1 134.6C740.4 136.9 743.6 138.5 746.8 138.8C747.3 138.9 747.8 138.9 748.3 138.9C751.2 138.9 753.8 137.9 755.7 136C757.9 133.8 759 130.6 758.5 127C758.1 123.8 756.6 120.6 754.3 118.3L742.2 106.2L748.4 100L776.9 128.5L750.4 155C749.6 153.4 748.3 151.9 746.7 150.7ZM777.7 144.9L752.8 169.8V165.8L777.8 140.8V144.9H777.7ZM777.7 136.5L752.7 161.5V161.3C752.7 161.2 752.7 161.1 752.7 161C752.6 159.9 752.4 158.9 752.1 157.9L777.8 132.2V136.5H777.7Z" fill="#7D3F97"/>
<path d="M716.1 169.1H730.9C735.1 169.1 739.6 166.1 739.6 161.6C739.6 157.1 735.1 154.1 730.9 154.1H716.1C711.9 154.1 707.4 157.1 707.4 161.6C707.4 166.1 711.9 169.1 716.1 169.1ZM716.1 157.1H730.9C734.2 157.1 736.5 159.4 736.5 161.6C736.5 163.7 734.2 166.1 730.9 166.1H716.1C712.8 166.1 710.5 163.8 710.5 161.6C710.5 159.5 712.8 157.1 716.1 157.1Z" fill="#7D3F97"/>
<path d="M903.8 156.8C902.2 152.5 899.3 149.4 895.6 148C895.5 147.9 895.3 147.8 895.2 147.8L871.7 139.9L792.8 3.40002C790.9 0.300015 786.7 -0.69996 783.4 1.30004C780.1 3.30004 778.9 7.39999 780.7 10.5L858.9 139C857.7 139.3 856.6 139.8 855.5 140.4C851 142.7 847.7 146.6 846.2 151.3L846.1 151.5L733.5 36.3C730.9 33.7 726.6 33.9 723.9 36.6C721.2 39.3 721 43.5999 723.6 46.1999L842.5 162.5L839.6 171.4C838.1 176.2 838.5 181.2 840.8 185.7C843.1 190.2 847 193.5 851.7 195L876.6 202.7C876.7 202.7 876.8 202.8 876.9 202.8C878.2 203.2 879.6 203.4 880.9 203.4C883.8 203.4 886.7 202.5 889.5 200.6C893.2 198.1 896.1 194.2 897.5 190L904 169.8C905.5 165.8 905.4 161 903.8 156.8ZM783.3 8.99999C782.3 7.29999 783 5.10002 784.9 3.90002C786.8 2.80002 789.1 3.20002 790.1 4.90002L867.4 138.6C865.6 138.3 863.8 138.2 862 138.4L783.3 8.99999ZM725.7 44.1999C724.3 42.7999 724.5 40.4 726 38.9C727.5 37.4 729.9 37.2 731.3 38.6L859.1 169.2L860.4 173.2L856.4 171.9L725.7 44.1999ZM852.6 192.3C848.6 191 845.4 188.2 843.5 184.5C841.6 180.7 841.2 176.5 842.5 172.5L844.9 165L854.4 174.3C854.6 174.5 854.8 174.6 855 174.7L862.1 176.9C862.3 176.9 862.4 177 862.6 177C863 177 863.4 176.8 863.7 176.6C864.1 176.2 864.2 175.6 864.1 175.1L861.9 168C861.8 167.8 861.7 167.6 861.5 167.4L848.5 154.1L849.1 152.4C850.4 148.4 853.2 145.2 856.9 143.3C860.7 141.4 864.9 141 868.9 142.3L886.1 148C884.8 148.5 883.5 149.1 882.3 149.9C878.6 152.4 875.7 156.3 874.3 160.5L867.8 180.7C866.4 185 866.5 189.8 868.1 194C868.6 195.4 869.2 196.6 870 197.7L852.6 192.3ZM901.2 169.2L894.7 189.4C892.5 196.3 885.2 202.4 878.2 200.3H878.1L877.6 200.1C874.6 199 872.2 196.5 870.9 192.9C869.6 189.4 869.5 185.2 870.7 181.6L877.2 161.4C879.1 155.5 884.8 150.1 890.9 150.1C891.9 150.1 893 150.3 894 150.6C897.2 151.6 899.7 154.2 901.1 157.9C902.3 161.4 902.3 165.5 901.2 169.2Z" fill="#7D3F97"/>
<path d="M891.5 159.3C889.4 158.6 887.1 159 885.1 160.4C883.3 161.6 881.8 163.5 881.2 165.6L876.3 180.6C874.6 185.8 877.4 190.6 881 191.8C881.7 192 882.4 192.1 883.1 192.1C886.8 192.1 890.2 189 891.3 185.5L896.2 170.5C896.9 168.4 896.8 166 896.1 164C895.2 161.6 893.6 160 891.5 159.3ZM893.3 169.5L888.4 184.5C887.5 187.3 884.6 189.7 881.9 188.8C879.2 187.9 878.3 184.2 879.2 181.5L884.1 166.5C884.6 165 885.6 163.7 886.8 162.9C887.3 162.5 888.3 162 889.4 162C889.8 162 890.1 162.1 890.5 162.2C892.1 162.7 892.8 164.2 893.1 165C893.8 166.4 893.8 168.1 893.3 169.5Z" fill="#7D3F97"/>
<path d="M887.242 180.983C887.667 179.669 886.947 178.259 885.633 177.834C884.32 177.408 882.91 178.128 882.485 179.442C882.059 180.756 882.779 182.165 884.093 182.591C885.406 183.016 886.816 182.296 887.242 180.983Z" fill="#7D3F97"/>
<path d="M890.473 171.284C890.898 169.97 890.178 168.56 888.865 168.135C887.551 167.709 886.141 168.429 885.716 169.743C885.291 171.057 886.011 172.466 887.324 172.892C888.638 173.317 890.048 172.597 890.473 171.284Z" fill="#7D3F97"/>
<path d="M1215.2 69.8L1202.7 65.9C1202.3 65.8 1201.9 65.8 1201.5 66C1201.1 66.2 1200.9 66.5 1200.8 66.9L1198.5 74.4L1187.5 71C1187.1 70.9 1186.7 70.9 1186.3 71.1C1185.9 71.3 1185.7 71.6 1185.6 72L1184.7 74.9L1173.2 71.6C1172.8 71.5 1172.4 71.5 1172 71.7C1171.6 71.9 1171.4 72.2 1171.3 72.6L1170.3 76.1C1170.1 76 1170 76 1169.8 76L1157.6 75.5V60C1157.6 59.2 1156.9 58.5 1156.1 58.5H1143C1142.2 58.5 1141.5 59.2 1141.5 60V62.1C1141.4 62.1 1141.2 62.1 1141.1 62.1L1128.1 63.6C1127.7 63.6 1127.3 63.8 1127.1 64.2C1126.8 64.5 1126.7 64.9 1126.8 65.3L1127.4 70.2L1116.8 74H1116.7L1106.7 77.5C1105.9 77.8 1105.5 78.6 1105.7 79.4L1113.3 105.3L1110.7 104.6C1110.2 104.5 1109.7 104.6 1109.3 104.9C1108.9 105.2 1108.7 105.7 1108.8 106.2L1120.7 190.8C1120.8 191.6 1121.4 192.1 1122.2 192.1H1198.6C1199.4 192.1 1200 191.5 1200.1 190.8L1212 106.2C1212.1 105.7 1211.9 105.2 1211.5 104.9C1211.1 104.6 1210.6 104.4 1210.1 104.6L1205.8 105.7L1216.3 71.7C1216.5 70.9 1216 70 1215.2 69.8ZM1188 74.4L1197.6 77.4L1181.6 129C1178.2 131.9 1174.2 134 1169.9 135.3L1180.6 98.2L1188 74.4ZM1157.5 93.8L1158.1 78.7L1168.1 79.1L1167.8 84.6L1157.5 120.7V93.8ZM1157.5 131.6C1157.6 131.5 1157.6 131.4 1157.6 131.3L1173.7 75L1183.3 77.8L1177.6 97.4L1165.5 136.3C1163.7 136.6 1161.9 136.7 1160.1 136.7C1159.2 136.7 1158.3 136.7 1157.3 136.6V131.6H1157.5ZM1144.4 61.6H1154.4V93.7L1154.3 95.5C1154.3 95.7 1154.3 95.8 1154.4 96V136.2C1150.8 135.6 1147.5 134.4 1144.4 132.7V61.6ZM1139.7 65.3L1140.8 75L1141.3 80.8V80.9V130.8C1139.6 129.6 1138 128.3 1136.5 126.8L1129.7 66.5L1139.7 65.3ZM1127.4 73.3L1133 122.6C1130.4 118.9 1128.5 114.5 1127.6 109.8C1127.6 109.6 1127.5 109.4 1127.3 109.2L1118.8 76.4L1127.4 73.3ZM1108.8 79.8L1115.8 77.4L1123.7 107.9L1116.5 106.1L1108.8 79.8ZM1208.5 108L1197.1 189H1123.3L1111.9 108L1124.7 111.2C1128.3 127.8 1143.1 139.7 1160.2 139.7C1177.2 139.7 1192 127.8 1195.7 111.3L1208.5 108ZM1202.2 106.5L1194 108.6C1193.4 108.7 1193 109.2 1192.9 109.8C1191.9 115.2 1189.5 120.1 1186.3 124.1L1201 76.8V76.7L1203.3 69.3L1212.9 72.3L1202.2 106.5Z" fill="#7D3F97"/>
<path d="M1160.2 147.1C1150.9 147.1 1143.3 154.7 1143.3 164C1143.3 173.3 1150.9 180.9 1160.2 180.9C1169.5 180.9 1177.1 173.3 1177.1 164C1177.2 154.7 1169.6 147.1 1160.2 147.1ZM1160.2 177.9C1152.6 177.9 1146.3 171.7 1146.3 164C1146.3 156.4 1152.5 150.1 1160.2 150.1C1167.9 150.1 1174.1 156.3 1174.1 164C1174.1 171.7 1167.9 177.9 1160.2 177.9Z" fill="#7D3F97"/>
<path d="M1102.2 168.7H1099.1C1099.3 166.7 1099.3 163.2 1097 160.2C1095.7 158.5 1094 157.3 1091.7 156.5C1082.8 152.1 1081.7 146.3 1081.5 145.4C1083.4 143.1 1084 139.3 1079.4 133.8C1079.1 133.4 1078.7 133.2 1078.2 133.2C1077.7 133.2 1077.3 133.4 1077 133.8C1075.6 135.7 1071.7 140.9 1067.5 143L1055.5 115.7C1055.2 114.9 1054.3 114.6 1053.5 114.9L1042.8 119.2C1042.4 119.4 1042.1 119.7 1042 120C1041.8 120.4 1041.9 120.8 1042 121.2L1054.4 149.2C1052.7 151.9 1053 154.8 1053.2 156.3C1052.9 156.7 1051.8 158.1 1048.2 161C1046.6 162.3 1045.7 163.8 1045.6 165.6C1045.5 166.8 1045.8 167.8 1046.1 168.7H1042.5C1042 168.7 1041.6 168.9 1041.3 169.3C1041 169.7 1040.9 170.2 1041.1 170.7L1047.6 191C1047.8 191.6 1048.4 192.1 1049.1 192.1H1096.6C1097.3 192.1 1097.9 191.6 1098.1 191L1103.9 170.7C1104 170.2 1103.9 169.7 1103.6 169.4C1103.1 168.9 1102.7 168.7 1102.2 168.7ZM1078.2 137.2C1080.6 140.7 1079.9 142.6 1078.9 143.8C1077.7 143.8 1075.4 143.8 1071.9 143.8C1074.3 141.9 1076.4 139.4 1078.2 137.2ZM1068.5 146.8C1073.8 146.8 1077.1 146.8 1078.8 146.8C1079.3 148.6 1080.6 152 1084.4 155.3C1084.2 155.3 1083.9 155.3 1083.7 155.3C1076.8 155.3 1060.9 155.3 1056.1 155.3C1056 154.1 1056 152.2 1057.2 150.5C1059 148.1 1062.9 146.8 1068.5 146.8ZM1045.3 121.5L1053.2 118.3L1064.5 144C1061.1 144.4 1058.4 145.4 1056.4 146.9L1045.3 121.5ZM1048.6 165.9C1048.7 165 1049.2 164.2 1050.1 163.5C1052.8 161.3 1054.6 159.6 1055.5 158.4C1059.5 158.4 1076.4 158.4 1083.7 158.4C1083.8 158.4 1083.8 158.4 1083.9 158.4C1089.1 158.4 1092.8 159.7 1094.7 162.1C1096.5 164.4 1096.3 167.4 1096.1 168.8H1049.6C1049.3 168.3 1048.5 167.2 1048.6 165.9ZM1095.3 189.1H1050.1L1044.6 171.8H1100.2L1095.3 189.1Z" fill="#7D3F97"/>
<path d="M1072.3 185.2C1073.1 185.2 1073.8 184.5 1073.8 183.7V177C1073.8 176.2 1073.1 175.5 1072.3 175.5C1071.5 175.5 1070.8 176.2 1070.8 177V183.7C1070.8 184.5 1071.5 185.2 1072.3 185.2Z" fill="#7D3F97"/>
<path d="M1086.2 185.3C1086.3 185.3 1086.4 185.3 1086.5 185.3C1087.2 185.3 1087.8 184.8 1088 184.1L1089.5 177.3C1089.7 176.5 1089.2 175.7 1088.4 175.5C1087.6 175.3 1086.8 175.8 1086.6 176.6L1085.1 183.4C1084.9 184.3 1085.4 185.1 1086.2 185.3Z" fill="#7D3F97"/>
<path d="M1056.7 184.1C1056.9 184.8 1057.5 185.3 1058.2 185.3C1058.3 185.3 1058.4 185.3 1058.5 185.3C1059.3 185.1 1059.8 184.3 1059.6 183.5L1058.1 176.7C1057.9 175.9 1057.1 175.4 1056.3 175.6C1055.5 175.8 1055 176.6 1055.2 177.4L1056.7 184.1Z" fill="#7D3F97"/>
<path d="M508.8 105.9C508.5 105.5 508.1 105.3 507.6 105.3L492.6 105.8V88.8003C492.6 88.0003 491.9 87.3003 491.1 87.3003H467.2V51.7002C467.2 50.9002 466.5 50.2002 465.7 50.2002H412.9C412.1 50.2002 411.4 50.9002 411.4 51.7002V86.6002L395.7 80.3003C394.9 80.0003 394.1 80.3002 393.7 81.1002L387.1 96.3003V96.4003C386.8 96.8003 386.8 97.3002 386.9 97.7002L398.4 130.9C398.5 131.2 398.7 131.4 398.9 131.6L385.9 142C385.4 142.4 385.2 143 385.4 143.5V143.6C385.3 144.4 385.8 145.2 386.7 145.3L407.6 148.5V207C407.6 207.8 408.3 208.5 409.1 208.5H494.4C495.2 208.5 495.9 207.8 495.9 207V133L509.4 108.1C509.5 107.9 509.6 107.6 509.6 107.4C509.7 107 509.6 106.6 509.4 106.2C509 106.1 508.9 106 508.8 105.9ZM467.1 90.3003H489.5V118C489.5 118.1 489.5 118.1 489.5 118.2L483.4 123.8H483.3H467.2V90.3003H467.1ZM467.1 126.9H480.1L467.1 138.8V126.9ZM439.7 53.2002H464.1V87.2002H439.7V53.2002ZM439.7 90.3003H464.1V123.8H439.7V90.3003ZM439.7 126.9H464.1V141.3C464.1 141.4 464.1 141.5 464.1 141.6L452.2 152.5L439.7 150.6V126.9ZM414.3 53.2002H436.7V87.2002H414.3V53.2002ZM414.3 90.3003H436.7V123.8H414.3V90.3003ZM414.3 126.9H436.7V150L414.3 146.6V126.9ZM395.8 83.7002L411.2 89.9003C411.2 89.9003 411.2 89.9003 411.3 89.9003V121L390.2 96.7002L395.8 83.7002ZM391.9 103.3L409.2 123.3L401.1 129.8L391.9 103.3ZM389.7 142.8L411.3 125.6V146.1L389.7 142.8ZM492.7 205.6H410.4V149L452.5 155.5C452.6 155.5 452.7 155.5 452.7 155.5C453.1 155.5 453.4 155.4 453.7 155.1L492.6 119.5V205.6H492.7ZM493.3 114.8C493.2 114.8 493.2 114.9 493.1 115L492.6 115.5V108.9L503 108.6L493.3 114.8ZM495.7 126.7V116.9L503.9 111.5L495.7 126.7Z" fill="#7D3F97"/>
<path d="M531.2 48.3002C531.2 47.9002 531.1 47.5001 530.8 47.2001L504.5 20.9002C503.9 20.3002 502.9 20.3002 502.3 20.9002L485 38.2001C484.7 38.5001 484.5 38.9002 484.6 39.3002C484.6 39.3002 484.6 39.3002 484.6 39.4002V47.4002C484.6 47.8002 484.8 48.2002 485 48.5002L511.3 74.8002C511.6 75.1002 512 75.2001 512.4 75.2001C512.8 75.2001 513.2 75.1002 513.5 74.8002L530.8 57.5002C531.1 57.2002 531.2 56.8002 531.2 56.4002V48.3002ZM510.7 69.7001L487.7 46.7001V42.9002L510.7 65.9002V69.7001ZM512.4 63.3002L488.3 39.2001L503.4 24.1001L527.5 48.2001L512.4 63.3002ZM528.1 55.7001L513.7 70.1001V66.3002L528.1 51.9002V55.7001Z" fill="#7D3F97"/>
<path d="M435 166.5C430.4 169.5 427.8 173.5 427.8 177.9C427.8 182.2 430.4 186.3 435 189.3C439.4 192.2 445.3 193.7 451.5 193.7C457.7 193.7 463.6 192.1 468 189.3C472.6 186.3 475.2 182.3 475.2 177.9C475.2 173.6 472.6 169.5 468 166.5C463.6 163.6 457.7 162.1 451.5 162.1C445.3 162 439.4 163.6 435 166.5ZM472.2 177.8C472.2 184.8 462.9 190.5 451.5 190.5C440.1 190.5 430.8 184.8 430.8 177.8C430.8 170.8 440.1 165.1 451.5 165.1C462.9 165.1 472.2 170.8 472.2 177.8Z" fill="#7D3F97"/>
<path d="M441.4 171.1C440.7 171.6 440.6 172.5 441.1 173.2C441.6 173.9 442.5 174 443.2 173.5C445.3 172 448.3 171.2 451.4 171.2C454.7 171.2 457.8 172.1 459.9 173.7C460.2 173.9 460.5 174 460.8 174C461.3 174 461.7 173.8 462 173.4C462.5 172.7 462.4 171.8 461.7 171.3C459.1 169.3 455.3 168.2 451.4 168.2C447.6 168.2 443.9 169.2 441.4 171.1Z" fill="#7D3F97"/>
<path d="M459.9 182.1C457.8 183.6 454.8 184.4 451.7 184.4C448.4 184.4 445.3 183.5 443.2 181.9C442.5 181.4 441.6 181.5 441.1 182.2C440.6 182.9 440.7 183.8 441.4 184.3C444 186.3 447.8 187.4 451.7 187.4C455.5 187.4 459.1 186.3 461.7 184.5C462.4 184 462.5 183.1 462 182.4C461.5 181.8 460.6 181.6 459.9 182.1Z" fill="#7D3F97"/>
<path d="M1439.9 91.8002C1441.67 91.8002 1443.1 90.3674 1443.1 88.6001C1443.1 86.8328 1441.67 85.4001 1439.9 85.4001C1438.13 85.4001 1436.7 86.8328 1436.7 88.6001C1436.7 90.3674 1438.13 91.8002 1439.9 91.8002Z" fill="#7D3F97"/>
<path d="M1381.1 91.8002C1382.87 91.8002 1384.3 90.3674 1384.3 88.6001C1384.3 86.8328 1382.87 85.4001 1381.1 85.4001C1379.33 85.4001 1377.9 86.8328 1377.9 88.6001C1377.9 90.3674 1379.33 91.8002 1381.1 91.8002Z" fill="#7D3F97"/>
<path d="M1410.5 91.8002C1412.27 91.8002 1413.7 90.3674 1413.7 88.6001C1413.7 86.8328 1412.27 85.4001 1410.5 85.4001C1408.73 85.4001 1407.3 86.8328 1407.3 88.6001C1407.3 90.3674 1408.73 91.8002 1410.5 91.8002Z" fill="#7D3F97"/>
<path d="M1395.8 79.2002C1397.57 79.2002 1399 77.7676 1399 76.0002C1399 74.2329 1397.57 72.8003 1395.8 72.8003C1394.03 72.8003 1392.6 74.2329 1392.6 76.0002C1392.6 77.7676 1394.03 79.2002 1395.8 79.2002Z" fill="#7D3F97"/>
<path d="M1425.2 79.2002C1426.97 79.2002 1428.4 77.7676 1428.4 76.0002C1428.4 74.2329 1426.97 72.8003 1425.2 72.8003C1423.43 72.8003 1422 74.2329 1422 76.0002C1422 77.7676 1423.43 79.2002 1425.2 79.2002Z" fill="#7D3F97"/>
<path d="M1344.1 112.3C1346.2 112.3 1347.2 113.4 1348.5 114.9C1349.9 116.5 1351.7 118.5 1355.2 118.5C1358.6 118.5 1360.4 116.5 1361.9 114.9C1363.2 113.5 1364.2 112.3 1366.3 112.3C1368.4 112.3 1369.4 113.4 1370.7 114.9C1372.1 116.5 1373.9 118.5 1377.4 118.5C1380.8 118.5 1382.6 116.5 1384.1 114.9C1385.4 113.5 1386.4 112.3 1388.5 112.3C1390.6 112.3 1391.6 113.4 1392.9 114.9C1394.3 116.5 1396.1 118.5 1399.6 118.5C1403 118.5 1404.8 116.5 1406.3 114.9C1407.6 113.5 1408.6 112.3 1410.7 112.3C1412.8 112.3 1413.8 113.4 1415.1 114.9C1416.5 116.5 1418.3 118.5 1421.8 118.5C1425.2 118.5 1427 116.5 1428.5 114.9C1429.8 113.5 1430.8 112.3 1432.9 112.3C1435 112.3 1436 113.4 1437.3 114.9C1438.7 116.5 1440.5 118.5 1444 118.5C1447.4 118.5 1449.2 116.5 1450.7 114.9C1452 113.5 1453 112.3 1455.1 112.3C1457.2 112.3 1458.2 113.4 1459.5 114.9C1460.9 116.5 1462.7 118.5 1466.2 118.5C1469.6 118.5 1471.4 116.5 1472.9 114.9C1474.2 113.5 1475.2 112.3 1477.3 112.3C1478.1 112.3 1478.8 111.6 1478.8 110.8C1478.8 110 1478.1 109.3 1477.3 109.3C1473.9 109.3 1472.1 111.3 1470.6 112.9C1469.3 114.3 1468.3 115.5 1466.2 115.5C1464.1 115.5 1463.1 114.4 1461.8 112.9C1460.4 111.3 1458.6 109.3 1455.1 109.3C1451.7 109.3 1449.9 111.3 1448.4 112.9C1447.1 114.3 1446.1 115.5 1444 115.5C1441.9 115.5 1440.9 114.4 1439.6 112.9C1438.2 111.3 1436.4 109.3 1432.9 109.3C1429.5 109.3 1427.7 111.3 1426.2 112.9C1424.9 114.3 1423.9 115.5 1421.8 115.5C1419.7 115.5 1418.7 114.4 1417.4 112.9C1416 111.3 1414.2 109.3 1410.7 109.3C1407.3 109.3 1405.5 111.3 1404 112.9C1402.7 114.3 1401.7 115.5 1399.6 115.5C1397.5 115.5 1396.5 114.4 1395.2 112.9C1393.8 111.3 1392 109.3 1388.5 109.3C1385.1 109.3 1383.3 111.3 1381.8 112.9C1380.5 114.3 1379.5 115.5 1377.4 115.5C1375.3 115.5 1374.3 114.4 1373 112.9C1371.6 111.3 1369.8 109.3 1366.3 109.3C1362.9 109.3 1361.1 111.3 1359.6 112.9C1358.3 114.3 1357.3 115.5 1355.2 115.5C1353.1 115.5 1352.1 114.4 1350.8 112.9C1349.4 111.3 1347.6 109.3 1344.1 109.3C1343.3 109.3 1342.6 110 1342.6 110.8C1342.6 111.6 1343.2 112.3 1344.1 112.3Z" fill="#7D3F97"/>
<path d="M1344.1 102.9C1346.2 102.9 1347.2 104 1348.5 105.5C1349.9 107.1 1351.7 109.1 1355.2 109.1C1358.6 109.1 1360.4 107.1 1361.9 105.5C1363.2 104.1 1364.2 102.9 1366.3 102.9C1368.4 102.9 1369.4 104 1370.7 105.5C1372.1 107.1 1373.9 109.1 1377.4 109.1C1380.8 109.1 1382.6 107.1 1384.1 105.5C1385.4 104.1 1386.4 102.9 1388.5 102.9C1390.6 102.9 1391.6 104 1392.9 105.5C1394.3 107.1 1396.1 109.1 1399.6 109.1C1403 109.1 1404.8 107.1 1406.3 105.5C1407.6 104.1 1408.6 102.9 1410.7 102.9C1412.8 102.9 1413.8 104 1415.1 105.5C1416.5 107.1 1418.3 109.1 1421.8 109.1C1425.2 109.1 1427 107.1 1428.5 105.5C1429.8 104.1 1430.8 102.9 1432.9 102.9C1435 102.9 1436 104 1437.3 105.5C1438.7 107.1 1440.5 109.1 1444 109.1C1447.4 109.1 1449.2 107.1 1450.7 105.5C1452 104.1 1453 102.9 1455.1 102.9C1457.2 102.9 1458.2 104 1459.5 105.5C1460.9 107.1 1462.7 109.1 1466.2 109.1C1469.6 109.1 1471.4 107.1 1472.9 105.5C1474.2 104.1 1475.2 102.9 1477.3 102.9C1478.1 102.9 1478.8 102.2 1478.8 101.4C1478.8 100.6 1478.1 99.9002 1477.3 99.9002C1475.3 99.9002 1473.9 100.5 1472.8 101.4C1471.8 92.1002 1466.4 82.6002 1457.8 74.9002C1447.5 65.8002 1433.7 60.1002 1418.8 58.8002C1414.7 58.5002 1407 58.5002 1403.2 58.8002C1388 60.2002 1374 65.9001 1363.9 75.0001C1355.4 82.6001 1350.2 92.1002 1349.2 101.4C1348.1 100.6 1346.6 99.9002 1344.7 99.9002C1343.9 99.9002 1343.2 100.6 1343.2 101.4C1342.6 102.2 1343.2 102.9 1344.1 102.9ZM1365.4 77.1001C1375 68.5001 1388.4 63.0001 1403 61.7001C1406.6 61.4001 1414.2 61.4001 1418.1 61.7001C1432.4 62.9001 1445.6 68.3001 1455.4 77.0001C1464.3 84.9001 1469.4 94.7001 1469.6 104.1C1468.6 105.1 1467.6 105.9 1465.9 105.9C1463.8 105.9 1462.8 104.8 1461.5 103.3C1460.1 101.7 1458.3 99.7001 1454.8 99.7001C1451.4 99.7001 1449.6 101.7 1448.1 103.3C1446.8 104.7 1445.8 105.9 1443.7 105.9C1441.6 105.9 1440.6 104.8 1439.3 103.3C1437.9 101.7 1436.1 99.7001 1432.6 99.7001C1429.2 99.7001 1427.4 101.7 1425.9 103.3C1424.6 104.7 1423.6 105.9 1421.5 105.9C1419.4 105.9 1418.4 104.8 1417.1 103.3C1415.7 101.7 1413.9 99.7001 1410.4 99.7001C1407 99.7001 1405.2 101.7 1403.7 103.3C1402.4 104.7 1401.4 105.9 1399.3 105.9C1397.2 105.9 1396.2 104.8 1394.9 103.3C1393.5 101.7 1391.7 99.7001 1388.2 99.7001C1384.8 99.7001 1383 101.7 1381.5 103.3C1380.2 104.7 1379.2 105.9 1377.1 105.9C1375 105.9 1374 104.8 1372.7 103.3C1371.3 101.7 1369.5 99.7001 1366 99.7001C1362.6 99.7001 1360.8 101.7 1359.3 103.3C1358 104.7 1357 105.9 1354.9 105.9C1353.2 105.9 1352.2 105.2 1351.2 104.1C1351.6 94.7001 1356.7 84.9001 1365.4 77.1001Z" fill="#7D3F97"/>
<path d="M1477.3 143.9H1456.9C1456.8 142.2 1456 140.7 1454.6 139.3C1454.2 139 1453.8 138.7 1453.4 138.4L1475.6 141.4C1475.8 141.4 1476.1 141.4 1476.3 141.4C1477.4 141.4 1478.5 141 1479.5 140.3C1480.7 139.4 1481.4 138 1481.6 136.5L1481.8 134.9C1482.2 131.9 1480.1 129.1 1477.2 128.7L1418.6 120.7C1417.2 120.5 1415.9 120.9 1414.7 121.7C1413.5 122.6 1412.8 124 1412.6 125.5L1412.4 127.1C1412 130.1 1414.1 132.9 1417 133.3L1446.2 137.3H1409.9C1410.3 136.5 1410.6 135.6 1410.6 134.7V133C1410.6 129.9 1408.1 127.4 1405 127.4H1346.4C1343.3 127.4 1340.8 129.9 1340.8 133V134.7C1340.8 137.8 1343.3 140.3 1346.4 140.3H1353.8C1353.1 141.2 1352.7 142.3 1352.6 143.7C1352.5 143.7 1352.4 143.7 1352.3 143.7H1343.9C1339.3 143.7 1335.5 148.6 1335.5 154.7C1335.5 160.7 1339.3 165.7 1343.9 165.7H1348.2C1348.2 165.7 1348.2 165.7 1348.2 165.8V176.1C1348.2 185 1355.4 192.2 1364.3 192.2H1457C1465.9 192.2 1473.1 185 1473.1 176.1V165.8C1473.1 165.8 1473.1 165.8 1473.1 165.7H1477.4C1482 165.7 1485.8 160.8 1485.8 154.7C1485.7 148.8 1481.9 143.9 1477.3 143.9ZM1417.2 130.5C1416 130.3 1415 129 1415.2 127.6L1415.4 126C1415.5 125.3 1415.8 124.7 1416.4 124.3C1416.8 124 1417.2 123.8 1417.7 123.8C1417.8 123.8 1417.9 123.8 1418 123.8L1476.6 131.8C1477.8 132 1478.8 133.3 1478.6 134.7L1478.4 136.3C1478.3 137 1478 137.6 1477.4 138C1476.9 138.4 1476.4 138.5 1475.8 138.4L1417.2 130.5ZM1447.7 140.5H1447.8C1448.6 140.4 1451.2 140.5 1452.4 141.5C1454 143 1454.2 144.8 1452.9 146.7C1452.5 147.3 1442.4 161.2 1437.3 168.2L1419.7 148.4C1419.4 148.1 1419 147.9 1418.6 147.9C1418.3 147.9 1418 148 1417.7 148.2C1410.5 153.3 1400.3 156.4 1388.9 156.8C1377.9 157.2 1367.3 155.1 1359.8 150.9C1356 148.8 1355.4 146.7 1355.4 144.9C1355.4 142.8 1355.9 142.2 1357 141.4C1358.3 140.5 1360.7 140.4 1361.5 140.5H1361.6H1447.7V140.5ZM1346.2 137.4C1344.8 137.4 1343.7 136.3 1343.7 134.9V133.2C1343.7 131.8 1344.8 130.7 1346.2 130.7H1404.8C1406.2 130.7 1407.3 131.8 1407.3 133.2V134.9C1407.3 136.3 1406.2 137.4 1404.8 137.4H1346.2ZM1343.7 162.7C1340.8 162.7 1338.3 159.1 1338.3 154.8C1338.3 150.5 1340.8 146.9 1343.7 146.9H1352.1C1352.2 146.9 1352.4 146.9 1352.5 146.8C1353.1 149.6 1354.9 151.7 1358.3 153.6C1375 162.9 1402.6 161.8 1418.4 151.4L1428.4 162.7H1343.7V162.7ZM1469.9 165.8V176.1C1469.9 183.3 1464 189.2 1456.8 189.2H1364.1C1356.9 189.2 1351 183.3 1351 176.1V165.8C1351 165.8 1351 165.8 1351 165.7H1431L1436.2 171.6C1436.5 171.9 1436.9 172.1 1437.3 172.1C1437.3 172.1 1437.3 172.1 1437.4 172.1C1437.9 172.1 1438.3 171.8 1438.6 171.5C1439.1 170.8 1440.7 168.6 1442.8 165.7L1469.9 165.8ZM1477.3 162.7H1445.2C1449.8 156.4 1455.2 148.9 1455.6 148.5C1456 148 1456.2 147.5 1456.4 146.9H1477.3C1480.2 146.9 1482.7 150.5 1482.7 154.8C1482.6 159.1 1480.2 162.7 1477.3 162.7Z" fill="#7D3F97"/>
</svg>
