<svg width="1490" height="346" viewBox="0 0 1490 346" fill="none" xmlns="http://www.w3.org/2000/svg">
<path d="M954.1 169.1H936.5C933.6 169.1 931 171 930.1 173.6H919.3C919.3 171.7 919.3 169.7 919.3 167.7V165.5C919.3 165.4 919.3 165.2 919.3 165.1C919.3 165 919.3 164.8 919.3 164.7V164.1C919.3 163.9 919.2 163.7 919.2 163.5C918.5 160 915.8 156.7 911.1 153.7C906.1 150.5 899 147.6 890 145.1C871.6 140.1 847.2 137.3 821.2 137.3C795.2 137.3 770.8 140.1 752.4 145.1C743.4 147.6 736.3 150.4 731.3 153.7C726.6 156.8 723.8 160.1 723.2 163.5C723.1 163.7 723 163.9 723 164.2C723 164.3 723 164.6 723 164.9C723 165 723 165.1 723 165.3C723 165.4 723 165.5 723 165.7C723 167.4 723 170.4 723 173.7H711.9C710.9 171.1 708.4 169.2 705.5 169.2H687.9C684.1 169.2 681 172.3 681 176.1C681 179.9 684.1 183 687.9 183H701.4L723.1 197.5C723.2 197.6 723.4 197.6 723.5 197.7C725.5 219.2 735.4 237.4 752.5 250.6C763.4 259.1 777 265.2 792.3 268.6L773.9 337.2C772.9 340.9 775.1 344.6 778.8 345.6C779.4 345.8 780 345.8 780.6 345.8C783.6 345.8 786.4 343.8 787.2 340.7L806 270.8C811.1 271.4 816.2 271.7 821.5 271.7C826.7 271.7 831.8 271.4 836.7 270.9L855.4 340.7C856.2 343.8 859 345.8 862 345.8C862.6 345.8 863.2 345.7 863.8 345.6C867.5 344.6 869.7 340.9 868.7 337.2L850.5 268.6C865.8 265.2 879.5 259.1 890.4 250.6C907.5 237.4 917.4 219.1 919.3 197.6H919.4L941.1 183.1H954.6C958.4 183.1 961.5 180 961.5 176.2C961 172.2 957.9 169.1 954.1 169.1ZM687.6 179.8C685.5 179.8 683.8 178.1 683.8 176C683.8 173.9 685.5 172.2 687.6 172.2H705.2C707.3 172.2 709 173.9 709 176C709 178.1 707.3 179.8 705.2 179.8H687.6ZM706.4 182.8C709.4 182.3 711.8 179.8 712.1 176.7H722.8C722.8 183.4 722.8 190.4 722.8 190.6C722.8 191.7 722.9 192.8 722.9 193.8L706.4 182.8ZM725.9 164.9C726.2 158.8 736.1 152.7 753.1 148.1C771.2 143.2 795.4 140.4 821.1 140.4C846.8 140.4 870.9 143.1 889.1 148.1C906.1 152.7 915.9 158.8 916.3 164.9V165.6C916.2 168 914.6 170.3 911.7 172.6C911.1 167.7 905.7 161 884.5 155.5C867.5 151 845 148.6 821.1 148.6C797.2 148.6 774.6 151.1 757.7 155.5C736.6 161 731.1 167.7 730.5 172.6C727.7 170.3 726.1 168 726 165.6C725.9 165.3 725.9 165.1 725.9 164.9ZM892.8 173.4V161.1C902.8 164.8 908.6 169.1 908.6 173.3H892.8V173.4ZM905.1 176.5C901.7 178.2 897.6 179.8 892.8 181.2V176.5H905.1ZM889.8 182.1C889.5 182.2 889.2 182.3 888.9 182.3C885.7 183.2 882.3 184 878.7 184.7V176.4H889.7V181.6C889.8 181.8 889.8 182 889.8 182.1ZM889.8 160.8V173.5H878.8V157.4C878.8 157.3 878.8 157.3 878.8 157.2C880.5 157.6 882.1 158 883.7 158.4C885.9 159 888 159.6 890 160.2C889.8 160.4 889.8 160.6 889.8 160.8ZM875.8 185.3C872.2 186 868.5 186.6 864.7 187.1C864.7 187 864.7 186.9 864.7 186.8V176.5H875.7V185C875.7 185.1 875.7 185.2 875.8 185.3ZM875.7 157.4V173.5H864.7V154.6C868.6 155.2 872.4 155.9 876 156.6C875.8 156.8 875.7 157.1 875.7 157.4ZM850.6 152.9C854.4 153.3 858.1 153.7 861.6 154.2V173.5H850.6V153.1C850.6 153 850.6 152.9 850.6 152.9ZM850.6 188.7V176.5H861.6V186.8C861.6 187.1 861.7 187.3 861.8 187.5C858.2 188 854.4 188.4 850.6 188.7ZM847.6 189C844 189.3 840.3 189.5 836.5 189.7C836.5 189.7 836.5 189.7 836.5 189.6V176.5H847.5V188.7C847.6 188.8 847.6 188.9 847.6 189ZM847.6 153.1V173.5H836.6V151.9C840.4 152.1 844.1 152.3 847.7 152.6C847.6 152.7 847.6 152.9 847.6 153.1ZM822.5 151.5C826.2 151.5 829.9 151.6 833.5 151.7V173.4H822.5V151.6C822.5 151.6 822.5 151.6 822.5 151.5ZM822.5 189.6V176.5H833.5V189.6C833.5 189.7 833.5 189.7 833.5 189.8C829.8 189.9 826.1 190 822.4 190C822.5 189.8 822.5 189.7 822.5 189.6ZM819.4 176.5V189.6C819.4 189.7 819.4 189.9 819.5 190C815.8 190 812.1 189.9 808.4 189.8C808.4 189.7 808.4 189.7 808.4 189.6V176.5H819.4V176.5ZM808.4 173.4V151.7C812 151.6 815.7 151.5 819.4 151.5V151.6V173.4H808.4V173.4ZM794.3 152.6C797.9 152.3 801.6 152.1 805.4 151.9V173.5H794.4V153.1C794.3 152.9 794.3 152.7 794.3 152.6ZM794.3 188.7V176.5H805.3V189.6C805.3 189.6 805.3 189.6 805.3 189.7C801.6 189.5 797.9 189.3 794.2 189C794.3 188.9 794.3 188.8 794.3 188.7ZM791.3 188.7C787.5 188.4 783.7 188 780.1 187.5C780.2 187.3 780.3 187 780.3 186.8V176.5H791.3V188.7ZM791.3 153.1V173.5H780.3V154.2C783.9 153.7 787.6 153.3 791.3 152.9C791.3 152.9 791.3 153 791.3 153.1ZM766 156.5C769.6 155.8 773.3 155.1 777.3 154.5V173.4H766.3V157.3C766.2 157.1 766.1 156.8 766 156.5ZM766.2 185V176.5H777.2V186.8C777.2 186.9 777.2 187 777.2 187.1C773.4 186.6 769.7 186 766.1 185.3C766.2 185.2 766.2 185.1 766.2 185ZM752.2 173.4V160.7C752.2 160.5 752.2 160.3 752.1 160.1C754.1 159.5 756.1 158.8 758.4 158.3C760 157.9 761.6 157.5 763.3 157.1C763.3 157.2 763.3 157.2 763.3 157.3V173.4H752.2ZM763.2 176.5V184.7C759.7 184 756.3 183.2 753.1 182.3C752.8 182.2 752.5 182.1 752.2 182C752.2 181.9 752.3 181.8 752.3 181.6V176.4H763.2V176.5ZM734.1 173.4C733.8 173.4 733.6 173.5 733.4 173.6C733.4 173.5 733.4 173.5 733.4 173.4C733.4 169.2 739.2 164.8 749.2 161.2V173.5H734.1V173.4ZM749.1 176.5V181.2C744.3 179.7 740.3 178.2 736.9 176.5H749.1ZM783.8 339.7C783.5 340.7 782.9 341.5 782 342C781.1 342.5 780.1 342.7 779.1 342.4C778.1 342.1 777.3 341.5 776.8 340.6C776.3 339.7 776.1 338.7 776.4 337.7L794.9 268.9C797.4 269.4 799.9 269.8 802.4 270.1L783.8 339.7ZM865.3 337.8C865.6 338.8 865.4 339.8 864.9 340.7C864.4 341.6 863.6 342.2 862.6 342.5C861.6 342.8 860.6 342.6 859.7 342.1C858.8 341.6 858.2 340.8 857.9 339.8L839.3 270.4C841.9 270.1 844.5 269.6 847 269.1L865.3 337.8ZM916.2 190.5C915.9 214.1 906.2 234 888.1 248C871.1 261.1 847.3 268.4 821 268.4C794.8 268.4 771 261.1 754 248C735.9 234 726.2 214.1 725.8 190.5C725.8 190.2 725.8 180 725.8 172.4C727.1 173.9 728.9 175.3 731 176.7C736 179.9 743.1 182.8 752.1 185.3C770.5 190.3 794.9 193.1 820.9 193.1C846.9 193.1 871.3 190.3 889.7 185.3C898.7 182.8 905.8 180 910.8 176.7C913 175.3 914.7 173.9 916 172.4C916.2 179.9 916.2 190.2 916.2 190.5ZM919.1 193.6C919.1 192.6 919.2 191.6 919.2 190.6C919.2 190.4 919.2 184.5 919.2 176.7H929.6C929.9 179.8 932.3 182.3 935.3 182.8L919.1 193.6ZM954.1 179.8H936.5C934.4 179.8 932.7 178.1 932.7 176C932.7 173.9 934.4 172.2 936.5 172.2H954.1C956.2 172.2 957.9 173.9 957.9 176C957.9 178.1 956.2 179.8 954.1 179.8Z" fill="black"/>
<path d="M822.9 122.4C823.3 122.4 823.7 122.3 824 122C827.9 118.1 832.1 118.6 836.9 119.1C841.8 119.6 847.4 120.2 852.3 115.4C857.2 110.5 856.6 104.9 856 100C855.5 95.1003 855 90.9004 858.9 87.1004C862.8 83.2004 867 83.7002 871.8 84.2002C876.7 84.7002 882.3 85.3003 887.2 80.5003C892.1 75.6003 891.5 70.0004 890.9 65.1004C890.4 60.2004 889.9 56.0002 893.8 52.2002C894.4 51.6002 894.4 50.6003 893.8 50.0003C893.2 49.4003 892.2 49.4003 891.6 50.0003C886.7 54.9003 887.3 60.5002 887.9 65.4002C888.4 70.3002 888.9 74.5003 885 78.3003C881.1 82.2003 876.9 81.7002 872.1 81.2002C867.2 80.7002 861.6 80.1002 856.7 84.9002C851.8 89.8002 852.4 95.4003 853 100.3C853.5 105.2 854 109.4 850.1 113.2C846.2 117.1 842 116.6 837.2 116.1C832.3 115.6 826.7 115 821.8 119.8C821.2 120.4 821.2 121.4 821.8 122C822.1 122.2 822.5 122.4 822.9 122.4Z" fill="black"/>
<path d="M902 80.1006C902.5 85.0006 903 89.2005 899.1 93.0005C895.2 96.9005 891 96.4004 886.2 95.9004C881.3 95.4004 875.7 94.8006 870.8 99.6006C870.2 100.201 870.2 101.201 870.8 101.801C871.1 102.101 871.5 102.2 871.9 102.2C872.3 102.2 872.7 102.101 873 101.801C876.9 97.9006 881.1 98.4004 885.9 98.9004C890.8 99.4004 896.4 100 901.3 95.2005C906.2 90.3005 905.6 84.7006 905 79.8006C904.5 74.9006 904 70.7004 907.9 66.9004C911.8 63.0004 916 63.5005 920.8 64.0005C925.7 64.5005 931.3 65.1006 936.2 60.3006C941.1 55.4006 940.5 49.8004 939.9 44.9004C939.4 40.0004 938.9 35.8005 942.8 32.0005C943.4 31.4005 943.4 30.4006 942.8 29.8006C942.2 29.2006 941.2 29.2006 940.6 29.8006C935.7 34.7006 936.3 40.3005 936.9 45.2005C937.4 50.1005 937.9 54.3006 934 58.1006C930.1 62.0006 925.9 61.5005 921.1 61.0005C916.2 60.5005 910.6 59.9005 905.7 64.7005C900.8 69.6005 901.4 75.2006 902 80.1006Z" fill="black"/>
<path d="M843 73.5003C843.4 73.5003 843.8 73.4004 844.1 73.1004C848 69.2004 852.2 69.7002 857 70.2002C861.9 70.7002 867.5 71.3003 872.4 66.5003C877.3 61.6003 876.7 56.0004 876.1 51.1004C875.6 46.2004 875.1 42.0002 879 38.2002C882.9 34.3002 887.1 34.8003 891.9 35.3003C896.8 35.8003 902.4 36.4004 907.3 31.6004C912.2 26.7004 911.6 21.1002 911 16.2002C910.5 11.3002 910 7.10034 913.9 3.30034C914.5 2.70034 914.5 1.70039 913.9 1.10039C913.3 0.500391 912.3 0.500391 911.7 1.10039C906.8 6.00039 907.4 11.6003 908 16.5003C908.5 21.4003 909 25.6002 905.1 29.4002C901.2 33.3002 897 32.8003 892.2 32.3003C887.3 31.8003 881.7 31.2003 876.8 36.0003C871.9 40.9003 872.5 46.5002 873.1 51.4002C873.6 56.3002 874.1 60.5003 870.2 64.3003C866.3 68.2003 862.1 67.7002 857.3 67.2002C852.4 66.7002 846.8 66.1002 841.9 70.9002C841.3 71.5002 841.3 72.5004 841.9 73.1004C842.3 73.3004 842.6 73.5003 843 73.5003Z" fill="black"/>
<path d="M172.2 177.4H148.4L149.3 166.9C149.7 166.4 149.8 165.9 149.8 165.5C149.8 163.6 148.3 161.4 130.4 159.5C118.7 158.3 103.2 157.6 86.6 157.6C70.1 157.6 54.5 158.3 42.8 159.5C27.2 161.1 24 163 23.5 164.7H1.70001C0.900012 164.7 0.200012 165.4 0.200012 166.2V180.2C0.200012 180.7 0.400018 181.1 0.800018 181.4C1.20002 181.7 1.60002 181.8 2.10002 181.7C2.20002 181.7 16.8 178.9 26.6 197.5C26.6 197.6 26.7 197.7 26.8 197.7L36.6 313C36.6 313.6 37 314 37.5 314.3C38.4 315.1 40 315.5 41.6 315.9C44.1 316.5 47.7 317 52.2 317.5C61.5 318.4 73.7 318.9 86.8 318.9C99.9 318.9 112.2 318.4 121.4 317.5C125.9 317 129.5 316.5 132 315.9C133.6 315.5 135.1 315.1 136 314.4C136.6 314.2 137.1 313.7 137.1 313.1L147 195.8C147 195.8 147 195.8 147.1 195.8H156.8V266C156.8 266.8 157.5 267.5 158.3 267.5H172.4C173.2 267.5 173.9 266.8 173.9 266V179C173.7 178.1 173 177.4 172.2 177.4ZM11.2 179.7C7.80001 178.6 4.90002 178.5 3.10002 178.6V167.8H24L26 191.1C21 184.1 15.4 181 11.2 179.7ZM119 314.7C110.1 315.5 98.5 316 86.5 316C74.4 316 62.9 315.6 54 314.7C45.9 314 42.2 313.1 40.5 312.6C42.2 312.1 45.9 311.2 54 310.5C62.9 309.7 74.5 309.2 86.5 309.2C98.5 309.2 110.1 309.6 119 310.5C127.1 311.2 130.8 312.1 132.5 312.6C130.9 313.2 127.1 314 119 314.7ZM134.1 309.9C133.4 309.6 132.6 309.4 131.8 309.2C129.3 308.6 125.7 308.1 121.2 307.6C111.9 306.7 99.7 306.2 86.6 306.2C73.5 306.2 61.2 306.7 52 307.6C47.5 308.1 43.9 308.6 41.4 309.2C40.6 309.4 39.9 309.6 39.2 309.8L29.5 195.7H77C76.9 196.6 76.9 197.5 76.9 198.4C76.9 205.2 79.5 211.6 84.3 216.3C89.2 221.2 95.7 223.7 102.2 223.7C108.7 223.7 115.2 221.2 120.1 216.3C120.4 216 120.6 215.6 120.6 215.2C120.6 214.4 120.6 214.2 112 205.5C107.9 201.4 103.8 197.4 103.8 197.4L102.1 195.7H143.8L134.1 309.9ZM93.6 207C97.8 211.2 103.5 213.5 109.4 213.5C111.2 213.5 113 213.3 114.8 212.8C115.7 213.7 116.5 214.5 117 215.1C108.2 222.9 94.8 222.6 86.4 214.2C82.2 210 79.9 204.4 79.9 198.4C79.9 192.9 81.8 187.8 85.4 183.7L87.7 186C85.9 193.5 88.1 201.5 93.6 207ZM90.3 188.5L101.6 199.6C104.7 202.7 108.9 206.9 112.3 210.2C106.3 211.1 100.1 209.1 95.8 204.8C91.5 200.5 89.5 194.5 90.3 188.5ZM144 192.7H98.9L86.4 180.4C85.8 179.8 84.8 179.8 84.3 180.4C80.9 183.8 78.6 188 77.5 192.6H29.2L27.2 168.8C30 169.7 34.7 170.6 42.8 171.5C54.5 172.7 70 173.4 86.6 173.4C103.1 173.4 118.7 172.7 130.4 171.5C138.6 170.7 143.4 169.7 146.2 168.8L144 192.7ZM128.1 168.6C116.7 169.7 102 170.3 86.5 170.3C71.1 170.3 56.3 169.7 44.9 168.6C32.7 167.5 28.4 166.1 26.9 165.5C28.4 164.8 32.7 163.5 44.9 162.4C56.3 161.3 71 160.7 86.5 160.7C101.9 160.7 116.7 161.3 128.1 162.4C140.3 163.5 144.6 164.9 146.1 165.5C144.6 166.2 140.2 167.5 128.1 168.6ZM170.7 264.5H159.7V194.3C159.7 193.5 159 192.8 158.2 192.8H147.1L148.1 180.5H170.6V264.5H170.7Z" fill="black"/>
<path d="M58.1 207.2C58.9 207.2 59.6 206.5 59.6 205.7C59.6 204.9 58.9 204.2 58.1 204.2H49.7C48.9 204.2 48.2 204.9 48.2 205.7V282.3C48.2 283.1 48.9 283.8 49.7 283.8H58.1C58.9 283.8 59.6 283.1 59.6 282.3C59.6 281.5 58.9 280.8 58.1 280.8H51.3V272.9H58.1C58.9 272.9 59.6 272.2 59.6 271.4C59.6 270.6 58.9 269.9 58.1 269.9H51.3V262H58.1C58.9 262 59.6 261.3 59.6 260.5C59.6 259.7 58.9 259 58.1 259H51.3V251.1H58.1C58.9 251.1 59.6 250.4 59.6 249.6C59.6 248.8 58.9 248.1 58.1 248.1H51.3V240.2H58.1C58.9 240.2 59.6 239.5 59.6 238.7C59.6 237.9 58.9 237.2 58.1 237.2H51.3V229.3H58.1C58.9 229.3 59.6 228.6 59.6 227.8C59.6 227 58.9 226.3 58.1 226.3H51.3V218.4H58.1C58.9 218.4 59.6 217.7 59.6 216.9C59.6 216.1 58.9 215.4 58.1 215.4H51.3V207.5H58.1V207.2Z" fill="black"/>
<path d="M85.9 253.6L103.9 262.7C104.1 262.8 104.4 262.9 104.6 262.9C104.8 262.9 104.9 262.9 105.1 262.8C105.5 262.7 105.8 262.4 106 262L115.1 244C115.5 243.2 115.2 242.3 114.4 242L96.4 232.9C96 232.7 95.6 232.7 95.2 232.8C94.8 232.9 94.5 233.2 94.3 233.6L85.2 251.6C84.9 252.3 85.2 253.2 85.9 253.6ZM96.4 236.2L111.7 243.9L104 259.2L88.7 251.5L96.4 236.2Z" fill="black"/>
<path d="M102.7 273L105.8 293C105.9 293.4 106.1 293.8 106.4 294C106.7 294.2 107 294.3 107.3 294.3C107.4 294.3 107.5 294.3 107.5 294.3L127.5 291.2C128.3 291.1 128.9 290.3 128.8 289.5L125.7 269.5C125.6 269.1 125.4 268.7 125.1 268.5C124.8 268.3 124.4 268.2 124 268.2L104 271.3C103.2 271.4 102.6 272.2 102.7 273ZM122.9 271.4L125.6 288.3L108.7 291L106 274.1L122.9 271.4Z" fill="black"/>
<path d="M92.1 273.9C91.9 273.1 91.1 272.6 90.3 272.8L70.6 277.4C70.2 277.5 69.9001 277.7 69.7001 278.1C69.5001 278.4 69.4 278.9 69.5 279.3L74.1 299C74.2 299.4 74.4 299.7 74.8 299.9C75 300.1 75.3 300.1 75.6 300.1C75.7 300.1 75.8 300.1 75.9 300.1L95.6 295.5C96.4 295.3 96.9001 294.5 96.7001 293.7L92.1 273.9ZM76.7001 296.7L72.8 280L89.5 276.1L93.4 292.8L76.7001 296.7Z" fill="black"/>
<path d="M1201.3 198C1193.1 195.4 1183.3 198.3 1179.2 199.6C1178.8 199.7 1178.5 199.8 1178.2 199.9V180.2C1178.2 180.2 1178.2 180.1 1178.3 180.1C1178.6 179.1 1178.8 178 1178.8 176.9C1178.8 173.5 1177.1 170.4 1174.5 168.6C1174.5 168.5 1174.6 168.4 1174.6 168.3C1174.7 167.8 1174.7 167.3 1174.7 166.8C1174.9 161.9 1173.2 157.1 1169.9 153.5C1166.6 149.8 1162 147.7 1157.1 147.5C1152.2 147.3 1147.5 149 1143.9 152.2C1141.5 150.9 1138.8 150.2 1135.9 150.2C1130.9 150.2 1126.3 152.3 1123 156C1117.3 150.2 1109.3 146.7 1101 146.7C1084 146.7 1070.2 160.5 1070.2 177.5C1070.2 190.2 1077.8 201.4 1089.6 206.1C1089.6 206.1 1090.9 206.6 1092.2 206.9V266.6C1092.2 266.7 1092.2 266.8 1092.2 267L1102.5 309.5C1102.6 309.9 1102.8 310.2 1103.1 310.4C1105.5 312 1114.5 314.7 1133.3 315.1H1138.2C1156.2 314.6 1164.9 311.9 1167.2 310.4C1167.5 310.2 1167.8 309.9 1167.8 309.5L1171.2 295.3C1171.9 295.1 1174.8 294.2 1179.4 291.5C1184 288.8 1191.3 283.6 1199.5 274.5C1214.7 257.7 1215.5 226.3 1215.6 222.8C1215.9 210.5 1210.2 200.7 1201.3 198ZM1178.2 222.5C1178.6 222.1 1179.1 221.6 1179.5 221.1C1182.6 217.8 1187.2 212.7 1192.6 211.1C1194.9 210.4 1196.9 210.5 1198.5 211.4C1200.2 212.3 1201.5 214 1202.2 216.4C1204 222.5 1199.9 249.6 1194 258.3C1190.6 263.4 1187.1 266.2 1183.8 266.5C1181.2 266.7 1179.2 265.3 1178.1 264.3V222.5H1178.2ZM1156.9 150.4C1161 150.6 1164.8 152.4 1167.6 155.4C1170.4 158.5 1171.8 162.4 1171.6 166.5C1171.6 166.7 1171.6 166.9 1171.6 167.1C1170.6 166.8 1169.6 166.6 1168.6 166.6C1165.5 166.6 1162.7 168 1160.7 170.3C1160.5 170.6 1160.3 170.9 1160.1 171.1C1159.6 171.8 1159.8 172.7 1160.5 173.2C1161.2 173.7 1162.1 173.5 1162.6 172.8C1162.7 172.6 1162.9 172.4 1163 172.2C1164.4 170.5 1166.4 169.6 1168.5 169.6C1172.4 169.6 1175.7 172.8 1175.7 176.8C1175.7 177.3 1175.6 177.8 1175.5 178.3C1175.4 178.4 1175.3 178.5 1175.3 178.7C1174.2 179.3 1169.2 180.3 1157 181C1156.5 177.9 1154.5 175.4 1151.7 174.2C1152.6 172.1 1153.1 169.8 1153.1 167.5C1153.1 162 1150.5 157.1 1146.5 153.9C1149.4 151.4 1153 150.2 1156.9 150.4ZM1175.1 181.9V199.9H1157.1V184C1162.9 183.7 1167.7 183.2 1171.1 182.7C1172.8 182.5 1174.1 182.2 1175.1 181.9ZM1154.1 182.9V216.1C1154.1 219.5 1151.4 222.2 1148 222.2C1144.6 222.2 1141.9 219.5 1141.9 216.1V182.9C1142 182.7 1142 182.6 1142 182.4C1142 179.1 1144.7 176.4 1148 176.4C1151.3 176.4 1154 179.1 1154 182.4C1154 182.6 1154.1 182.7 1154.1 182.9ZM1092 179.3C1092 179.4 1092 179.4 1092 179.5V179.6V203.7C1091.3 203.5 1090.7 203.3 1090.5 203.2C1079.9 198.9 1073 188.8 1073 177.4C1073 162.1 1085.5 149.6 1100.8 149.6C1110.7 149.6 1119.9 154.9 1124.9 163.5C1125.3 164.2 1126.3 164.5 1127 164.1C1127.7 163.7 1128 162.7 1127.6 162C1126.8 160.6 1125.9 159.4 1125 158.2C1127.7 155 1131.6 153.2 1135.9 153.2C1143.8 153.2 1150.2 159.6 1150.2 167.5C1150.2 169.6 1149.8 171.6 1148.9 173.5C1148.7 173.5 1148.4 173.5 1148.2 173.5C1143.5 173.5 1139.6 177.1 1139.2 181.7C1137.9 181.7 1136.6 181.7 1135.3 181.7C1116.2 181.7 1102.8 180.6 1097.4 179.5C1098 179.4 1098.7 179.3 1099.5 179.2C1099.9 179.2 1105.3 178.8 1108.8 178.8C1109.6 178.8 1110.3 178.1 1110.3 177.3C1110.3 176.5 1109.6 175.8 1108.8 175.8C1105.3 175.8 1099.7 176.2 1099.2 176.2C1095.7 176.3 1092 177.1 1092 179.3ZM1138.9 184.5V199.9H1095V181.9C1095.5 182 1096 182.1 1096.4 182.2C1098.6 182.6 1101.6 183 1105.5 183.4C1113.4 184.1 1123.9 184.5 1135 184.5C1136.4 184.5 1137.6 184.5 1138.9 184.5ZM1109.8 309.6C1107.5 309.1 1106 308.5 1105.1 308.1L1095 266.4V265.5C1096.2 265.2 1097.7 265 1099.3 265C1103.3 265 1106.2 266 1107.9 267.8C1109.1 269.2 1109.8 271.1 1109.8 273.6V309.6ZM1133.2 312C1124.2 311.8 1117.6 311 1112.9 310.2V274C1112.9 274 1112.9 273.7 1112.9 273.6C1112.9 269.9 1114 265 1122.9 265C1126.9 265 1129.8 266 1131.5 267.8C1132.7 269.2 1133.4 271.1 1133.4 273.6V311.3C1133.4 311.6 1133.5 311.8 1133.6 312H1133.2ZM1157.2 310.2C1152.7 311 1146.5 311.7 1138.1 312H1136.4C1136.5 311.8 1136.6 311.5 1136.6 311.3V274C1136.6 274 1136.6 273.7 1136.6 273.6C1136.6 269.9 1137.7 265 1146.6 265C1150.6 265 1153.5 266 1155.2 267.8C1156.4 269.2 1157.1 271.1 1157.1 273.6V310.2H1157.2ZM1157.6 265.8C1155.3 263.3 1151.6 262 1146.7 262C1141 262 1137 263.8 1135.1 267.4C1134.8 266.8 1134.4 266.3 1134 265.9C1131.7 263.4 1128 262.1 1123.1 262.1C1117.4 262.1 1113.4 263.9 1111.5 267.5C1111.2 266.9 1110.8 266.4 1110.4 266C1108.1 263.5 1104.4 262.2 1099.5 262.2C1098 262.2 1096.5 262.3 1095.2 262.6V203H1139.1V216.1C1139.1 221.1 1143.2 225.2 1148.2 225.2C1153.2 225.2 1157.3 221.1 1157.3 216.1V203H1175.3V262.5C1173.9 262.2 1172.3 262 1170.6 262C1164.9 262 1160.9 263.8 1159 267.4C1158.4 266.8 1158 266.3 1157.6 265.8ZM1165.1 308.1C1164.2 308.5 1162.6 309.1 1160.4 309.6V274C1160.4 274 1160.4 273.7 1160.4 273.6C1160.4 269.9 1161.5 265 1170.4 265C1172.2 265 1173.8 265.2 1175.2 265.6V266.4L1165.1 308.1ZM1197.4 272.4C1185.6 285.4 1176 290.2 1172.2 291.7L1178 267.8C1179.4 268.7 1181.2 269.4 1183.4 269.4C1183.7 269.4 1184 269.4 1184.3 269.4C1188.6 269 1192.7 265.8 1196.7 259.9C1202.8 250.8 1207.5 223 1205.3 215.5C1204.4 212.4 1202.6 210 1200.1 208.7C1197.7 207.4 1194.9 207.2 1191.8 208.2C1186.1 209.9 1181.5 214.6 1178.2 218.1V203.1C1178.2 203.1 1178.2 203.1 1178.3 203.1C1178.7 203 1179.3 202.8 1180.1 202.6C1184 201.4 1193.1 198.7 1200.5 201C1208.1 203.4 1212.9 211.9 1212.8 222.8C1212.8 226.4 1212.4 236.1 1209.7 247.1C1206.8 257.9 1202.7 266.5 1197.4 272.4Z" fill="black"/>
<path d="M561.8 197.5C561.6 197.4 544.3 184 543.4 172.6V172.5C545.9 171.6 547.7 169.2 547.7 166.4V166.3C547.7 163.8 546.3 161.6 544.2 160.5V145.3C544.2 145.2 544.2 145 544.1 144.9C544.7 143.9 545 142.8 545 141.6V141.5C545 137.9 542.1 135 538.5 135H523.7C520.1 135 517.2 137.9 517.2 141.5V141.6C517.2 142.8 517.5 144 518.1 144.9C518.1 145 518 145.2 518 145.3V160.5C515.9 161.6 514.5 163.8 514.5 166.3V166.4C514.5 169.2 516.3 171.6 518.8 172.5V172.6C517.9 184 500.6 197.4 500.4 197.5C500 197.8 499.8 198.2 499.8 198.7V320.9C499.8 326.2 504.1 330.5 509.4 330.5H552.6C557.9 330.5 562.2 326.2 562.2 320.9V198.7C562.4 198.3 562.2 197.8 561.8 197.5ZM520.3 141.5C520.3 139.6 521.9 138 523.8 138H538.6C540.5 138 542.1 139.6 542.1 141.5V141.6C542.1 143.5 540.5 145.1 538.6 145.1H523.8C521.9 145.1 520.3 143.5 520.3 141.6V141.5ZM541.2 147.5V159.7H536V148H538.6C539.6 148.1 540.4 147.9 541.2 147.5ZM533 148.1V164.1H529.4V148.1H533ZM526.4 148.1V159.8H521.2V147.6C522 147.9 522.9 148.1 523.8 148.1H526.4ZM517.7 166.4V166.3C517.7 164.4 519.3 162.8 521.2 162.8H526.4V165.6C526.4 166.4 527.1 167.1 527.9 167.1H534.5C535.3 167.1 536 166.4 536 165.6V162.8H541.2C543.1 162.8 544.7 164.4 544.7 166.3V166.4C544.7 168.3 543.1 169.9 541.2 169.9H521.2C519.3 169.8 517.7 168.3 517.7 166.4ZM559.4 320.9C559.4 324.5 556.5 327.5 552.8 327.5H509.6C506 327.5 503 324.5 503 320.9V222.6H509V319.4C509 320.2 509.7 320.9 510.5 320.9H551.8C552.6 320.9 553.3 320.2 553.3 319.4V222.6H559.3V320.9H559.4ZM512.1 317.9V215.7C512.1 208.9 517.7 203.3 524.5 203.3H537.9C544.7 203.3 550.3 208.9 550.3 215.7V317.9H512.1ZM559.4 219.6H553.4V215.8C553.4 207.3 546.5 200.3 537.9 200.3H524.5C516 200.3 509 207.2 509 215.8V219.6H503V199.5C506.2 196.9 521.1 184.5 522 172.9H540.4C541.3 184.5 556.1 196.9 559.4 199.5V219.6Z" fill="black"/>
<path d="M531.2 233.6C523.7 233.6 517.5 239.7 517.5 247.3C517.5 254.8 523.6 261 531.2 261C538.7 261 544.9 254.9 544.9 247.3C544.9 239.8 538.8 233.6 531.2 233.6ZM531.2 257.9C525.3 257.9 520.6 253.1 520.6 247.3C520.6 241.4 525.4 236.7 531.2 236.7C537.1 236.7 541.8 241.5 541.8 247.3C541.8 253.2 537.1 257.9 531.2 257.9Z" fill="black"/>
<path d="M1401.3 218.1L1386.6 210.7C1385.8 210.3 1384.9 210.6 1384.6 211.4L1377.2 226.1C1376.8 226.9 1377.1 227.8 1377.9 228.1L1392.6 235.5C1392.8 235.6 1393.1 235.7 1393.3 235.7C1393.9 235.7 1394.4 235.4 1394.7 234.9L1402.1 220.2C1402.4 219.4 1402.1 218.5 1401.3 218.1ZM1392.6 232.1L1380.6 226.1L1386.6 214.1L1398.6 220.1L1392.6 232.1Z" fill="black"/>
<path d="M1428.8 220.5C1428.6 219.7 1427.8 219.2 1427 219.4L1411 223.1C1410.2 223.3 1409.7 224.1 1409.9 224.9L1413.6 240.9C1413.8 241.6 1414.4 242.1 1415.1 242.1C1415.2 242.1 1415.3 242.1 1415.4 242.1L1431.4 238.4C1431.8 238.3 1432.1 238.1 1432.3 237.7C1432.5 237.4 1432.6 236.9 1432.5 236.5L1428.8 220.5ZM1416.2 238.7L1413.2 225.6L1426.3 222.6L1429.3 235.7L1416.2 238.7Z" fill="black"/>
<path d="M1440.9 225.2C1442.67 225.2 1444.1 223.768 1444.1 222C1444.1 220.233 1442.67 218.8 1440.9 218.8C1439.13 218.8 1437.7 220.233 1437.7 222C1437.7 223.768 1439.13 225.2 1440.9 225.2Z" fill="black"/>
<path d="M1404.5 239.7C1406.27 239.7 1407.7 238.268 1407.7 236.5C1407.7 234.733 1406.27 233.3 1404.5 233.3C1402.73 233.3 1401.3 234.733 1401.3 236.5C1401.3 238.268 1402.73 239.7 1404.5 239.7Z" fill="black"/>
<path d="M1370.5 217.301C1372.27 217.301 1373.7 215.868 1373.7 214.101C1373.7 212.333 1372.27 210.9 1370.5 210.9C1368.73 210.9 1367.3 212.333 1367.3 214.101C1367.3 215.868 1368.73 217.301 1370.5 217.301Z" fill="black"/>
<path d="M1489.3 157.9C1489.3 140.9 1475.5 127.1 1458.5 127.1C1442.4 127.1 1429.2 139.5 1427.8 155.2C1421.8 154.9 1415.1 154.7 1408 154.7C1402.5 154.7 1397.2 154.8 1392.2 155L1384.5 129C1384 127.1 1382.6 125.7 1380.8 125C1379 124.3 1377 124.4 1375.3 125.4L1348.7 140.6C1345.7 142.3 1344.6 146.2 1346.4 149.2C1347.2 150.7 1348.6 151.7 1350.2 152.1C1351.8 152.5 1353.5 152.3 1355 151.5L1374.7 140.2L1379.4 155.9C1376.1 156.2 1373.4 156.6 1371.4 157.1C1369.5 157.5 1367.8 158.1 1367.1 159.1C1366.9 159.2 1366.8 159.4 1366.6 159.6C1363.4 164.4 1356.1 178.6 1354.9 189.2C1352.3 212 1360.5 226.6 1367.9 234.9C1375.6 243.5 1386 249.3 1397.4 251.4C1398.2 252.2 1401.9 256.3 1402.3 264.3C1402.6 269.6 1403.2 283.8 1402.1 294.4C1401.7 298.5 1401 300.9 1400 304C1400 304 1397.1 308.4 1391.8 312.7H1388.3C1384.9 312.7 1382.1 315.5 1382.1 318.9C1382.1 322.3 1384.9 325.1 1388.3 325.1H1427.7C1431.1 325.1 1433.9 322.3 1433.9 318.9C1433.9 315.5 1431.1 312.7 1427.7 312.7H1424.2C1418.9 308.5 1416 304.1 1416 304C1415 301 1414.4 298.6 1413.9 294.5C1412.9 285.1 1413.3 273 1413.7 264.4C1414 259.8 1415.3 256.5 1416.4 254.5C1417.3 252.8 1418.3 251.8 1418.6 251.5C1430 249.4 1440.4 243.6 1448.1 235C1455.5 226.8 1463.7 212.1 1461.1 189.3C1461.1 189.1 1461 188.9 1461 188.7C1476.9 187.2 1489.3 173.9 1489.3 157.9ZM1486.2 156.3H1469.7C1469.4 154.3 1468.7 152.5 1467.5 151L1479.2 139.3C1483.2 143.9 1485.8 149.8 1486.2 156.3ZM1460 130.2C1466.5 130.6 1472.4 133.2 1477 137.2L1465.3 148.9C1463.8 147.8 1462 147 1460 146.7V130.2ZM1466.7 157.9C1466.7 162.4 1463 166.1 1458.5 166.1C1454 166.1 1450.3 162.4 1450.3 157.9C1450.3 153.4 1454 149.7 1458.5 149.7C1463 149.6 1466.7 153.3 1466.7 157.9ZM1457 130.2V146.7C1455 147 1453.2 147.7 1451.7 148.9L1440 137.2C1444.5 133.1 1450.5 130.5 1457 130.2ZM1437.8 139.4L1449.5 151.1C1448.1 153 1447.2 155.3 1447.2 157.9C1446.5 157.6 1445.8 157.4 1445 157.2C1442.9 156.7 1440 156.3 1436.3 155.9C1434.6 155.7 1432.8 155.6 1430.9 155.4C1431.4 149.3 1433.9 143.7 1437.8 139.4ZM1444.8 160.2C1442.4 160.8 1437.7 161.5 1431.1 162C1430.9 160.8 1430.8 159.6 1430.8 158.5C1437.5 158.9 1442.3 159.6 1444.8 160.2ZM1408.1 157.7C1415.6 157.7 1422.2 157.9 1427.8 158.2C1427.8 159.5 1427.9 160.8 1428.1 162.2C1422.5 162.5 1415.8 162.7 1408.2 162.7C1403.3 162.7 1398.7 162.6 1394.7 162.5L1393.4 158C1397.9 157.8 1402.9 157.7 1408.1 157.7ZM1401.4 196.5C1400.3 196.3 1399.2 196.2 1397.8 196.2C1396.6 196.2 1395.6 196.3 1394.6 196.4L1385.3 165C1387.5 165.2 1389.8 165.3 1392.2 165.4L1401.4 196.5ZM1402.4 199.8L1403.9 204.9C1404.4 206.6 1403.4 208.4 1401.7 208.9C1401.4 209 1401.1 209 1400.8 209C1399.4 209 1398.1 208 1397.7 206.7L1395.5 199.3C1396.2 199.2 1396.9 199.2 1397.8 199.2C1399.7 199.3 1401.2 199.5 1402.4 199.8ZM1353.5 148.8C1352.8 149.2 1351.9 149.3 1351 149.1C1350.2 148.9 1349.5 148.3 1349 147.6C1348.1 146.1 1348.7 144.1 1350.2 143.2L1371.8 130.9L1373.7 137.3L1353.5 148.8ZM1374.6 129.3L1376.9 128C1377.8 127.5 1378.8 127.4 1379.7 127.8C1380.6 128.2 1381.3 128.9 1381.6 129.9L1382.3 132.3L1376.5 135.8L1374.6 129.3ZM1377.5 138.7L1383.2 135.3L1391.2 162.3C1388.7 162.2 1386.4 162 1384.3 161.9L1377.5 138.7ZM1380.3 158.9L1381.1 161.7C1376.6 161.3 1373.3 160.8 1371.3 160.3C1372.9 159.8 1375.6 159.3 1380.3 158.9ZM1358 189.5C1359.1 180.2 1365.2 167.8 1368.5 162.4C1369.2 162.8 1370.2 163 1371.1 163.3C1373.2 163.8 1376.1 164.2 1379.8 164.6C1380.5 164.7 1381.3 164.7 1382.1 164.8L1391.7 197.1C1389.8 197.7 1388.3 198.6 1386.9 199.4C1384.5 200.8 1382.2 202.2 1377.5 202.2C1372.8 202.2 1370.5 200.8 1368.1 199.4C1365.5 197.9 1362.8 196.3 1357.6 196.2C1357.6 194.1 1357.7 191.9 1358 189.5ZM1427.7 315.7C1429.5 315.7 1430.9 317.1 1430.9 318.9C1430.9 320.7 1429.5 322.1 1427.7 322.1H1388.3C1386.5 322.1 1385.1 320.7 1385.1 318.9C1385.1 317.1 1386.5 315.7 1388.3 315.7H1427.7ZM1415 307.6C1416 308.9 1417.6 310.7 1419.6 312.6H1396.5C1398.6 310.7 1400.1 308.9 1401.1 307.6C1402.4 308.9 1404.7 309.8 1407.2 310H1407.3H1408.8H1408.9C1411.4 309.8 1413.7 308.9 1415 307.6ZM1410.8 264.1C1410.3 272.7 1410 285.1 1411 294.7C1411.5 299.1 1412.1 301.7 1413.2 305C1413.2 305.4 1411.6 306.7 1408.8 307H1407.4C1404.5 306.7 1403 305.4 1402.9 305C1404 301.7 1404.7 299.1 1405.1 294.7C1406.2 283.9 1405.5 269.6 1405.3 264.1C1405 258.4 1403.2 254.4 1401.7 252C1403.5 252.2 1405.4 252.3 1407.2 252.3H1408.8C1410.7 252.3 1412.5 252.2 1414.4 252C1412.9 254.5 1411.1 258.5 1410.8 264.1ZM1445.9 232.8C1436.6 243.2 1423.1 249.2 1408.8 249.2H1407.2C1392.9 249.2 1379.4 243.2 1370.1 232.8C1364.3 226.3 1357.9 215.4 1357.4 199.3C1361.7 199.4 1364 200.7 1366.3 202.1C1369 203.7 1371.8 205.3 1377.3 205.3C1382.8 205.3 1385.6 203.7 1388.3 202.1C1389.6 201.3 1390.9 200.6 1392.5 200.1L1394.8 207.7C1395.6 210.3 1398.1 212.2 1400.8 212.2C1401.4 212.2 1402 212.1 1402.6 211.9C1405.9 210.9 1407.8 207.4 1406.8 204.1L1406 201.4C1406.4 201.6 1406.8 201.9 1407.2 202.1C1409.9 203.7 1412.7 205.3 1418.2 205.3C1423.7 205.3 1426.5 203.7 1429.2 202.1C1431.6 200.7 1433.9 199.3 1438.6 199.3C1443.3 199.3 1445.6 200.7 1448 202.1C1450.5 203.6 1453.1 205.1 1458 205.3C1456.5 218.2 1451 227.1 1445.9 232.8ZM1458.4 202.2C1454.1 202.1 1451.9 200.8 1449.6 199.4C1446.9 197.8 1444.1 196.2 1438.6 196.2C1433.1 196.2 1430.3 197.8 1427.6 199.4C1425.2 200.8 1422.9 202.2 1418.2 202.2C1413.5 202.2 1411.2 200.8 1408.8 199.4C1407.6 198.7 1406.4 198 1404.9 197.4L1395.4 165.5C1399.4 165.6 1403.7 165.7 1408 165.7C1418.7 165.7 1428.7 165.3 1436.2 164.5C1439.9 164.1 1442.8 163.7 1444.9 163.2C1445.8 163 1446.8 162.7 1447.5 162.3C1450.8 167.7 1457 180.1 1458 189.4C1458.7 194.1 1458.7 198.3 1458.4 202.2ZM1460.5 185.5C1459.2 179.7 1456.7 173.4 1454.2 168.3C1455.5 168.8 1457 169.1 1458.5 169.1C1461.1 169.1 1463.4 168.2 1465.3 166.8L1477 178.5C1472.6 182.5 1466.9 185.1 1460.5 185.5ZM1467.4 164.7C1468.5 163.2 1469.3 161.4 1469.6 159.4H1486.1C1485.7 165.9 1483.1 171.8 1479.1 176.4L1467.4 164.7Z" fill="black"/>
<path d="M326 171.1C326.8 171.1 327.5 170.4 327.5 169.6V156.1C327.5 155.3 326.8 154.6 326 154.6C325.2 154.6 324.5 155.3 324.5 156.1V169.6C324.4 170.5 325.1 171.1 326 171.1Z" fill="black"/>
<path d="M358.4 215.9C358.4 215.8 358.4 215.8 358.4 215.9C358 203.6 357.4 199.1 352 193.1C349.6 190.4 347.2 188.7 345.3 187.4C341.6 184.8 339.6 183.3 339.6 177.4V150C340.5 149 341 147.8 341 146.4V142.5C341 139.9 339.2 137.7 336.8 137.2L337.2 132.2C337.2 131.8 337.1 131.4 336.8 131C336.5 130.7 336.1 130.5 335.7 130.5H322.3C321.9 130.5 321.5 130.7 321.2 131C320.9 131.3 320.8 131.8 320.8 132.2L321.4 137.1C318.9 137.6 317 139.8 317 142.4V146.3C317 147.7 317.5 149 318.4 149.9C318.4 151.3 318.5 172.3 318.4 177.3C318.2 183.3 316.2 184.8 312.6 187.4C310.8 188.7 308.5 190.4 306.1 193.1C300.6 199.1 300 204.1 299.7 215.8V215.9C299.7 217.9 299.7 320 299.7 321.1C299.7 326.4 304 330.6 309.2 330.6H349C354.3 330.6 358.5 326.3 358.5 321.1C358.4 320 358.4 216.3 358.4 215.9ZM334 133.5L333.7 137H324.3L323.9 133.5H334ZM319.9 142.4C319.9 141.1 321 140 322.3 140H335.5C336.8 140 337.9 141.1 337.9 142.4V142.6H319.9V142.4ZM319.9 145.6H337.9V146.3C337.9 147.6 336.8 148.7 335.5 148.7H322.3C321 148.7 319.9 147.6 319.9 146.3V145.6ZM321.3 151.7C321.6 151.8 321.9 151.8 322.3 151.8H335.5C335.8 151.8 336.2 151.8 336.5 151.7V174.4H321.3C321.4 168 321.4 156.2 321.3 151.7ZM355.3 321C355.3 324.6 352.4 327.5 348.8 327.5H309C305.4 327.5 302.5 324.6 302.5 321C302.5 321 302.5 311.4 302.5 298H355.2C355.3 305.1 355.3 312.7 355.3 321ZM302.6 295C302.6 286.9 302.6 277.7 302.6 268.5C302.6 255.3 302.6 242.2 302.6 232.3C302.6 229.8 302.6 227.5 302.6 225.5H355.3C355.3 235.3 355.3 255.1 355.3 295H302.6ZM355.3 222.4H302.6C302.6 221.6 302.6 221 302.6 220.3C302.6 218.9 302.6 217.7 302.6 217C302.6 216.5 302.6 216.2 302.6 215.9C302.8 204.8 303.4 200.4 308.2 195.2C310.4 192.8 312.5 191.3 314.3 189.9C318.1 187.1 321.1 184.9 321.4 177.4H336.7C336.7 184.8 339.8 187 343.6 189.8C345.5 191.1 347.6 192.7 349.8 195.1C353.9 199.6 355 202.2 355.4 215.8C355.3 216.1 355.3 217.1 355.3 222.4Z" fill="black"/>
<path d="M346 272.8H312C311.2 272.8 310.5 273.5 310.5 274.3V286.5C310.5 287.3 311.2 288 312 288H346C346.8 288 347.5 287.3 347.5 286.5V274.3C347.5 273.5 346.8 272.8 346 272.8ZM344.4 285.1H313.4V275.9H344.4V285.1Z" fill="black"/>
<path d="M328.9 260C332.6 260 335.6 257 335.6 253.3C335.6 249.6 332.6 246.6 328.9 246.6C325.2 246.6 322.2 249.6 322.2 253.3C322.2 257 325.2 260 328.9 260ZM328.9 249.6C330.9 249.6 332.6 251.3 332.6 253.3C332.6 255.3 330.9 257 328.9 257C326.9 257 325.2 255.3 325.2 253.3C325.3 251.2 326.9 249.6 328.9 249.6Z" fill="black"/>
</svg>
