<svg width="18" height="38" viewBox="0 0 18 38" fill="none" xmlns="http://www.w3.org/2000/svg">
<path d="M9.00004 37.4975C4.58899 37.4975 0.999545 33.9081 0.999545 29.497V6.28978C0.999545 3.0991 3.59617 0.502475 6.78685 0.502475C9.9776 0.502475 12.5742 3.09911 12.5742 6.28978V25.1101C12.5742 27.067 10.9814 28.6597 9.02458 28.6597C7.06779 28.6597 5.47501 27.067 5.47501 25.1101V11.8018H6.70765V25.1102C6.70765 26.3882 7.74654 27.4272 9.02458 27.4272C10.3027 27.4272 11.3416 26.3882 11.3416 25.1102V6.28978C11.3416 3.77788 9.2988 1.73511 6.78685 1.73511C4.27496 1.73511 2.23218 3.77789 2.23218 6.28978V29.497C2.23218 33.2292 5.26785 36.2648 9.00004 36.2648C12.7322 36.2648 15.7679 33.2292 15.7679 29.497V12.1374H17.0005V29.497C17.0005 33.908 13.4111 37.4975 9.00004 37.4975Z" fill="black" stroke="black" stroke-width="1.00495"/>
</svg>
