<svg width="288" height="355" viewBox="0 0 288 355" fill="none" xmlns="http://www.w3.org/2000/svg">
<path d="M282 36.6459H197.736C197.076 29.1459 194.766 16.4979 186.858 8.37993C181.854 3.24993 175.506 0.645935 167.994 0.645935H108C100.488 0.645935 94.14 3.24993 89.136 8.37993C81.228 16.4979 78.918 29.1459 78.258 36.6459H6C2.688 36.6459 0 39.3279 0 42.6459C0 45.9639 2.688 48.6459 6 48.6459H282C285.312 48.6459 288 45.9639 288 42.6459C288 39.3279 285.312 36.6459 282 36.6459ZM97.752 16.7319C100.44 13.9839 103.794 12.6459 108 12.6459H167.994C172.2 12.6459 175.554 13.9839 178.242 16.7319C183.072 21.6699 185.01 30.3579 185.682 36.6459H90.318C90.99 30.3579 92.928 21.6699 97.752 16.7319Z" fill="black"/>
<path d="M29.7361 324.772C29.9581 335.104 36.3901 354.646 59.1841 354.646H228.816C251.61 354.646 258.042 335.104 258.258 324.898L269.256 60.6459H18.7441L29.7361 324.772ZM256.746 72.6459L246.264 324.52C246.228 326.374 245.4 342.646 228.816 342.646H59.1841C42.7801 342.646 41.7961 326.344 41.7301 324.394L31.2541 72.6459H256.746Z" fill="black"/>
<path d="M72 324.646H216C219.312 324.646 222 321.964 222 318.646C222 315.328 219.312 312.646 216 312.646H72C68.688 312.646 66 315.328 66 318.646C66 321.964 68.688 324.646 72 324.646Z" fill="black"/>
<path d="M72 294.646H216C219.312 294.646 222 291.964 222 288.646C222 285.328 219.312 282.646 216 282.646H72C68.688 282.646 66 285.328 66 288.646C66 291.964 68.688 294.646 72 294.646Z" fill="black"/>
<path d="M72 264.646H216C219.312 264.646 222 261.964 222 258.646C222 255.328 219.312 252.646 216 252.646H72C68.688 252.646 66 255.328 66 258.646C66 261.964 68.688 264.646 72 264.646Z" fill="black"/>
<path d="M102.613 195.16C102.613 194.47 102.268 193.93 101.578 193.539C100.901 193.135 99.8073 192.777 98.2969 192.465C93.2708 191.41 90.7578 189.275 90.7578 186.059C90.7578 184.184 91.5326 182.621 93.082 181.371C94.6445 180.108 96.6823 179.477 99.1953 179.477C101.878 179.477 104.02 180.108 105.621 181.371C107.236 182.634 108.043 184.275 108.043 186.293H102.398C102.398 185.486 102.138 184.822 101.617 184.301C101.096 183.767 100.283 183.5 99.1758 183.5C98.2253 183.5 97.4896 183.715 96.9688 184.145C96.4479 184.574 96.1875 185.121 96.1875 185.785C96.1875 186.41 96.4805 186.918 97.0664 187.309C97.6654 187.686 98.668 188.018 100.074 188.305C101.48 188.578 102.665 188.891 103.629 189.242C106.611 190.336 108.102 192.23 108.102 194.926C108.102 196.853 107.275 198.415 105.621 199.613C103.967 200.798 101.832 201.391 99.2148 201.391C97.444 201.391 95.8685 201.078 94.4883 200.453C93.1211 199.815 92.0469 198.949 91.2656 197.855C90.4844 196.749 90.0938 195.557 90.0938 194.281H95.4453C95.4974 195.284 95.8685 196.052 96.5586 196.586C97.2487 197.12 98.1732 197.387 99.332 197.387C100.413 197.387 101.227 197.185 101.773 196.781C102.333 196.365 102.613 195.824 102.613 195.16ZM118.512 174.672V179.867H122.125V184.008H118.512V194.555C118.512 195.336 118.661 195.896 118.961 196.234C119.26 196.573 119.833 196.742 120.68 196.742C121.305 196.742 121.858 196.697 122.34 196.605V200.883C121.233 201.221 120.094 201.391 118.922 201.391C114.964 201.391 112.945 199.392 112.867 195.395V184.008H109.781V179.867H112.867V174.672H118.512ZM137.145 185.16C136.376 185.056 135.699 185.004 135.113 185.004C132.978 185.004 131.578 185.727 130.914 187.172V201H125.27V179.867H130.602L130.758 182.387C131.891 180.447 133.46 179.477 135.465 179.477C136.09 179.477 136.676 179.561 137.223 179.73L137.145 185.16ZM138.297 190.238C138.297 188.142 138.701 186.273 139.508 184.633C140.315 182.992 141.474 181.723 142.984 180.824C144.508 179.926 146.272 179.477 148.277 179.477C151.129 179.477 153.453 180.349 155.25 182.094C157.06 183.839 158.069 186.208 158.277 189.203L158.316 190.648C158.316 193.891 157.411 196.495 155.602 198.461C153.792 200.414 151.363 201.391 148.316 201.391C145.27 201.391 142.835 200.414 141.012 198.461C139.202 196.508 138.297 193.852 138.297 190.492V190.238ZM143.941 190.648C143.941 192.654 144.319 194.19 145.074 195.258C145.829 196.312 146.91 196.84 148.316 196.84C149.684 196.84 150.751 196.319 151.52 195.277C152.288 194.223 152.672 192.543 152.672 190.238C152.672 188.272 152.288 186.749 151.52 185.668C150.751 184.587 149.671 184.047 148.277 184.047C146.897 184.047 145.829 184.587 145.074 185.668C144.319 186.736 143.941 188.396 143.941 190.648ZM169.469 192.523L167.438 194.555V201H161.793V171H167.438V187.621L168.531 186.215L173.941 179.867H180.719L173.082 188.676L181.383 201H174.898L169.469 192.523ZM192.496 201.391C189.397 201.391 186.871 200.44 184.918 198.539C182.978 196.638 182.008 194.105 182.008 190.941V190.395C182.008 188.272 182.418 186.378 183.238 184.711C184.059 183.031 185.217 181.742 186.715 180.844C188.225 179.932 189.944 179.477 191.871 179.477C194.762 179.477 197.034 180.388 198.688 182.211C200.354 184.034 201.188 186.618 201.188 189.965V192.27H187.73C187.913 193.65 188.46 194.757 189.371 195.59C190.296 196.423 191.461 196.84 192.867 196.84C195.042 196.84 196.741 196.052 197.965 194.477L200.738 197.582C199.892 198.78 198.746 199.717 197.301 200.395C195.855 201.059 194.254 201.391 192.496 201.391ZM191.852 184.047C190.732 184.047 189.82 184.424 189.117 185.18C188.427 185.935 187.984 187.016 187.789 188.422H195.641V187.973C195.615 186.723 195.276 185.759 194.625 185.082C193.974 184.392 193.049 184.047 191.852 184.047Z" fill="#424242"/>
<path d="M125.535 151V134.008H122.391V129.867H125.535V128.891C125.561 126.234 126.375 124.19 127.977 122.758C129.591 121.312 131.863 120.59 134.793 120.59C136.551 120.59 138.686 120.974 141.199 121.742L140.379 126.41C139.103 126.033 138.113 125.792 137.41 125.688C136.707 125.57 135.952 125.512 135.145 125.512C132.514 125.512 131.199 126.677 131.199 129.008V129.867H135.359V134.008H131.199V151H125.535ZM143.836 151H138.172V129.867H143.836V151ZM154.461 151H148.797V121H154.461V151ZM165.086 151H159.422V121H165.086V151Z" fill="#424242"/>
</svg>
