<svg width="24" height="33" viewBox="0 0 24 33" fill="none" xmlns="http://www.w3.org/2000/svg">
  <path fill-rule="evenodd" clip-rule="evenodd" d="M6 2C6 0.895431 6.89543 0 8 0H16C17.1046 0 18 0.895431 18 2H21.7964C22.9009 2 23.7964 2.89543 23.7964 4V30.067C23.7964 31.1716 22.9009 32.067 21.7964 32.067H2C0.895428 32.067 0 31.1716 0 30.067V4C0 2.89543 0.895431 2 2 2H6ZM8.31787 17.8301L12.1994 6.55722L15.2352 7.25807L12.8746 14.1138L16.6632 14.9885L7.93506 27.8509L11.1828 18.4915L8.31787 17.8301Z" fill="#DD0171"/>
</svg>
