<svg width="14" height="14" viewBox="0 0 14 14" fill="none" xmlns="http://www.w3.org/2000/svg">
<path fill-rule="evenodd" clip-rule="evenodd" d="M0.999982 9.32955C0.761293 9.68517 1.27096 10 1.69926 10H12.3006C12.729 10 13.2387 9.68528 13 9.32955V9.32955C12.5914 8.72078 12.1502 8.86431 11.8 8.21215C10.5902 5.95904 11.2551 5.65319 9.87998 3.51903C9.45512 2.85967 8.19998 2.6251 8.19998 2.6251C8.19998 2.6251 8.72172 1.57571 8.19998 1.28421C7.52172 0.905263 6.47824 0.905263 5.79998 1.28421C5.27824 1.57571 5.79998 2.6251 5.79998 2.6251C5.79998 2.6251 4.54484 2.85967 4.11998 3.51903C2.74484 5.65319 3.4098 5.95904 2.19998 8.21215C1.8498 8.86431 1.4089 8.72031 0.999982 9.32955V9.32955Z" fill="white" stroke="white"/>
<path d="M6 12V11.5H5.39855L5.50841 12.0913L6 12ZM8 12L8.49159 12.0913L8.60145 11.5H8V12ZM5.50841 12.0913C5.63746 12.7859 6.34302 13.1667 7 13.1667V12.1667C6.63911 12.1667 6.50259 11.9679 6.49159 11.9087L5.50841 12.0913ZM7 13.1667C7.65698 13.1667 8.36254 12.7859 8.49159 12.0913L7.50841 11.9087C7.49741 11.9679 7.36089 12.1667 7 12.1667V13.1667ZM8 11.5H6V12.5H8V11.5Z" fill="white"/>
</svg>
